<?xml version="1.0" encoding="UTF-8"?><svg id="_이어_2" xmlns="http://www.w3.org/2000/svg" viewBox="0 0 424.5 418.84"><defs><style>.cls-1{fill:#d83e18;}</style></defs><g id="_이어_1-2"><polygon class="cls-1" points="55.29 114.32 63.84 125.06 62.88 128.17 66.82 130.32 69.92 131.03 74.94 125.3 80.43 123.75 82.7 126.85 84.61 128.53 89.26 126.14 94.87 122.67 94.87 126.5 107.77 126.14 107.77 123.87 104.9 121.72 104.9 118.86 103.11 116.83 103.11 112.65 106.1 111.34 105.14 106.2 103.11 104.77 103.23 97.37 102.16 94.5 97.14 88.65 96.66 86.39 95.35 85.55 95.35 74.57 93.08 71.94 95.83 71.94 97.02 73.01 99.53 73.25 102.04 74.92 104.9 74.92 106.22 73.25 114.93 73.73 115.41 78.98 113.86 79.58 113.86 80.77 114.81 82.09 114.93 83.88 118.51 86.86 118.51 89.73 121.5 88.3 123.53 88.18 126.03 87.7 127.35 88.77 129.61 88.77 130.33 90.92 141.43 90.8 143.46 92 144.77 92 145.73 94.14 151.58 93.79 153.01 92.12 154.68 92.12 154.68 90.32 158.5 90.32 161.49 85.79 166.86 85.67 160.29 83.28 157.91 79.94 159.82 76.36 161.61 73.97 163.99 70.39 165.78 70.39 167.7 68.96 169.61 68.96 172.11 65.37 173.9 65.37 175.45 64.54 179.27 64.54 180.59 62.99 184.89 62.99 186.8 60.84 189.3 61.55 190.62 60.24 191.93 60.24 194.67 57.73 195.27 58.93 204.46 49.62 204.46 47.71 208.28 47.71 209.24 44.84 207.05 43.17 207.05 33.38 208.52 32.67 208.76 20.85 208.64 11.65 211.27 11.65 214.37 7.83 218.67 7.83 220.7 5.45 223.21 5.45 225.83 4.37 230.73 4.85 233.11 3.06 238.75 0 241.36 7.81 241.36 10.42 245.52 19.53 251.25 20.57 254.34 17.09 258.3 17.09 262.65 21.05 263.44 30.15 266.05 31.49 269.45 29.12 275.55 34.5 277.53 41.07 278.4 38.85 285.6 39.01 287.18 38.22 290.66 43.6 291.93 41.54 293.27 43.2 290.5 49.14 293.27 51.51 290.43 55.23 291.77 57.76 304.67 58.48 308.86 57.29 308.86 53.1 313.53 47.79 315.83 49.61 312.66 57.76 315.83 61.17 314.48 66.79 322.71 69.4 324.69 72.25 328.65 72.25 329.36 76.6 332.92 76.44 334.66 81.98 345.98 79.53 350.35 82.26 350.35 84.46 359.75 81.06 363.84 83.56 368.14 83.66 375.54 95.75 375.54 97.65 379.23 99.45 379.93 95.95 385.33 97.55 386.13 99.45 394.42 100.85 396.52 99.25 400.72 98.85 401.92 102.15 405.61 104.75 415.61 104.15 424.5 108.74 422.9 110.74 420.5 117.04 416.11 118.74 410.81 126.73 409.11 132.23 409.21 141.52 403.62 150.71 401.72 167 403.92 176.39 400.62 178.69 401.32 180.59 392.22 184.59 390.23 183.29 391.22 180.79 384.13 180.89 380.53 187.79 385.33 186.69 386.63 188.39 383.03 190.18 379.93 196.58 372.74 205.17 366.24 208.07 366.84 211.7 364.44 217.36 355.05 225.06 356.75 227.16 354.15 232.75 357.75 234.95 355.65 237.65 355.65 241.05 352.55 241.05 350.95 246.04 354.45 246.04 362.15 241.55 359.15 237.75 359.75 235.35 368.34 231.15 379.13 232.25 377.14 235.45 379.73 238.65 377.73 246.04 381.43 246.64 380.43 250.14 382.63 250.14 386.13 256.34 382.53 259.83 379.43 259.83 378.03 264.43 384.33 269.43 384.71 275.11 390.68 280.11 388.27 283.67 389.33 287.14 384.04 289.16 381.54 292.91 374.61 292.14 372.4 294.83 373.94 298.1 376.15 298.1 376.15 303.49 384.81 306.76 387.02 312.82 383.08 313.88 383.08 316.48 379.33 320.81 385.1 334.56 396.07 339.47 407.03 337.26 408.19 342.26 402.42 350.05 402.32 358.04 393.18 360.63 390.49 362.65 390.49 365.35 384.43 365.35 383.08 367.18 383.08 368.81 379.81 372.66 375.67 372.66 375.67 375.35 371.25 378.24 372.02 379.97 373.36 378.14 376.25 379.39 374.23 380.84 374.23 381.9 372.69 383.34 366.05 384.59 363.55 387.19 362.01 385.36 359.22 385.74 357.68 387.19 352.68 387.19 352.01 385.84 349.41 385.84 347.97 386.61 344.98 386.71 344.98 384.97 340.94 384.01 339.79 383.24 337.96 382.67 336.42 381.8 331.8 381.32 330.46 375.83 324.49 375.26 320.64 377.28 311.31 376.32 307.27 373.81 306.31 371.31 300.73 371.12 300.06 369.49 290.92 369.68 290.53 367.37 288.7 366.21 288.42 363.91 284.28 368.62 281.87 367.85 278.99 371.89 274.85 372.85 274.66 375.93 271.2 378.91 266.77 378.62 263.98 379.39 257.34 386.42 255.9 395.08 253.69 396.33 255.42 403.93 256.09 410.37 259.07 412.39 259.18 415.65 249.27 413.83 243.12 416.22 242.89 418.84 235.83 418.84 229.34 414.85 221.36 418.84 218.28 414.97 210.99 412.92 203.36 412.8 200.51 402.43 193.22 403.23 191.4 399.59 179.32 396.28 177.16 396.62 177.16 404.03 154.71 404.14 145.26 396.97 136.6 400.04 131.24 393.32 131.24 390.81 123.27 391.84 114.04 388.19 114.04 384.32 111.42 386.14 111.42 388.65 108.34 388.08 107.66 386.14 110.85 378.05 104.81 376.91 102.31 378.05 102.31 376.34 99.23 376.23 97.75 374.18 101.4 370.88 104.7 370.88 107.78 366.09 107.78 361.42 109.26 361.42 109.6 355.61 111.53 354.24 110.74 349.46 112.45 347.52 112.45 340.8 114.16 340 113.81 329.75 115.18 329.29 115.18 319.38 116.55 317.9 116.55 316.19 121.22 313.91 119.17 310.49 115.52 314.14 114.95 309.93 116.78 308.33 116.21 292.15 118.14 290.67 118.03 277 120.19 274.49 126.12 281.33 127.37 280.76 129.31 282.7 129.76 284.86 131.47 289.08 132.95 293.98 134.21 292.15 134.21 287.14 132.61 285.2 132.61 280.42 129.31 278.14 129.31 275.86 126.46 274.15 124.29 274.27 120.19 268.91 116.78 268.91 114.61 266.52 114.72 264.01 116.43 261.39 119.62 262.08 119.62 254.9 122.47 255.47 122.13 253.08 122.81 250.23 116.66 245.56 118.71 241.45 119.62 240.32 115.41 240.2 113.02 237.47 107.32 237.58 107.55 235.07 101.17 232.45 96.84 229.38 95.36 226.87 94.45 223.23 93.19 222.31 93.19 220.95 86.93 214.91 86.13 208.53 91.26 204.31 89.32 201.47 82.03 199.87 84.88 196.91 84.88 191.67 81.69 193.72 78.38 191.44 73.03 190.64 73.14 187.11 76.79 185.4 74.51 183.69 74.51 180.62 63 181.07 64.14 179.36 66.31 179.02 67.33 177.2 64.26 175.95 59.81 175.83 59.13 177.09 54.34 176.86 53.2 175.83 50.47 175.83 46.6 170.48 43.29 169.79 40.44 168.43 34.06 168.43 32.7 166.95 30.42 166.72 26.32 162.62 24.95 164.21 20.62 164.21 17.89 166.95 12.76 166.03 12.76 164.21 14.81 163.76 7.97 157.38 4.44 156.12 1.14 154.98 5.92 152.48 16.06 152.25 16.06 146.33 11.73 147.12 10.71 144.96 7.63 146.21 7.63 143.25 14.24 142.68 11.62 138.46 6.72 139.38 1.14 141.08 0 129.01 5.24 127.41 13.56 123.65 17.09 125.13 21.08 122.29 25.52 122.29 27.34 125.36 32.13 122.4 36.23 122.51 37.03 124.11 39.3 123.77 39.3 119.55 43.63 117.96 45.8 116.93 50.36 114.43 54.23 114.43 55.29 114.32"/></g></svg>