<?xml version="1.0" encoding="UTF-8"?><svg id="_이어_2" xmlns="http://www.w3.org/2000/svg" viewBox="0 0 398.49 417.36"><defs><style>.cls-1{fill:#d83e18;}</style></defs><g id="_이어_1-2"><polygon class="cls-1" points="36.05 55.85 42.03 55.85 50.45 43.08 48.82 38.46 53.16 36.83 58.33 29.76 62.03 29.76 60.77 40.09 68.92 48.51 74.36 48.51 72.18 52.86 75.99 54.49 75.99 59.92 81.42 59.92 83.05 56.66 78.7 51.5 89.3 36.29 87.4 29.76 89.3 27.32 93.35 29.89 94.46 27.69 94.77 34.22 97.6 38 102.95 38.23 104.29 34.77 112 34.38 115.38 41.61 118.69 40.28 116.56 37.21 118.13 33.28 114.12 30.44 116.33 22.42 119.94 21.63 122.78 26.43 127.81 26.75 128.6 22.97 125.69 19.12 128.2 10.86 135.28 10.07 138.59 12.74 136.94 14.87 146.77 15.81 149.52 7.79 154.32 5.19 163.76 3.46 170.76 5.74 184.45 0 187.68 0 183.27 3.46 183.9 8.89 189.64 9.99 189.17 14.32 195.78 19.27 203.02 20.93 205.06 21.95 237 27.38 235.51 31.07 232.91 31.07 225.67 37.52 227.25 42.32 230.16 41.69 234.64 44.37 229.84 49.95 229.92 52.86 234.33 53.1 233.54 60.97 231.55 66.7 226.65 67.89 225.31 64.77 219.66 64.62 218.77 71.31 210.88 71.31 201.81 77.11 196.01 75.18 190.51 78.3 184.86 86.03 189.02 90.79 192.3 101.5 195.27 101.5 198.09 106.26 193.78 106.26 192.74 108.93 188.73 108.93 188.73 113.1 188.73 119.49 191.11 133.62 194.53 138.08 196.16 141.5 205.58 149.53 209.4 150.87 225.75 163.81 227.39 165.44 230.51 165.44 234.08 169.9 238.99 181.21 243 190.57 243 196.08 245.53 203.96 249.55 212.73 261.49 223.12 266.12 229.7 269.54 230.19 270.68 233.28 270.68 237.02 276.45 237.02 281.25 239.38 283.85 243.12 291.57 243.12 303.12 243.12 303.44 245.88 308 245.88 308 242.3 314.91 242.71 316.37 241.17 320.52 244.83 320.52 250.92 318.16 251.9 314.91 251.9 312.55 255.4 310.92 257.18 311.17 260.03 313.69 262.88 313.69 264.58 314.66 266.62 321.98 268.49 329.14 272.06 332.31 272.55 335.48 274.01 341.33 277.27 348.32 278.89 352.63 282.71 355.56 283.85 361.74 291.41 364.67 291.41 377.68 297.68 381.99 298.9 382.72 303.94 385.32 305.07 398.49 321.26 398.49 324.43 395.32 327.27 395.57 329.55 393.61 330.52 393.7 335.24 386.87 335.24 380.69 329.22 382.23 322.64 379.38 320.36 376.21 315.4 364.67 314.34 356.54 310.28 355.81 306.62 351.41 304.75 346.45 305.89 343.04 308.65 341.9 311.82 340.11 315.89 338.41 320.2 333.69 324.18 335.15 328.41 331.25 333.86 330.6 340.04 332.23 343.53 339.3 343.53 352.31 353.62 352.88 357.11 351.5 358.25 351.5 370.2 353.28 372.4 350.6 375 347.11 374.43 341.58 375.81 337.19 376.95 332.71 382.81 332.71 388.42 334.1 389.55 334.18 395 329.38 399.8 323.53 401.59 322.88 404.68 319.3 407.93 319.3 411.83 316.7 415.9 313.12 417.36 306.13 416.87 303.28 414.27 303.2 404.11 308 401.59 310.68 397.68 312.06 391.83 310.6 388.17 310.6 384.19 313.85 383.78 316.05 381.42 319.7 381.59 322.47 377.28 322.47 373.29 319.79 372.32 316.78 369.23 317.1 366.87 315.64 364.84 316.13 358.41 314.99 356.79 314.99 354.43 313.36 352.15 312.55 350.36 310.44 348.17 309.7 345.4 308.57 344.35 308.89 340.12 307.26 336.7 308.08 332.8 304.66 330.52 304.66 328.57 300.03 324.91 296.04 325.32 295.31 326.7 291.82 326.54 288.08 322.72 285.88 322.47 284.82 320.36 282.22 320.36 281.65 319.22 277.75 317.43 278.16 314.34 279.86 314.1 279.38 311.17 281.81 309.14 279.29 307.27 277.34 304.26 275.47 301.09 271.57 298 268.64 300.2 264.33 299.63 263.2 301.25 260.35 301.17 262.79 297.84 263.03 293.37 259.37 290.76 255.88 291.25 249.7 291.25 248.64 290.2 248.32 287.84 246.61 286.37 245.96 283.85 246.12 281.82 243.52 280.19 242.95 276.37 240.35 275.8 237.66 273.36 235.63 273.45 235.14 272.47 232.95 271.82 231.89 273.45 229.53 273.61 228.4 271.58 226.53 272.06 226.44 270.68 219.78 271.09 217.27 273.53 210.67 266.78 210.59 265.23 206.85 265.07 204.65 263.61 201.56 263.61 200.83 261.82 199.12 261.41 199.12 258.65 190.75 251.66 188.07 251.25 187.17 249.78 187.17 246.37 185.38 244.91 185.14 242.3 181.48 240.27 178.23 237.51 175.71 238.56 173.67 235.23 172.05 231.49 170.75 230.11 169.61 226.77 164.73 223.52 161.72 222.95 157.74 221.57 150.91 211.98 143.68 204.09 139.53 204.09 138.22 202.3 140.74 201.73 140.58 199.37 134.73 195.71 128.96 195.63 130.74 192.38 130.01 183.93 130.01 180.35 128.39 177.34 125.21 172.87 124 169.7 123.1 162.05 123.1 155.63 120.58 152.62 116.43 147.42 114.73 145.22 108.95 143.76 105.21 143.43 100.74 139.21 97.08 137.9 93.91 136.12 91.8 132.38 85.86 130.51 80.82 130.67 76.76 129.37 70.74 128.39 67.4 131.32 62.85 134.49 62.28 136.93 52.93 145.3 52.93 147.09 51.79 148.64 51.55 150.34 47.57 153.19 42.28 154.98 36.91 157.34 29.43 156.77 30.33 151.24 36.83 144.08 35.13 138.8 24.56 141.97 12.44 136.2 7.72 121.81 11.3 117.82 11.3 114.81 14.96 114.57 13.09 107.66 4.96 104.81 4.15 99.04 1.54 98.71 0 95.46 2.52 93.35 9.43 93.43 12.11 90.1 17.73 88.31 16.34 83.92 18.86 80.5 14.47 77 12.03 75.87 12.11 69.69 6.34 64.24 7.16 60.42 10.65 60.34 14.64 56.92 16.34 59.52 17.73 59.52 22.2 56.03 25.45 57.49 31.14 52.69 36.05 55.85"/></g></svg>