<?xml version="1.0" encoding="UTF-8"?><svg id="_이어_2" xmlns="http://www.w3.org/2000/svg" viewBox="0 0 319.48 361.36"><defs><style>.cls-1{fill:#d83e18;}</style></defs><g id="_이어_1-2"><g><path class="cls-1" d="M244.47,0l-6.26,2.78-1.39,5.91,3.83,12.87-1.74,10.44-.7,12.18-5.52,3.24v5.71l1.71,6.09-4.76,5.33-4.95-2.86-3.62,.19-4.76-3.62-3.24,1.52v4.76l4.19,4-4.19,5.33-3.43-1.14-2.86,4.19h-4.38v4.76l1.33,1.71-3.05,4.38,8.18,7.04-2.86,9.14v5.9h4.38l4.38-3.24,.38-3.24,6.28-3.43,4.38,3.05,2.66-2.66-7.42-9.14-3.81,.76-5.14-4.76,2.28-7.61,4.57-1.52,5.52,7.42,11.8-6.47,8.95,2.28,13.7,8.37,6.47,3.05,3.43,2.86,3.43-3.05-3.4-5.71,7.97-8.95,10.66-7.99,10.47,1.71,7.8-4.38,2.28-3.05,7.61-.19,3.81-5.14-9.9,1.52-1.52-9.14-2.09-4.19,2.28-7.23,2.86-7.8-3.62-.38-9.14,11.04-7.61-.76v-2.86l-10.85-.76-3.05-3.62-6.28-4.57-10.47-9.71-3.62-5.33-.76-2.86L244.47,0Z"/><polygon class="cls-1" points="225.01 107.54 223.04 108.85 224.03 111.21 221.87 114.09 221.87 117.23 230.12 113.43 231.03 116.45 231.03 120.64 227.89 123.91 224.75 120.77 222.91 120.77 221.87 123.91 219.64 123.91 218.85 116.32 216.5 114.61 214.79 115.73 213.22 113.96 212.17 120.24 210.86 127.45 207.46 127.45 203.66 130.59 205.62 132.69 205.1 136.88 207.33 138.06 206.67 140.94 205.23 143.95 205.23 145.52 203.66 147.62 200.71 147.62 200.71 149.84 202.74 150.5 203.92 149.19 207.2 151.28 206.41 160.98 204.05 164.91 203.01 169.36 202.87 174.47 201.3 177.87 198.29 179.05 196.19 185.99 195.67 190.84 192.27 196.73 185.98 199.35 183.62 201.84 181.13 208.52 178.78 211.4 174.85 212.45 171.44 216.9 168.56 216.9 165.55 219.91 157.82 222.14 153.66 227.51 147.87 225.15 149.44 220.7 145.64 217.43 146.82 215.85 149.18 215.85 150.22 214.41 152.71 213.76 153.66 210.61 155.07 208.78 151.8 208.52 149.05 210.09 144.99 211.53 142.5 212.84 141.45 216.64 141.45 218.21 143.02 218.47 142.5 223.71 141.45 228.03 138.44 232.09 132.94 238.25 130.45 240.74 127.96 244.54 127.96 247.02 129.66 249.91 127.96 252.79 127.96 254.75 124.03 256.06 116.17 257.24 114.6 257.24 113.94 255.01 113.16 251.35 108.44 253.7 97.84 254.1 95.35 256.19 84.08 257.24 79.63 256.72 76.23 258.55 74 255.67 69.41 256.45 62.74 259.34 62.74 262.22 57.76 264.31 53.04 270.86 47.28 276.49 44.51 277.15 41.52 278.98 37.85 282.78 30.52 283.57 28.03 286.58 29.21 287.63 28.03 291.29 28.03 294.31 26.46 296.66 21.35 296.66 20.56 300.85 17.03 304.65 11.39 306.49 8.38 303.47 8.38 307.93 0 309.24 0 313.17 2.36 310.28 4.58 313.82 3.54 317.62 7.2 322.2 7.2 326.26 10.87 322.33 14.01 322.46 13.75 325.61 18.07 324.3 17.29 320.76 15.32 319.58 14.93 316.44 13.75 313.69 15.98 312.9 18.73 314.21 18.99 317.49 23.05 320.24 23.18 323.51 19.51 325.35 19.91 327.7 22.53 326.66 20.04 331.24 20.04 333.73 16.63 336.87 14.41 338.18 15.59 342.76 14.01 345.52 17.16 348.53 17.29 351.28 13.88 354.03 14.93 357.43 20.17 357.43 21.09 359.14 23.18 359.14 23.84 357.7 21.61 354.95 21.74 349.31 25.15 346.56 27.37 346.96 26.72 348.79 24.88 351.02 26.46 354.95 26.46 357.3 24.1 360.84 28.16 361.36 32.61 357.17 31.3 353.9 33.14 351.67 35.89 354.81 38.51 354.03 39.03 351.02 39.68 348.66 40.08 341.06 43.88 326.39 50.29 319.98 49.11 317.09 50.16 315.26 46.49 313.3 43.48 310.02 45.58 306.35 44.51 301.51 41.91 301.25 37.98 303.08 33 302.16 30.12 297.71 30.91 293.52 32.22 292.21 34.58 294.83 36.8 294.7 39.16 292.34 41.26 293.65 45.97 292.6 51.08 295.09 52.26 296.14 55.01 289.2 55.53 286.71 58.81 284.61 59.72 288.02 63.13 287.63 67.19 286.05 73.21 283.83 76.49 284.48 79.24 282.13 82.77 282.52 86.05 283.96 88.8 281.6 89.32 278.72 93.38 278.85 98.49 275.58 103.99 275.71 107.13 277.54 110.54 277.8 116.56 277.15 116.7 279.64 111.59 285.53 111.46 291.29 110.02 296.27 114.73 299.94 117.35 304.52 124.03 304.91 129.27 299.54 129.66 294.96 132.8 293.65 133.46 289.46 141.06 285.92 145.12 286.58 146.82 283.3 139.48 278.98 138.31 276.1 141.06 270.47 143.15 267.59 144.99 267.98 143.94 272.43 147.87 274.66 153.11 275.05 151.93 277.41 147.74 279.11 148.91 280.16 157.69 277.67 161.23 277.8 166.6 277.93 171.83 278.33 172.62 275.71 180.35 266.54 184.28 268.5 182.18 270.21 182.18 277.54 184.15 278.59 187.03 275.97 189.12 271.25 188.21 267.72 190.17 263.27 194.89 262.22 198.95 264.71 201.04 263.4 200.12 260.91 203.01 254.23 206.02 254.23 207.07 257.11 203.92 261.04 202.74 263 202.61 271.39 204.97 272.96 205.89 270.47 209.16 267.19 213.22 266.15 214.92 257.11 219.38 254.49 222.39 253.05 220.95 247.94 217.54 240.87 218.59 234.45 221.21 227.64 221.73 223.58 224.75 222.4 225.66 218.21 227.5 211.27 225.79 201.58 223.7 197.52 225.4 191.36 228.94 186.91 232.74 187.3 236.27 189.66 236.27 181.54 234.83 179.97 239.02 173.42 242.82 170.28 246.88 157.57 245.05 154.04 244.65 147.88 242.3 145.39 242.03 139.89 239.02 134.91 235.36 132.82 235.22 127.19 232.6 126.4 233.65 124.44 233.78 115.4 235.09 114.09 234.7 111.08 232.08 111.86 228.54 109.24 225.01 107.54"/><polygon class="cls-1" points="68.24 291.16 65.88 293.78 62.34 299.68 59.72 302.29 55.66 306.22 58.28 308.32 59.98 311.07 59.33 317.62 61.95 318.8 64.31 318.8 61.95 321.02 63.52 322.33 68.24 322.33 69.94 317.62 74.39 311.99 75.31 308.45 79.5 306.75 81.99 304.13 86.05 304.39 88.8 306.75 92.6 310.68 95.87 302.43 102.29 297.58 102.29 293.52 100.19 292.47 101.37 289.07 99.54 287.76 92.33 283.83 88.27 283.83 86.18 285.92 82.77 287.63 81.46 291.69 78.98 293.39 75.18 293.52 72.17 294.7 68.24 291.16"/></g></g></svg>