<?xml version="1.0" encoding="UTF-8"?><svg id="_이어_2" xmlns="http://www.w3.org/2000/svg" viewBox="0 0 176.25 342.26"><defs><style>.cls-1{fill:#d83e18;}</style></defs><g id="_이어_1-2"><g><polygon class="cls-1" points="10.64 53.28 12.65 61.32 14.66 66.95 19.48 66.95 21.34 65.49 24.49 69.2 23.56 73.1 22.82 79.22 24.49 81.45 27.64 83.49 27.64 86.27 23.56 86.27 20.22 88.5 21.34 93.14 24.68 91.1 26.53 94.62 27.64 97.59 30.61 96.29 30.61 99.63 30.61 103.34 32.1 106.12 27.46 104.45 23.38 103.9 18.55 101.3 16.51 104.08 10.64 104.45 10.64 107.42 13.17 108.54 13.17 110.95 9.83 114.47 7.79 110.58 3.15 111.13 2.41 116.33 .74 115.21 0 119.67 3.34 121.52 6.68 125.05 8.91 131.17 10.39 139.33 14.84 141.93 13.91 134.7 13.17 130.61 16.05 129.5 16.05 135.07 18 137.66 17.81 144.34 20.59 145.83 19.3 147.87 20.78 150.09 20.59 156.4 18.37 159.56 22.82 160.48 25.97 162.34 25.42 164.57 27.46 167.53 20.78 170.32 20.78 173.29 23.38 171.99 23.56 175.14 26.16 177.55 27.27 180.52 22.26 182.75 21.15 186.83 16.88 191.1 18 194.99 26.16 194.07 26.53 195.74 18 198.7 14.1 204.46 8.53 215.77 9.65 219.85 16.88 225.05 11.87 230.24 7.79 234.7 8.35 240.08 12.62 242.49 12.43 248.05 7.61 245.46 5.94 250.84 7.98 255.66 16.05 260.11 19.3 267.54 17.44 270.13 18.37 272.36 22.82 274.03 26.72 266.79 32.1 263.08 35.99 266.05 42.86 264.38 44.53 257.52 51.39 249.91 54.36 248.98 60.11 246.94 65.31 241.56 69.02 240.63 73.1 246.2 72.36 250.1 76.62 254.55 76.62 247.13 82.38 245.27 83.67 239.52 82.56 234.51 88.5 235.44 92.02 230.99 95.36 231.91 98.15 234.51 105.57 236.74 107.98 233.03 110.76 236.92 114.84 238.59 112.25 242.3 114.84 244.34 118.18 239.52 121.15 243.36 123.56 240.82 124.31 243.36 125.98 248.8 131.91 242.49 131.91 238.04 130.61 231.54 136.18 228.95 137.85 230.43 138.78 226.53 143.79 222.82 143.79 228.57 149.35 223.56 153.43 225.61 156.59 219.48 159.93 217.26 159.93 211.88 163.82 208.54 165.68 198.89 167.16 202.04 170.5 184.05 173.29 172.91 176.25 164.94 167.35 166.64 165.31 164.75 168.83 161.97 165.49 155.29 165.49 144.34 169.2 140.26 167.16 130.8 170.87 123.19 166.61 110.39 167.91 101.11 164.19 94.25 163.08 86.46 147.87 61.23 139.15 49.91 128.57 34.51 122.64 19.3 118 9.65 113.54 0 110.21 2.23 110.21 9.65 106.31 14.66 98.52 20.04 89.24 18.92 85.39 20.59 84.23 17.25 72.73 18.18 68.65 21.15 64.94 18.18 59 20.04 55.84 18.92 51.76 20.59 43.23 26.72 42.12 31.35 37.29 33.95 37.48 37.29 34.51 39.7 29.68 43.23 26.72 43.23 28.02 50.65 26.9 53.8 23.01 56.03 15.21 50.46 12.06 50.09 9.65 50.65 10.64 53.28"/><polygon class="cls-1" points="7.6 342.26 7.97 340.95 10.17 340.06 11.74 339.48 15.15 339.48 16.72 340.27 19.76 340.01 25.58 339.22 27.88 337.75 32.34 336.5 33.96 334.87 35.59 334.87 38.47 330.89 40.04 327.8 40.04 324.6 38.1 322.29 35.38 320.62 29.66 319.93 26.83 320.83 25.68 321.51 21.02 321.4 18.97 323.08 14.94 324.07 8.33 326.43 6.71 327.69 6.18 329.47 2.67 331.99 1.99 334.03 1.99 336.97 4.82 339.85 7.6 342.26"/></g></g></svg>