<?xml version="1.0" encoding="UTF-8"?><svg id="_이어_2" xmlns="http://www.w3.org/2000/svg" viewBox="0 0 634.93 406.99"><defs><style>.cls-1{fill:#d83e18;}</style></defs><g id="_이어_1-2"><polygon class="cls-1" points="37.03 306.42 40.52 297.26 52.29 288.54 66.68 285.92 78.45 277.64 101.56 277.64 119.44 283.31 113.77 299.88 127.3 312.14 125.05 319.47 118.71 325.53 118.71 334.13 114.48 340.19 117.16 343.57 131.95 345.54 128.57 360.62 135.62 356.82 139.28 359.49 143.37 369.08 147.6 370.77 149.29 375.14 146.75 376.41 151.26 378.94 151.26 385 159.86 398.68 166.06 394.31 173.11 398.11 175.36 392.19 182.83 392.9 187.77 385.57 198.9 390.92 207.36 383.17 212.71 383.17 211.16 380.35 214.97 377.39 221.03 379.23 221.87 372.46 225.11 372.6 228.5 376.55 238.5 375 240.48 378.52 244.42 379.93 245.83 385 250.34 382.04 256.97 385.43 266.69 387.54 268.81 375.42 271.91 371.47 283.75 370.63 287.69 366.96 287.69 363.16 290.23 361.89 290.23 349.35 301.36 347.37 302.21 342.86 307.14 341.45 309.54 332.43 302.07 319.61 296.43 318.2 304.32 309.88 311.93 308.9 318.99 300.58 322.79 300.58 322.79 295.79 329.97 293.68 329.97 289.02 327.15 287.47 329.13 283.81 332.37 283.81 336.6 278.6 346.89 276.06 350.97 280.15 351.68 297.34 347.17 308.62 347.17 312.84 349.85 316.37 348.15 318.48 351.68 323.77 360.69 326.31 365.67 336.82 370.09 339.04 368.65 341.36 370.64 345.23 376.4 345.01 384.92 350.65 389.67 346.78 394.32 351.1 397.86 349.66 403.95 353.86 404.39 360.17 401.96 360.28 395.98 371.34 402.4 372.67 410.47 378.53 410.47 384.36 418.34 396.59 413.64 401.49 413.64 404.14 418.34 401.49 420.58 404.14 424.05 402.3 424.05 405.16 427.11 406.99 438.53 389.45 428.74 384.56 428.13 377.83 424.86 376.81 430.16 370.69 429.55 366.82 426.9 364.37 427.31 359.68 434.86 358.05 438.53 353.56 435.88 346.22 442.81 343.36 448.72 335 452.8 333.16 455.86 322.97 461.37 322.76 461.37 314.2 467.49 304.81 467.49 297.68 464.63 296.25 464.63 286.87 459.74 282.38 459.74 279.93 465.04 276.06 464.63 269.63 476.67 266.78 478.09 272.28 483.6 275.34 486.05 269.63 491.35 266.78 491.35 272.69 491.35 294.31 496.04 296.76 498.08 303.9 502.16 309.2 515.82 312.46 519.29 308.79 525 312.06 528.47 300.23 534.59 301.86 553.35 293.09 555.39 296.55 560.08 293.09 560.08 296.15 565.18 299.21 563.34 303.9 565.18 306.96 565.18 312.87 574.15 316.13 572.11 323.48 576.19 325.92 586.39 322.86 590.06 317.97 590.06 315.32 581.9 306.75 580.48 300.02 583.94 296.55 583.94 292.88 588.02 291.86 590.06 286.77 584.15 282.07 580.07 284.93 574.56 283.91 570.89 279.22 572.93 275.75 571.5 260.05 579.46 251.89 579.66 245.97 584.56 246.99 592.1 243.32 596.79 244.75 598.63 240.88 601.89 246.59 599.85 248.42 599.85 253.32 603.73 253.32 607.19 257.6 613.52 260.05 614.74 257.19 621.06 259.64 624.53 258.62 629.22 262.09 632.08 259.44 634.93 245.97 630.85 241.69 622.49 240.88 619.23 230.27 624.33 224.97 621.88 220.89 627.39 217.42 624.94 209.06 629.22 206.2 631.67 197.03 630.65 190.09 634.93 180.3 626.16 176.02 625.14 170.92 621.06 166.84 614.13 168.27 612.29 176.02 608.42 176.22 610.05 182.34 599.85 180.51 597.61 187.85 598.22 193.56 580.48 198.45 578.23 194.38 573.34 193.76 568.04 186.42 548.05 180.91 547.84 174.39 550.29 166.84 548.05 164.8 548.46 161.34 541.73 164.19 537.85 161.34 521.94 153.59 514.19 156.03 509.91 153.59 505.01 157.05 501.96 152.57 492.17 154.4 491.96 150.93 497.06 146.65 494.61 129.31 499.71 111.37 507.46 102.6 512.36 91.38 519.9 88.32 517.68 81.91 518.04 75.69 511.64 70.18 507.91 70.18 506.13 65.56 502.54 64.03 499.32 66.68 496.81 69.89 494.15 67.38 483.39 59.83 479.34 53.82 477.94 47.82 471.52 43.48 465.93 38.45 456.01 33.56 452.65 28.25 443 26.37 437.21 27.7 433.76 30.04 422.19 29.26 414.96 32.93 408.73 30.93 404.61 22.7 408.5 22.7 408.5 20.81 401.38 19.47 399.27 14.46 393.26 17.47 393.26 20.92 398.71 23.48 397.16 27.26 388.14 23.14 389.48 18.69 385.81 16.36 389.48 11.35 386.25 8.12 381.69 9.57 381.58 3.56 378.13 1.56 373.68 10.24 371.12 4.23 371.34 .56 363.89 0 366.12 5.12 352.43 6.23 349.2 11.68 349.65 17.58 346.76 17.69 342.53 22.14 344.75 24.48 342.53 27.93 347.2 30.71 351.43 30.71 351.54 34.94 353.21 31.93 360.22 33.27 360.22 29.37 371.79 27.48 373.79 32.82 372.79 34.49 369.12 33.6 369.12 41.5 364.56 41.94 365.23 39.39 357.66 35.49 357.33 39.5 350.09 41.61 350.09 45.17 355.43 47.51 345.31 49.96 342.64 47.4 340.75 49.4 330.96 49.51 326.73 45.06 325.73 40.05 317.05 41.61 315.16 38.72 309.37 43.61 300.58 46.28 298.47 51.51 279.67 51.62 278.22 53.85 273.77 53.4 272.99 47.17 270.43 45.17 259.97 45.06 254.97 52.4 244.84 55.07 242.17 57.19 234.61 50.67 241.73 49.4 239.84 44.28 236.39 42.95 232.49 47.29 227.93 44.73 227.06 48.3 223.22 48.39 216.55 54.11 215.36 57.53 220.57 58.04 219.2 60.86 215.78 59.49 216.21 63.42 212.96 67.61 206.39 63.68 205.11 67.18 209.55 69.06 204.42 75.04 199.21 77.26 192.04 76.49 181.19 79.74 178.45 75.89 169.06 75.3 172.05 66.33 168.63 65.56 163.67 63.08 156.84 65.81 146.85 62.99 143.09 64.62 144.8 74.18 137.02 77.35 136.94 82.73 133.26 82.56 133.26 87.25 128.91 89.73 129.08 94.86 148.3 90.07 154.19 95.8 151.8 99.47 146.93 99.39 148.13 101.86 144.97 105.54 137.28 107.24 139.84 116.47 123.7 130.57 125.4 133.04 118.06 140.47 109.26 144.15 109.43 148.25 104.05 149.36 102.17 152.78 106.18 155.94 103.36 159.01 97.9 160.63 93.28 167.64 76.63 173.62 74.75 172 66.55 181.22 69.54 186.77 69.88 197.79 66.38 204.97 69.62 209.58 69.54 213.6 60.99 217.7 59.63 222.14 45.19 229.57 22.04 252.64 27.76 259.81 16.4 275.62 17.85 281 14.95 285.78 29.13 296.12 20.42 311.67 23.06 319.7 19.99 322.09 15.38 320.55 12.73 322.94 9.14 321.58 1.11 328.58 4.95 333.53 0 343.1 2.9 341.74 10.08 343.02 13.75 339.09 18.37 339.51 24.77 341.22 31.69 336.61 34.26 330.97 47.67 324.56 49.46 321.15 46.81 317.39 43.91 319.7 39.64 314.66 40.66 309.36 37.03 306.42"/></g></svg>