<?xml version="1.0" encoding="UTF-8"?><svg id="_이어_2" xmlns="http://www.w3.org/2000/svg" viewBox="0 0 240.14 360.62"><defs><style>.cls-1{fill:#d83e18;}</style></defs><g id="_이어_1-2"><g><polygon class="cls-1" points="23.2 156.97 19.18 159.13 15.17 171.79 9.93 171.79 8.51 171.13 6.33 173.21 8.17 175.88 11.98 175.88 8.56 180.04 4.36 179.59 3.41 181.92 0 183.11 5.89 189.64 7.97 189.99 8.56 193.85 12.22 193.85 15 196.87 18.91 195.53 21.13 197.31 22.67 193.75 25.24 192.96 24.25 187.91 27.47 185.34 29.84 185.63 33.31 193.3 37.37 194.74 36.77 199.19 38.16 199.94 43.75 199.34 44.49 197.36 47.07 198.35 49.14 199.94 50.18 201.07 53.25 200.73 55.53 198.3 55.53 193.4 58.2 192.31 62.56 192.31 64.19 190.09 61.86 187.76 61.96 183.41 60.77 182.22 60.87 179.99 62.01 179.45 64.19 180.98 64.19 187.76 65.13 187.91 65.97 185.58 67.01 183.6 67.41 181.82 65.87 179.59 65.13 177.52 63.74 175.54 62.26 174.15 61.52 175.49 56.72 175.29 56.62 173.26 58.55 173.06 60.87 170.59 61.02 168.36 59.49 166.83 57.85 166.63 55.48 164.2 55.83 162.87 54.54 161.93 54.69 160.34 53.05 159.7 53.3 156.43 52.31 155.39 52.26 153 49.69 152.03 46.32 152.03 45.23 150.99 43.25 150.99 42.66 151.93 39.15 151.48 38.06 153 34.79 152.77 33.7 154.16 31.28 153.96 30.09 153 29.84 156.04 26.58 159.01 24.1 159.11 23.2 156.97"/><polygon class="cls-1" points="81.06 151.54 78.21 154.18 78.21 155.87 76.84 156.6 76.84 160.61 75.16 160.61 73.79 162.19 73.79 166.51 76.66 168.97 76.74 170.58 77.72 171.11 78.13 173.89 79.52 175.02 79.93 172.73 79.11 171.56 79.11 168.14 80.65 166.67 81.25 167.73 83.02 167.73 83.58 169 85.09 168.97 85.58 169.94 87.34 170.25 90.99 174.08 92.5 174.31 92.72 168.18 91.63 166.9 92.72 166.48 94.15 167.69 96.97 167.88 98.14 169.94 99.57 170.13 100.92 168.93 101.37 170.73 102.69 170.25 104.04 169.83 105.73 168.36 105.73 167.05 112.43 166.71 114.87 164.23 116.3 161.22 118.78 162.46 120.02 166.18 118.71 166.33 116.87 166.33 115.1 167.73 115.17 169.91 116.11 170.43 114.27 172.28 113.97 173.78 111.83 175.85 111.83 179.65 110.62 180.21 110.7 182.24 112.95 184.08 112.88 185.51 115.06 187.28 115.14 189.88 116.23 190.48 116.23 191.98 117.24 192.66 117.2 194.39 120.02 194.39 120.02 195.37 119.16 195.86 119.31 197.25 120.21 197.89 120.63 199.58 122.24 199.58 122.43 197.74 124.69 195.89 125.03 193.3 125.85 195.37 127.09 196.31 128.56 195.22 129.88 195.74 129.88 197.51 130.93 198.11 128.9 200.03 128.71 203.72 126.38 206.16 124.76 206.16 124.65 212.1 126.79 213.79 126.87 215.3 125.51 215.86 125.74 217.33 123.75 219.21 123.6 221.65 124.5 222.44 124.65 224.1 125.82 224.25 125.67 225.9 125.51 226.79 124.15 225.31 121.45 227.69 123.55 229.88 123.38 232.52 121.85 232.72 118.95 229.46 115.46 229.48 114.63 230.54 111.14 230.54 110.23 231.73 108.13 231.76 107.25 230.51 105.8 230.51 104.21 232.41 101.93 232.72 99.6 233.69 99.12 230.82 98.5 230.19 97.56 231.44 96.11 229.68 96.08 228.69 94.92 227.84 94.89 226.36 91.02 226.33 90.12 227.27 89.01 227.15 87.62 228.46 87.42 231.9 88.3 232.86 88.67 234.63 91.17 236.79 92.73 236.79 93.75 238.52 93.01 239.29 92.7 243.06 91.11 243.21 88.38 246.07 86.88 246.36 85.29 247.81 85.4 249.11 83.07 250.88 83.61 251.76 88.3 251.76 92.13 247.52 95.85 247.1 96.45 246.44 99.23 249.23 98.21 249.88 98.33 251.44 99.26 251.76 99.04 253.43 100.14 254.11 100.31 256.44 99.12 257.27 99.06 259.74 100.26 260.9 100.2 266.3 99.23 266.9 98.98 269.4 98.27 270.11 98.01 271.5 96.99 272.49 95.17 272.49 92.44 275.82 90.88 276.02 90.17 277.01 86.73 277.18 84.86 279.37 83.44 279.37 82.02 281.24 80.6 281.24 79.46 282.55 76.28 282.35 75.71 284.54 73.98 284.54 70.42 288.75 74.49 289.08 74.75 292.04 73.07 291.9 71.56 293.43 73.24 295.05 75.54 295.51 75.68 297.12 83.3 297.12 84.35 295.85 84.35 294.51 85.94 293.12 92.56 293.26 96.05 296.81 94.86 297.66 94.8 300.73 99.01 300.45 99.63 299.34 101 299.34 101.54 298.49 105.34 298.43 107.93 300.99 107.56 302.52 109.15 303.83 110.8 303.83 112.19 305.68 114.83 305.9 115.37 306.78 120 306.78 125.97 300.62 129.77 300.39 130.93 298.83 132.96 298.86 133.1 297.47 136.68 294.03 138.24 294.4 136.53 296.44 136.36 298.29 134.23 299.48 134.18 301.58 128.67 304.17 127.5 308.32 125.54 309.43 125.65 312.89 124.26 314.17 113.1 314.17 112.36 313.23 108.76 313.23 108.19 312.19 104.67 312.31 103.75 313.58 98.33 313 97.52 314.44 97.29 319.69 94.47 321.48 88.53 321.48 88.53 330.01 84.9 332.72 85.07 334.22 82.07 337.5 80.11 337.5 80 338.37 78.09 338.37 76.48 340.38 76.65 343.38 70.42 350.36 68.81 350.36 67.6 351.8 66.33 351.51 65.99 352.55 62.88 352.55 61.78 353.76 61.78 355.43 60.4 356.41 61.03 357.85 63.68 357.85 64.32 356.18 67.43 355.95 68.12 356.7 70.6 356.81 71.41 358.37 71.52 360.62 75.73 357.39 74.64 355.6 75.73 353.76 76.08 351.8 78.84 351.4 82.65 350.88 83.74 347.36 90.72 347.19 92.85 345.98 94.64 347.01 97 347.01 96.77 345.34 98.21 345.34 98.21 347.07 99.77 348.23 103.46 348.51 105.02 350.65 106.17 351.22 108.24 351.34 111.99 347.71 111.99 345.92 113.03 344.71 112.86 339.92 117.41 335.72 118.79 335.77 120.93 333.18 128.36 333.35 129.29 332.43 132.23 332.43 134.53 335.25 135.86 335.48 138.24 337.96 138.86 336.64 146.47 336.64 147.04 338.02 148.48 337.68 151.54 334.68 151.31 333.35 153.84 332.31 161.34 332.2 163.01 330.3 164.74 330.3 166.53 327.41 169.12 328.68 170.85 330.76 173.21 328.91 174.6 328.16 179.61 332.31 181.34 331.1 182.9 330.18 185.09 328.97 190.39 328.97 190.91 327.99 193.05 327.99 193.79 329.09 198.98 329.43 200.08 330.53 202.1 331.68 206.25 331.45 207.34 328.91 209.19 328.34 211.55 327.93 212.13 326.78 213.22 326.84 214.03 325.97 215.64 326.03 216.51 324.88 222.33 324.82 222.33 323.09 221.18 322.23 222.73 321.48 224.23 320.44 225.16 320.44 227.35 318.08 228.21 318.54 229.77 316.63 232.07 316.29 232.07 310.29 230.52 308.79 232.77 308.68 232.77 307.01 226.42 306.83 225.85 308.04 218.81 307.58 220.02 306.31 218.58 305.05 216.1 304.93 215.53 303.43 211.84 303.32 211.78 301.3 213.57 301.3 213.91 300.38 215.01 301.47 217.2 301.47 220.43 298.76 219.1 297.67 220.08 296.75 219.97 294.44 216.97 293.81 218.53 291.96 219.68 291.96 222.1 289.65 224.06 290.98 227.75 290.98 229.83 288.5 229.94 284.93 231.38 284.47 237.09 278.01 237.38 272.53 238.13 271.67 238.13 269.48 239.34 269.02 239.34 266.77 240.14 266.42 240.14 256.08 239.05 253.8 231.27 246.3 228.79 246.3 228.15 245.15 224.93 245.27 223.83 244.23 211.95 244.23 210.8 245.32 210.63 247.11 209.19 247.74 209.19 249.3 207.63 249.3 207.23 250.4 202.9 250.28 202.9 248.72 199.96 245.55 202.33 243.65 202.38 241.46 203.65 241.17 206.48 239.62 206.48 232.81 205.15 231.72 205.15 229.53 203.71 228.89 203.83 226.47 201.58 222.72 197.66 219.73 195.35 219.55 191.43 214.71 186.3 214.54 186.3 212.87 192.18 213.27 195.47 216.84 196.97 216.9 197.6 218.11 201.46 218.11 201.23 215.75 199.33 213.1 197.54 211.83 197.54 210.33 194.66 207.56 194.66 205.08 193.33 204.45 193.62 198.97 194.72 197.71 194.6 196.55 192.47 196.21 191.66 195.05 191.66 193.9 189.47 191.94 189.13 190.5 188.2 189.52 188.15 188.31 185.95 186 185.9 184.39 183.19 183.41 183.82 181.62 180.07 179.72 177.94 179.72 177.08 178.45 174.08 178.34 167.97 172.46 168.03 170.9 166.82 170.15 166.87 168.07 165.84 167.21 165.95 165.42 164.57 165.13 164.74 162.54 163.7 159.8 162.66 158.59 162.61 156.28 161.51 155.36 161.74 152.25 160.42 151.27 160.88 144.41 159.61 143.89 159.61 138.64 158.4 137.49 158.4 136.74 156.04 133.57 153.33 133.57 153.04 131.78 150.27 129.31 149.98 127.98 148.71 127.29 146.87 122.79 143.18 121.23 139.66 121.23 134.71 118.06 133.44 116.16 130.79 115.53 129.46 119.68 125.89 120.6 123.46 120.6 118.85 119.04 114.64 118.64 117.35 116.45 120.06 115.76 124.73 112.18 125.48 109.99 128.25 109.13 130.15 110.8 131.82 109.65 135.28 107.05 135.34 105.5 131.48 104.34 128.94 102.73 130.96 99.16 127.21 98.69 122.37 101.06 125.94 97.48 132.57 97.48 137.59 93.1 138.91 89.12 139.37 86.01 142.83 83.82 144.97 80.3 144.97 76.61 146.87 73.67 148.14 71.89 147.85 68.89 149.18 68.49 149.12 64.85 150.27 63.53 149.98 60.7 151.31 60.36 151.19 58.4 154.36 55.92 154.36 54.13 155.52 54.13 155.63 50.73 154.36 49.46 154.36 47.16 151.37 44.85 134.65 44.85 133.55 43.64 127.38 43.64 126.35 44.56 122.89 44.45 121.85 43.64 119.72 43.64 118.91 42.6 114.64 42.6 111.24 45.66 109.97 44.97 108.13 46.64 106.63 46.64 106.46 47.68 102.02 47.44 97.23 52.11 97.12 50.27 98.5 48.83 98.85 47.16 99.89 45.89 97.93 45.6 97.64 44.97 94.99 44.5 94.99 43.52 97.93 43.58 101.21 41.51 101.44 42.49 106.34 37.99 106.34 36.55 104.84 36.55 104.09 37.36 99.54 37.24 98.21 36.55 101.27 35.86 101.27 34.19 102.08 33.55 102.08 30.61 105.25 28.71 107.32 26.29 108.48 26.29 114.24 20.7 114.53 19.08 116.43 17.24 117.76 17.24 119.54 15.05 120.93 15.05 122.08 13.66 122.43 12.11 123.98 11.18 123.81 9.11 124.79 8.07 124.62 5.88 123.23 4.44 123.46 3.23 124.56 2.36 124.5 0 117.01 0 117.24 2.19 114.18 2.31 112.4 .81 110.55 1.96 109.22 1.79 108.01 3.29 100.75 3.34 99.54 4.5 96.48 4.38 95.62 5.48 91.01 5.48 89.16 3.46 85.82 6.11 85.13 4.55 82.71 2.02 81.27 2.02 80.52 .92 77.23 1.21 76.6 3.06 75.1 5.76 75.9 7.21 75.9 10.55 74.64 11.36 74.75 17.12 72.96 17.01 71.98 18.1 68.12 17.93 70.37 21.1 71.7 23.29 71.18 25.25 68.64 25.48 67.43 27.15 68.7 27.61 73.89 32.74 73.31 33.78 69.91 33.9 69.27 34.82 67.31 35.11 66.56 36.09 63.57 33.84 62.01 33.84 62.01 36.09 63.11 36.95 63.05 41.1 61.95 40.47 61.95 37.53 59.94 37.01 59.13 36.26 59.13 39.66 57.63 39.95 57.63 41.62 59.47 41.68 60.11 42.43 61.95 42.54 61.66 43.81 60.22 43.81 59.19 45.31 59.19 47.16 60.92 49.64 58.15 50.15 57.63 52 56.82 52.58 56.82 54.36 58.21 55.17 58.09 58.17 61.09 57.99 62.93 57.59 61.26 59.67 61.26 61.8 64.89 61.8 65.18 62.95 63.02 63.32 62.04 64.23 53.66 63.77 51.63 62.6 51.63 61.09 49.93 59.19 49.93 55.98 48.75 54.54 48.75 52.32 50.32 51.73 49.99 47.34 47.18 45.97 47.18 43.35 45.02 43.42 42.86 45.84 44.04 46.82 44.04 51.27 42.86 51.6 40.96 50.62 37.88 47.54 37.88 49.57 39.45 51.34 40.04 52.58 37.88 53.82 35.39 51.93 35.39 57.56 36.7 57.69 37.03 59 40.3 58.73 41.48 57.42 41.68 61.29 43.05 61.88 42.99 63.25 44.23 64.49 44.23 65.87 45.41 67.18 53.2 66.92 54.84 68.55 53.66 69.6 53.72 73.33 57.78 69.8 57.59 67.31 60.2 65.74 63.22 68.75 60.86 68.88 58.9 71.96 61.78 72.55 62.1 75.17 58.18 74.18 56.87 75.75 56.67 77.52 55.23 77.98 55.23 79.81 58.96 79.75 58.83 81.84 57.46 82.69 56.34 82.69 53.99 85.44 49.47 85.05 47.83 87.01 50.12 87.28 50.65 88.39 53.13 88.45 53.59 89.3 56.8 89.44 56.54 90.35 53.72 90.29 55.82 93.04 55.75 94.28 57.72 94.61 57.52 95.39 60.47 95.65 61.55 96.79 63.98 93.99 64.43 92.07 67.62 89.52 69.66 88.24 69.98 89.96 69.34 92.2 67.94 93.28 68.07 94.37 69.73 94.94 68.07 96.67 66.47 96.67 67.3 98.14 67.3 100.18 62.06 105.41 63.85 107.33 64.94 107.27 64.04 109.05 63.85 110.46 62.89 111.1 64.3 111.67 64.3 113.27 63.21 115.06 62.06 116.14 62.06 117.55 60.6 118.89 59.57 120.93 57.4 122.78 58.81 125.46 61.94 127.06 64.24 128.85 61.87 130.89 61.04 133.44 61.17 141.55 58.81 143.98 59.06 148.51 61.36 147.55 64.11 146.09 64.11 143.53 63.28 142.77 65.26 138.62 66.34 132.81 67.24 132.49 67.3 129.29 69.09 127.12 67.43 122.08 67.43 118.76 69.41 115.95 70.81 116.01 70.49 117.67 69.41 118.76 69.6 123.42 71.07 126.29 75.54 126.29 79.94 122.91 79.11 116.91 80.45 114.35 81.09 119.01 85.11 119.27 85.11 122.46 81.79 124.06 81.03 130.12 81.41 133.64 84.73 134.78 86.45 137.66 86.39 142.32 84.99 143.34 83.71 143.34 82.11 144.87 82.11 146.21 81.16 146.92 81.06 151.54"/><polygon class="cls-1" points="68.6 131.85 68.6 137.91 69.43 138.62 69.43 140.85 71.09 142.27 75.31 142.27 75.78 137.06 74.62 136.27 74.68 134.34 72.55 132.18 72.52 130.81 70.73 130.81 70.26 131.55 68.6 131.85"/><polygon class="cls-1" points="48.13 90.28 51.11 90.59 53.32 93.52 54.66 95.93 57.12 95.93 58.36 96.81 62.06 97.99 60.62 99.99 60.05 101.69 58.46 104.16 56.45 103.23 55.37 103.8 53.73 104.16 52.65 105.75 44.84 106.11 45.1 103.44 46.53 103.18 47.05 103.95 49.46 103.95 51.06 103.28 52.34 102.82 49.57 101.59 50.39 98.71 51.52 97.89 50.9 96.5 48.44 96.6 47.72 95.57 44.84 95.57 44.84 93.62 45.76 93.21 46.28 91 48.13 90.28"/><polygon class="cls-1" points="59.55 112.52 53.6 118.3 53.6 119.96 52.38 120.42 52.38 121.77 51.48 122.9 51.25 124.25 50.04 123.53 50.04 121.09 47.37 122.45 45.07 123.44 43 124.57 43 127.36 41.33 127.95 41.33 131.83 44.62 128.85 45.16 127.59 47.46 127.86 46.25 128.94 46.25 132.64 47.37 133.54 47.37 134.99 49.76 134.17 52.61 132.6 52.61 130.02 51.61 128.45 51.61 126.01 53.37 126.01 54.64 127.32 56.71 126.46 57.61 125.69 55.99 122.22 59.82 116.45 59.55 112.52"/><polygon class="cls-1" points="44.14 19.76 44.14 28.96 41.52 31.58 41.52 32.92 37.7 32.92 36.64 34.41 36.64 36.3 34.16 38.3 31.9 38.3 31.9 39.58 31.9 41.35 28.5 39.37 28.5 36.96 30.9 36.68 33.67 32.92 31.19 32.85 30.34 31.37 28.5 31.51 28.5 27.33 25.8 24.5 27.01 23.02 26.87 20.18 28.22 19.76 30.13 19.76 31.68 21.46 33.24 20.54 34.3 19.05 34.44 16.93 33.74 16.93 34.97 15.3 36.14 15.3 37.77 12.82 39.54 12.82 42.58 9.36 43.43 9.36 46.48 6.6 48.74 8.93 49.24 13.11 47.89 13.67 47.89 14.52 46.83 15.23 47.33 16.79 44.14 19.76"/></g></g></svg>