<?xml version="1.0" encoding="UTF-8"?><svg id="_이어_2" xmlns="http://www.w3.org/2000/svg" viewBox="0 0 463.35 249.16"><defs><style>.cls-1{fill:#d83e18;}</style></defs><g id="_이어_1-2"><polygon class="cls-1" points="0 12.81 0 23.49 5.51 32.8 5.51 53.47 0 73.11 5.51 92.75 0 103.43 5.51 109.63 7.24 120.31 13.44 124.94 21.36 132.37 16.19 135.13 21.36 138.92 21.36 147.19 30.66 154.77 33.42 165.1 43.41 165.1 53.75 172 57.88 177.51 59.61 181.99 79.59 179.23 108.19 192.67 131.62 192.67 131.62 187.5 144.71 188.19 153.32 196.46 157.8 199.56 162.63 209.9 172.62 213.34 176.41 206.11 184.89 206.24 190.82 211.62 194.96 220.59 201.59 227.63 201.59 232.46 204.9 237.84 218.01 243.09 220.77 241.43 218.56 238.26 218.42 227.63 220.77 221.7 227.53 219.77 239.4 210.66 245.61 207.48 251.95 207.07 258.16 208.73 259.96 209.14 260.79 205.69 263.82 206.1 265.34 210.24 269.89 213.42 274.31 210.8 275.83 213.56 277.21 210.38 281.48 210.24 282.73 205.83 279 204.31 286.31 201.27 292.52 201.69 295.28 201.69 297.08 202.93 304.67 201 310.05 201 317.09 208.73 324.95 204.45 329.37 205.83 332.95 212.45 335.99 213.28 336.96 219.49 335.3 224.46 338.47 224.46 335.3 227.91 340.41 233.84 343.99 239.08 343.99 242.26 347.31 243.09 350.76 247.09 348.96 249.16 355.03 248.47 357.1 242.81 357.1 238.26 358.76 234.53 355.86 228.6 355.03 224.04 353.24 222.25 354.34 218.94 351.17 214.94 347.17 204.86 346.06 197.83 348.13 189.55 351.17 186.1 351.17 180.58 353.24 183.34 360.83 177.95 365.11 175.33 368.42 168.99 373.94 168.02 377.39 163.05 380.7 160.84 386.36 160.15 387.6 157.39 384.43 157.26 387.6 153.67 392.57 149.39 385.81 146.77 391.32 146.22 390.36 138.63 386.36 136.28 387.74 128.55 384.43 121.1 386.77 114.34 389.12 120.27 388.7 123.45 391.46 126.21 392.57 128.83 390.08 132.97 390.5 135.32 398.5 123.03 397.81 117.65 396.02 114.48 400.85 114.48 405.26 109.79 406.64 103.16 405.4 100.96 408.3 100.68 416.3 98.75 421.54 96.26 417.96 95.85 412.85 97.51 409.26 96.54 416.72 93.09 423.06 93.09 432.31 89.64 434.24 90.19 437.28 88.54 431.76 82.46 433.14 71.43 438.24 65.63 444.31 64.11 446.38 58.59 449.14 61.08 453.42 57.76 455.77 59.7 457.84 56.52 461.98 55.42 463.35 54.19 461.1 49.91 459.5 49.91 458.05 48.53 458.13 45.26 455.8 44.1 456.17 28.06 452.83 24.58 447.24 27.05 445.57 25.31 445.57 23.56 444.05 23.27 438.02 32.42 435.7 39.89 434.9 43.67 432.22 45.63 433.16 47.22 431.27 47.22 431.42 49.47 429.9 48.02 426.63 49.18 425.83 51.79 400.21 51.87 396 53.83 391.87 59.78 389.11 60 387.8 62.1 388.96 63.48 389.18 64.79 388.38 65.37 388.46 68.49 386.28 68.56 383.45 71.03 375.97 71.32 375.32 70.16 371.55 70.74 370.17 71.24 367.56 71.53 365.16 72.12 366.68 76.25 366.25 77.63 363.06 80.39 359.72 82.64 353.19 86.19 347.82 87.36 345.71 89.46 341.86 91.42 336.64 91.71 331.7 89.24 330.33 87.5 333.74 86.48 332.58 83.07 337.44 78.79 339.11 74.15 337.51 70.88 337.22 65.73 335.12 62.68 333.01 62.68 330.62 65.95 328.44 67.62 326.77 65.8 329.75 62.25 331.05 57.89 331.27 55.42 332.14 54.84 330.33 52.01 332.94 51.43 331.34 48.46 327.57 46.79 321.11 43.74 318.64 43.68 318.15 47.68 314.93 49.63 312.69 54.5 312.4 51.09 308.98 54.4 308.11 59.38 306.74 63.18 305.77 68.35 307.81 72.64 307.52 83.36 303.04 88.63 298.45 88.63 295.82 82.48 295.14 74.2 294.46 70.1 299.33 57.43 302.06 50.41 300.79 49.72 296.5 54.7 294.85 57.04 294.75 53.62 297.58 50.8 299.43 46.21 301.96 44.56 304.5 42.22 305.86 43.19 308.4 41.44 309.67 42.12 315.71 39.39 319.32 42.22 320.29 42.51 320.68 40.85 322.63 40.85 326.04 41.05 324.49 38.22 325.46 38.22 324.78 34.12 321.37 34.32 319.03 35.1 318.34 32.95 317.47 31.69 313.18 33.83 301.67 35.2 297.87 33.83 295.63 30.81 290.56 29.83 291.73 27.1 295.63 24.76 293.97 23.2 291.34 23.89 287.24 28.86 281 31.78 274.47 34.32 271.15 33.34 271.25 29.54 266.38 31.78 261.5 32.17 265.3 27.3 267.16 27.01 272.32 21.35 282.07 17.26 278.27 17.16 277.39 15.89 271.06 15.7 270.18 14.23 264.82 16.67 261.31 12.81 259.65 12.81 258.48 14.23 257.99 11.89 255.85 11.5 256.63 10.24 253.99 9.46 246.97 10.33 246.58 8.87 241.9 8.87 239.86 7.12 238.88 .88 236.44 0 236.35 4.87 14.64 4.78 14.64 6.73 17.76 9.85 16.78 12.58 16.88 15.5 19.32 16.38 19.03 19.5 18.25 25.15 16.78 25.15 17.47 19.21 15.42 16.87 12.88 15.7 5.38 15.21 2.35 14.23 0 12.81"/></g></svg>