<?xml version="1.0" encoding="UTF-8"?><svg id="_이어_2" xmlns="http://www.w3.org/2000/svg" viewBox="0 0 321.55 363.53"><defs><style>.cls-1{fill:#e43d12;}</style></defs><g id="_이어_1-2"><g><path class="cls-1" d="M199.55,363.53c-2.31-1.51-4.53-3.2-6.96-4.5-7.72-4.14-15.51-8.13-23.27-12.19-.73-.38-1.57-.73-2.1-1.32q-4.2-4.7-10.79-2.09l2.38,1.76c-1.2,.06-2.19,.13-3.17,.14-.48,0-.96-.12-1.06-.14l-1.85-4.16c-.94,.99-1.87,1.98-2.81,2.98l.35,1.46c-5.42-1.06-10.79-2.44-16.26-3.07-4.59-.53-9.29-.06-13.93-.27-1.65-.07-3.26-.82-4.81-1.83-6.38,2.3-10.06,1.1-13.77-5.44-.88,.58-1.74,1.15-2.67,1.76-1.11-3.16-2.27-6.45-3.43-9.74l.97-.48c.77,1.05,1.55,2.09,2.74,3.71,1.62-4.66,3.09-8.93,4.81-13.89,1.27,3.15,2.27,6.04,3.6,8.78,.58,1.2,1.81,2.09,2.75,3.12,.93-1.21,2.38-2.31,2.69-3.66,.69-3.06,.66-6.28,1.25-9.37,.32-1.7,1.31-3.27,1.99-4.9,.6,.15,1.21,.31,1.81,.46-.3,4.87-.42,9.76-.97,14.6-.39,3.4-.31,5.59,3.95,3.67l-.12-.11c2.81,.51,5.63,1.02,8.81,1.6v-12.35c3.89,3.87,6.67,6.97,9.82,9.63,1.39,1.17,3.93,2.41,5.22,1.88,1.61-.67,3.34-3.07,3.49-4.85,.79-9.66,.62-9.68,6.99-11.91-.31,4.88-.71,9.41-.81,13.95-.03,1.37,.77,2.76,1.2,4.14,1.19-1.29,3.3-2.49,3.42-3.87,.42-4.94,.16-9.94,.16-14.52-1.68-1.11-3.1-2.04-4.53-2.99,4.05-1.37,7.4-2.51,11.13-3.77,.46,.96,1.05,2.19,1.76,3.69,.69-.58,1.39-1,1.88-1.6,2.41-3.02,4.46-3.75,7.51-.29,3.82,4.32,8.79,6.97,14.9,6.54-1.02,3.8-2.03,7.6-3.1,11.62-.84-.1-1.47-.3-2.07-.23-.77,.1-1.52,.41-2.28,.63-.55-1.37-.74-3.18-1.74-4.02-2.62-2.21-5.59-3.99-8.26-5.83-2.79,1.25-6.23,1.74-7.54,3.67-1.34,1.98-1.18,5.5-.61,8.12,.62,2.85,2.91,4.53,5.17,3.88v-11.5c3.01,2.03,4.86,3.62,6.98,4.61,1.72,.8,3.78,.87,5.7,1.27,1.51,1.06,2.95,2.83,4.54,2.97,1.64,.15,4.74-1.04,4.93-2.05,.75-4.12,.9-8.42,.7-12.63-.09-1.81-1.62-2.72-2.62-.09-1.43-2.3-2.85-4.6-4.69-7.57,7.42-3.97,12.98-11.45,22.83-12.2-1.93-4.13-4.93-4.45-8.57-3.05,2.02-1.56,2-2.93,.06-4.76-3.7-3.48-7.22-3.18-10.87-.1l-5.7-3.02-.69,1.03c-1.32-.87-2.65-1.75-3.97-2.62-.73,1.49-1.32,3.08-2.23,4.44-1.59,2.36-3.38,4.58-5.09,6.85l-2.05-.93c0-2.38,.11-4.76-.02-7.13-.25-4.36-2.01-5.04-5.7-2.71,.36,2.6,.85,4.97,.94,7.36,.04,.96-.81,1.96-1.26,2.94-.93-.47-1.94-.84-2.79-1.44-4.52-3.21-8.75-6.97-13.61-9.52-2.34-1.23-5.86-.21-9.67-.21-.44-.42-1.82-1.74-3.48-3.33-2.35,4.07,1.21,9.99-5.01,11.23-.95-4.39-1.87-8.69-2.91-13.49,3.28-2.13-.33-10.21,7.4-11.26-.26,2.38-.71,4.61-.65,6.82,.04,1.26,.93,2.49,1.44,3.74,1-1.1,2.6-2.07,2.87-3.32,.6-2.74,.64-5.62,.68-8.44,.06-3.63,2.02-5.32,6.09-6.19-.38,4.49-.79,8.57-1.06,12.65-.24,3.55-.18,6.86,4.96,4.09,.55-.3,1.58-.02,2.25,.28,3.94,1.82,7.84,3.74,11.75,5.62l1.15-1.62c-3.52-3.31-6.79-6.95-10.63-9.85-3.96-2.99-4.74-6.38-3.02-11.62,5.04,4.15,9.87,7.85,14.29,11.97,1.03,.96,1.01,3.37,.96,5.1-.08,3.22,1.21,4.23,4.5,3.35-.15-5.02,1.02-9.26,6.75-10.38,3.54,3.05-3.07,10.47,5.53,11.91,.27-4.3,.89-8.27,.68-12.19-.24-4.54,1.77-6.72,6.78-7.81,0,5.21-.16,10.11,.11,14.98,.07,1.3,1.22,3.29,2.26,3.57,1.16,.32,2.75-.94,4.55-1.67,3.44,.83,7.74,1.88,12.03,2.92l.69-1.68c-3.36-2.48-6.56-5.25-10.13-7.37-4.48-2.67-4.83-6.22-3.12-11.75,5.57,4.07,10.77,7.74,15.77,11.67,.79,.62,.93,2.45,.85,3.69-.21,3.67,1.43,4.8,5.22,3.96-.46-4.84,.35-9.16,6.55-10.53v10.41c3.37,1.13,5.27,.88,4.84-3-.13-1.16-.01-2.34-.17-3.49-.97-7.2,1.09-12.91,7.7-15.53-.63-2.33-1.93-4.73-1.32-5.4,1.24-1.36,3.5-1.8,6.45-3.1-2.56,10.67-4.79,19.94-6.98,29.08h16.72c-4.44-5.39-14.93-7.03-10.77-18.12,5.29,5.01,12.87,7.17,14.32,15.52,.17,.99,1.52,1.77,2.32,2.64,.45-1.18,1.49-2.5,1.24-3.51-.9-3.65,1.25-4.96,4.16-6.89,.43,2.65,.74,4.51,1.23,7.52,4.28-4.83-1.19-12.37,6.38-15.38,0,3.47-.18,6.54,.05,9.58,.24,3.12-1.03,7.82,5.29,5.76,1.26-.41,3.02,.76,5.03,.6-3.94-5.06-10.73-8.53-6.86-17.31,3.24,5.2,6.2,9.97,9.76,15.68-.29-3.1-.48-5.17-.77-8.24,6.95,8.37,.83,15.92,1.75,23.39l-1.35,.02v-12.06c-1.27,.93-2.43,1.79-3.17,2.33l1.73,12.44c-4.9-2.9-5.54-10.45-12.75-7.52,.61,1.67,1.21,3.32,1.8,4.95-2.43-1.7-4.85-3.37-8.31-5.76,.5,6.71-1.21,10.32-6.34,12.01-1.7,.56-4.02,1.97-1.99,4.43,1.56,1.9,3.57,2.32,5.52,.24,.91-.97,1.92-1.83,2.86-2.77,2.75-2.73,5.5-5.47,8.24-8.21,.9-.3,1.79-.61,2.69-.91,.32,1.31,1.28,2.94,.82,3.86-1.25,2.47-2.79,4.96-4.78,6.85-3.71,3.54-4.49,6.86-.53,10.6l-.13-.35c.68,4.83,1.36,9.66,2.25,15.99,1.37-4.97,2.33-8.45,3.29-11.93,.52,.08,1.05,.16,1.57,.24l1.48,15.91,1.73-.11c-1.2-8.07-3.03-16.19,1.89-23.79,.14,1.62,.66,3.32,.34,4.84-1.26,6.01,1.08,10.57,4.85,15.05,3.35,4,.11,11.84-4.94,13.1-2.45,.61-4.85,1.4-7.07,3.09l14.99,1.17,.05,.26-8.27,.44-.37,.84c7.12,3.54,14.29,6.99,21.35,10.66,6.44,3.35,12.75,6.95,19.12,10.44h-5c-.38-.52-.64-1.27-1.15-1.51-11.52-5.52-22.99-11.13-34.63-16.38-5.24-2.36-10.81-5.56-16.24-5.59-10.03-.06-20.07,2.06-30.13,3.03-4.58,.44-9.22,.28-13.83,.48-2.3,.1-4.6,.59-6.89,.57-3.95-.04-7.89-.36-11.83-.52-1.31-.05-2.96-.39-3.85,.24-.78,.55-.71,2.3-1,3.45-1.4-.22-2.85-.44-4.49-.69l1.13-2.56c-5.03,.76-9.9,1.5-15.82,2.39,9.78,6.02,18.76,11.55,27.75,17.08h-6Zm40.28-34.12l-1.02-2.81-6.67,1.35c.95,1.31,1.85,3.67,2.85,3.71,1.58,.06,3.23-1.42,4.84-2.25Zm-26.86-35.71c1.51-2.55,2.69-4.25,3.52-6.1,.33-.73,.04-1.87-.3-2.7-.16-.4-1.37-.85-1.6-.66-.68,.56-1.48,1.39-1.56,2.18-.2,2.26-.07,4.54-.07,7.28Zm43.38,31.17c-1.27,2.59-2.08,4.24-3.22,6.54,2.54-.51,4.39-.88,6.9-1.39-1.34-1.88-2.28-3.19-3.69-5.16Zm16.46-1.17l-4.84,2.87c.08,.49,.15,.99,.23,1.48,1.88,.31,3.77,.62,6.32,1.03-.71-2.23-1.05-3.3-1.72-5.39Zm-8.18-1.86l-.31,.15,.31,.16v-.31Z"/><path class="cls-1" d="M258.83,114.12c0,2.5-.21,5.01,.07,7.48,.26,2.27,1.05,4.48,1.73,7.21-4.12,2.73,.48,11.59-7.96,13.3v-18.84l-1.45-.36c-.52,1.45-1.38,2.87-1.49,4.34-.41,5.54-.55,11.1-.84,16.64-.26,5.02-3.72,7.04-6.89,5.55-2.55,1.53-4.19,3.09-6.06,3.45-1.61,.3-3.48-.74-5.22-1.26-6.58-1.96-9.27-.67-11.23,4.23-2.92,.94-4.97,1.19-6.55,2.18-6.22,3.91-7.1,3.8-10.83-1.12,.19-3.14,8.43-3.34,2.94-8.46,3.64-3.04,5.81-6.67,5.04-10.6-1.95,.13-3.51,.24-5.27,.36,0,1.38-.07,3.21,.02,5.04,.09,1.82,.34,3.63,.51,5.45-2.27,.57-4.53,1.14-6.91,1.73-1.74-1.64,2.35-8.02-4.63-5.66-.46-2.49-.81-4.79-1.32-7.05-.59-2.61-1.59-4.39-4.99-4.27-1.54,.05-3.32-1.82-4.68-3.15-1.31-1.28-1.89-3.6-3.36-4.39-4.93-2.64-4.55-6.51-3.49-11.28,7.24,2.67,11.62,11.48,21.43,8.57-4.39-2.3-7.72-4.63-5.04-9.77,.36-.69-.28-2.23-.92-2.98-.32-.38-1.96-.19-2.54,.3-3.72,3.16-6.28,1.22-8.91-2.02l2.29-3.28c-1.32-1.89-9.24-.98-10.11,1.21-1.14,2.86-2.48,4.71-6.16,3.98-.99-.2-2.46,2.03-3.92,2.55-2.17,1.21-4.43,2.28-6.48,3.67-5.24,3.58-5.87,3.53-10.26-1.94,3.95-3.14,7.91-6.28,12.12-9.61-5.38-1.37-15.83,2.41-17.02,6.9-.67,2.54-1.12,6.74,2.66,9.02,4.27,2.58,6.01,6.33,3.87,11.94-6.2-4.81-12.79-8.79-15.85-16.17-1.18-2.86-3.43-6.72,2.71-7.66,1.14-.17,1.89-2.93,2.83-4.49l-1.28-1.09-2.77,2.3c-1.53-1.34-3.27-2.87-5.81-5.1,.47,9.34-7.68,10.55-10.13,16.28q-4.99-4.79,5.11-14.43-2.58-.84-12.44,5.13v-7.7c-1.36-.73-3.58-1.93-5.02-2.7-.49,2.99-.28,6.25-1.57,8.73-4.61,8.91-3.58,18.21-2.37,27.59v-12.34l1.6,.15c-.86,5.78-1.86,11.54-2.54,17.34-.49,4.19-.69,8.42-.82,12.63-.4,12.12-.71,24.24-1.01,36.37-.02,.81,.32,1.62,.49,2.42-2.01-1.37-3.88-3.04-6.07-3.91-.94-.37-2.54,.93-3.84,1.47,1.02,.84,1.95,2.23,3.06,2.4,2.23,.35,4.56,.03,6.84-.01l.67-3.11,.85,.14c-.85,4.64-1.71,9.27-2.56,13.91,.34,.11,.67,.22,1.01,.33,.87-2.06,1.75-4.12,2.62-6.18l1.44,.4c-.94,3.07-1.86,6.14-2.84,9.19-.63,1.99-1.88,3.93-1.94,5.92-.26,8.82-.35,17.65-.17,26.46,.1,4.91-1.87,7.01-6.75,6.92-10.27-.19-20.57,.29-30.79-.47-5.84-.44-11.53-2.81-17.31-4.22-1.55-.38-3.45-1.04-4.74-.5-9.29,3.83-17.48,.57-25.71-3.38-2.48-1.19-5.34-1.58-7.94-2.57-1.41-.53-2.64-1.54-3.95-2.33,1.42-.82,2.89-2.43,4.24-2.33,7.63,.59,15.2,1.9,22.84,2.37,7.03,.43,9.12,.53,13.69-4.99,9.52,11.16,22.08,6.31,33.6,7.62l.42-1.79c-6.72-1.89-13.44-3.79-21.3-6,3.67-2.64,3.83-4.88,3.95-8.21,.14-4.2,4.07-8.27,6.36-12.4,1.36-2.46,4.22-5.39,3.65-7.28-.6-1.99-4.32-3.59-6.96-4.27-5.25-1.36-10.7-1.97-15.98-3.99h39.63c-.78-2.16-1.36-3.82-1.99-5.46-1.57-4.16-.38-5.67,4.15-5.46,1.17,.05,2.36-.43,3.55-.67-.4-1.15-.57-2.46-1.25-3.42-1.71-2.43-3.53-4.83-5.55-7-1.18-1.27-2.77-2.84-4.3-2.99-5.01-.48-4.14-3.13-2.85-6.24,.57-1.38,1.42-2.76,1.52-4.18,.13-1.82-.36-3.68-.59-5.52-1.85,.46-3.82,.68-5.53,1.45-2.51,1.13-4.83,2.67-7.51,4.19,1.95-6.06,2.74-11.6,5.46-15.93,1.97-3.13,6.24-5.34,9.95-6.72,6.6-2.46,6.89-2.71,3.99-8.83-.92-1.94-.55-4.49-.25-6.86-4.37-5.41-4.17-5.31-.53-12.22,1.01-1.92,.47-4.66,.64-7.02-.84-.29-1.68-.59-2.51-.88-1.49,2.44-2.86,4.96-4.51,7.28-1.02,1.44-2.47,2.58-3.73,3.86-.35-1.62-1.16-3.3-.97-4.85,.87-7.13,2.11-14.22,3.01-21.35,.19-1.55-.37-3.22-.77-4.8-.32-1.27-1.59-2.73-1.26-3.68,1.65-4.63,1.73-8.14-4.41-8.7,.37-1.27,.54-2.65,1.19-3.76,.27-.45,1.56-.26,2.37-.44,.77-.18,1.52-.46,2.56-.78-.39-1.55-.72-2.88-1.06-4.21l1.35-1.04c1.06,1.32,2.18,2.61,3.17,3.99,.81,1.13,1.48,2.37,2.21,3.56,1.13-.8,2.65-1.37,3.33-2.45,2.88-4.58,7.01-.96,11.23-2.47-.69,4.54,2.65,9.02-2.99,11.83-.41,.2-.65,1.69-.34,2.22,1.63,2.81,3.47,5.5,5.65,8.89,4.32-11.85,1.54-23.66,1.16-35.65,5.84,.8,11.79,1.89,17.78,2.39,16.74,1.4,33.48,3.27,50.24,3.66,32.8,.76,65.62,.81,98.43,.79,8.28,0,16.57-1.35,24.85-2.18,5.46-.55,6.41,.05,6.12,5.35-.49,8.89-1.14,17.78-1.93,26.65-.11,1.23-1.19,3.07-2.23,3.41-3.46,1.14-3.16,3.86-4.06,6.56-2.17,6.49,.92,12.65-.33,19.23-.72-1.46-1.45-2.91-2.26-4.55-2.87,5.18-5.69,10.26-8.65,15.59-3.52-2.08-4.45-3.86-2.25-7.06,1.31-1.9,4.48-3.96,1.23-7.43-1.96,2.32-3.72,4.41-5.45,6.46-3.22-1.28-6.16-2.44-9.76-3.87,.75,3.47,1.47,6.79,2.19,10.11l-.87,.34c-.67-1.51-1.33-3.02-2.01-4.52-.94-.34-1.99-1.13-2.78-.93-1.37,.34-2.59,1.28-3.85,2.02-1.1,.65-3.13,1.54-3.04,2.03,.24,1.42,1.34,2.7,1.99,3.84,3.04-2.77,5.42-4.94,7.8-7.11Zm-43.25,29.05c-1.86-2.05-3.24-1.27-3.94,.92-.57,1.78-.66,3.7-.97,5.54,3.88-.64,4.44-3.71,4.88-6.88l2.28,2.39c1.19-1.24,3.02-2.29,3.43-3.75,.66-2.33,.38-4.93,.52-7.88-1.01,.76-2.27,1.26-2.77,2.17-1.32,2.4-2.32,4.98-3.44,7.49Zm-123.45-47.42c1.23-2.5,2.46-3.86,2.18-4.72-.42-1.26-1.77-2.51-3.02-3.04-.48-.2-2.7,1.84-2.55,2.52,.31,1.46,1.65,2.69,3.4,5.23Zm-12.23,135.88c4.87,3.5,8.36,3.4,10.67,0h-10.67Zm4.64-152.09c-1.65-1.41-2.92-2.94-3.3-2.74-1.37,.71-2.44,2-3.62,3.07,.82,.83,1.76,2.43,2.45,2.33,1.29-.19,2.44-1.37,4.48-2.66Zm-5.11,68c1.36-1.92,2.45-2.92,2.73-4.1,.14-.59-1.58-2.3-1.86-2.17-1.22,.56-2.55,1.42-3.16,2.54-.27,.49,1.09,1.86,2.29,3.73Zm15.28-34.94c-2.01-1.38-3-2.47-4.17-2.71-.63-.13-1.56,1.17-2.35,1.83,.87,1.04,1.57,2.43,2.69,2.98,.56,.28,1.87-.97,3.84-2.09Zm-6.76,18.7l-1.13,2.09c1.29,.89,2.58,1.78,3.86,2.67l2.06-2.99c-1.6-.59-3.2-1.17-4.8-1.76Zm14.17-39.47c2.48-5.79,1.71-8.5-1.88-10.17,.65,3.5,1.27,6.83,1.88,10.17Z"/><path class="cls-1" d="M33.07,76.22c-3.89,1.46-4.56,3.99-1.73,6.81,2.42,2.41,4.93,4.72,8.2,7.84-11.1,1.07-10.93,13.12-18.66,17.48-.71,.4-.64,3.13-.15,4.5,1.2,3.36,3.06,6.49,4.27,9.85,.88,2.47,.76,4.96-2.89,5.64-1.2-2.64-2.13-5.25-3.53-7.59-.88-1.46-2.47-2.49-3.74-3.71-.66,1.69-1.39,3.35-1.95,5.07-.22,.66-.04,1.46-.4,2.19-2.5-3.89-3.02-7.93-.48-11.91,1.97-3.09,2.59-5.61-.93-8.1-.9-.64-1.3-2.44-1.34-3.73-.07-2.29,.04-4.66,.58-6.87,.37-1.53,1.26-3.51,2.5-4.14,3.56-1.83,3.4-3.93,.85-6.12-2.06-1.77-2.34-3.33-1.88-6.02,.48-2.75-.56-5.76-.98-8.98,1.44,.83,3.01,1.74,5.23,3.03,.59-1.82,.92-3.34,1.56-4.72,.98-2.12,2.36-4.07,3.23-6.23,.74-1.84,1-3.87,1.47-5.82-1.54-.23-3.18-.89-4.61-.59-3.49,.74-3.88,.5-4.2-4.01,1.67-1,3.26-1.96,4.85-2.91-1.1-1.43-2.35-2.76-3.24-4.31-.87-1.52-1.29-3.28-2.04-4.88C8.1,27.5,7.8,16.15,6.89,4.92,6.56,.87,7.77-.29,12.33,.06c28.87,2.21,57.76,4.45,86.68,5.66,21.44,.9,42.94,.32,64.42,.25,2.86-.01,4.12,.89,3.88,3.64-.64,7.45-.73,15.04-2.46,22.24-.49,2.04-5.76,3.98-8.94,4.14-11.47,.6-22.98,.25-34.46,.62-6.47,.21-12.92,1.14-19.38,1.71-4.74,.41-7.4,2.6-6.72,7.71,.63,4.74-1.57,6.37-6.06,5.6-2.94-.51-5.91-1.36-8.85-1.3-4.32,.09-8.62,.91-12.94,1.29-1.23,.11-2.99,.28-3.66-.4-6.28-6.4-12.66-4.73-19.17-.57-.12,.08-.32,.05-.48,.07l.42-1.28c-2.45-1.07-4.83-2.36-7.37-3.13-1.87-.56-3.98-.74-5.92-.52-1.86,.22-3.64,1.17-5.46,1.8,1.61,1.1,3.31,2.09,4.79,3.34,.97,.83,2.19,1.99,2.27,3.09,.16,2.12-.31,4.3-.68,6.43-.47,2.71-1.52,4.68-4.94,4.12-3.1-.51-4.72,1.72-3.99,4.12,.44,1.45,3.73,3.45,4.94,3.01,5.43-1.98,5.29,.92,4.78,4.61l.03-.09Zm-8.55,18.87c2.12-3.03,3.71-4.53,4.14-6.32,.17-.71-2.22-2.85-3.46-2.86-1.19-.01-3.26,1.78-3.39,2.96-.16,1.47,1.26,3.12,2.71,6.22Zm-1.92-17.37l-4.18-3.67c-.76,.87-2.31,2.01-2.12,2.57,.54,1.63,1.77,3.02,2.73,4.51,.97-.92,1.93-1.84,3.57-3.41Zm-10.06,18.53l1.21,2.33,2.71,3.31c.73-.95,2.14-2,2.02-2.83-.19-1.37-1.09-3.07-2.22-3.74-.78-.46-2.45,.57-3.72,.93Z"/><path class="cls-1" d="M25.96,173.41l3.23,.23c-1.87,5.81-5.26,7.1-13.1,5.32,1.05-1.45,3.09-3.06,2.88-4.3-.24-1.41-2.6-2.38-3.81-3.75-.91-1.02-1.97-2.32-2.08-3.57-.28-3.42-.1-6.87-.1-10.93l3.76-1.16c-.29-1.17-.24-2.67-.95-3.55-4.25-5.28-1.12-10.89-.77-16.33,.03-.53,2.25-1.46,3.27-1.27,1.69,.33,3.24,1.42,5.22,2.38-1.1,1.33-2.12,2.57-3.15,3.79-2.35,2.79-5.09,5.39,.51,7.96,.88,.4,1.24,4.08,.48,5.54-2.76,5.3-.96,9.81,1.52,14.37,.91,1.67,1.92,3.29,3.08,5.27Z"/><path class="cls-1" d="M262.13,248.52c1.85,.11,3.7,.22,5.55,.32-.44,1.82-.43,3.94-1.41,5.38-1.86,2.72-4.18,5.16-6.56,7.47-.86,.84-2.87,1.69-3.57,1.26-1.29-.8-2.26-2.43-2.89-3.92-.62-1.47-.64-3.19-.94-4.86-4.35,2.86-4.43,2.84-8.44-2.45,2.77-2.58,5.61-5.22,8.43-7.87,.45-.42,1.23-1.08,1.13-1.4-1.12-3.61,2.22-4.08,3.55-3.5,1.94,.85,3.49,3.06,4.65,5.02,.73,1.24,.46,3.08,.64,4.64-2.06,.47-4.12,.94-6.17,1.41,.39,1.28,.78,2.55,1.17,3.83l1.39,.11c1.15-1.82,2.31-3.63,3.46-5.45Z"/><path class="cls-1" d="M200.94,291.81c-4.96,3.12-10.03,6.09-14.84,9.42-4,2.78-7.21,2.84-9.96-1.7,4.7-4.27,9.42-8.55,14.15-12.84,3.55,1.71,7.1,3.41,10.65,5.11Z"/><path class="cls-1" d="M237.58,221.28c-.38,3.25-.68,5.86-1.09,9.42-5.81-3.96-11.16-7.61-16.6-11.32v-7.91c8.68-1.38,10.51,9.16,17.69,9.81Z"/><path class="cls-1" d="M212.36,205.31c-5.31,3.58-10.42,7.55-16.06,10.49-1.72,.9-4.92-1.05-7.44-1.69l-.02-1.89c5.39-3.67,10.59-7.7,16.3-10.76,1.61-.86,4.75,1.11,7.19,1.79l.03,2.07Z"/><path class="cls-1" d="M233.06,252.92c-5.32,4.16-10.58,8.27-16.34,12.77-1.87-1.23-4-2.63-7.08-4.65,2.14-1.75,3.58-3.05,5.15-4.17,2.82-2.02,5.97-3.64,8.53-5.94,3.85-3.47,6.59-2.44,9.74,1.99Z"/><path class="cls-1" d="M171.4,169.03c-2.07-1.64-3.85-3.06-6.23-4.95,5.78-3.91,10.87-7.86,16.48-10.82,1.55-.82,4.65,1.31,7.04,2.09l.1,1.77c-5.76,3.95-11.53,7.9-17.38,11.91Z"/><path class="cls-1" d="M220.77,242.62c.92-2.59,3.09-4.84-.13-7.84-1.21-1.13-.2-4.65-.2-8.81,6.02,4.54,11.32,7.91,15.7,12.2,1.46,1.44,.58,5.27,.86,9.33-4.43-3.12-7.72-5.44-10.92-7.7-1.7,.99-3.13,1.82-4.55,2.65-.24,.1-.5,.15-.76,.16Z"/><path class="cls-1" d="M174.11,209.84c5.86,4.24,10.93,7.25,15.09,11.23,1.93,1.84,2.06,5.56,3.01,8.43l-2.05,1.39c-5.35-4.2-10.94-8.15-15.87-12.8-1.2-1.13-.18-4.6-.18-8.24Z"/><path class="cls-1" d="M163.44,259.5c5.46-3.6,10.53-7.37,16.05-10.3,1.31-.7,4.11,1.39,6.23,2.2-.71,1.28-1.12,2.95-2.18,3.76-3.03,2.3-6.63,3.9-9.45,6.41-4.2,3.73-7.26,2.78-10.63-2.08Z"/><path class="cls-1" d="M235.14,157.53c-5.04,3.69-9.86,7.77-15.27,10.81-1.55,.87-4.78-1.24-7.24-1.98l.16-1.76c5.15-3.78,10.11-7.89,15.6-11.09,1.36-.8,4.43,1.33,6.71,2.11l.04,1.91Z"/><path class="cls-1" d="M177.9,203.77c5.34-3.51,10.48-7.42,16.14-10.3,1.62-.82,4.74,1.31,7.18,2.09l-.09,1.61c-5.35,3.53-10.51,7.43-16.18,10.34-1.6,.82-4.69-1.24-7.1-1.99l.05-1.76Z"/><path class="cls-1" d="M198.95,163.04c4.97,3.53,10.36,6.62,14.71,10.79,1.73,1.66,1.14,5.72,1.84,10.21-6.5-4.5-11.96-7.63-16.5-11.77-1.74-1.59-1.38-5.48-1.98-8.33l1.93-.91Z"/><path class="cls-1" d="M220.77,242.62c.26-.01,.52-.07,.76-.16-.5,1.5-.55,3.53-1.58,4.39-3.28,2.74-6.9,5.08-10.43,7.52-4.73,3.27-5.82,3.02-10.08-2.4,5.35-3.53,10.56-7.23,16.09-10.39,1.17-.67,3.47,.65,5.25,1.05Z"/><path class="cls-1" d="M191.74,151.05c-5.01-3.71-10.38-7.03-14.83-11.31-1.75-1.69-1.45-5.52-2.08-8.37l1.59-.93c5.22,3.9,10.76,7.46,15.46,11.9,1.54,1.45,.88,5.22,1.23,7.92l-1.37,.79Z"/><path class="cls-1" d="M214.84,211.83c0,6.91,.59,13.89-.29,20.68-.35,2.72-3.91,5.03-6.27,7.83,0-8.67-.37-16.36,.25-23.96,.16-1.96,3.45-3.67,5.31-5.5l.99,.95Z"/><path class="cls-1" d="M198.68,179.27c4.93,3.51,10.24,6.61,14.6,10.72,1.73,1.63,1.33,5.52,1.9,8.38l-1.6,.91c-5.09-3.79-10.49-7.24-15.09-11.56-1.53-1.43-.99-5.07-1.4-7.7l1.59-.76Z"/><path class="cls-1" d="M174.6,226.52c5.15,3.79,10.62,7.24,15.26,11.58,1.47,1.37,.73,5.1,.99,7.75l-1.39,.84c-5.07-3.86-10.45-7.4-15.02-11.78-1.49-1.43-.9-5.04-1.26-7.65l1.42-.74Z"/><path class="cls-1" d="M220.01,198c-.1-1.87-.31-3.74-.27-5.61,.09-4.3,.65-8.62,.37-12.89-.3-4.61,1.96-6.59,6.49-7.85,0,7.53,.35,14.74-.24,21.87-.15,1.85-3.26,3.46-5.02,5.18-.44-.23-.88-.46-1.33-.69Z"/><path class="cls-1" d="M179.66,171.08c0,7.37,.38,14.33-.24,21.21-.17,1.92-3.28,3.57-5.04,5.34-.77-.92-2.23-1.86-2.2-2.75,.17-5.22,1.13-10.44,.95-15.63-.16-4.5,1.68-6.75,6.53-8.16Z"/><path class="cls-1" d="M224.36,204.46c5.22-3.92,10.06-7.82,15.26-11.19,.95-.62,3.47,.75,4.94,1.71,.33,.22-.31,3-1.21,3.83-2.94,2.72-6.37,4.9-9.3,7.62-3.97,3.68-6.57,1.74-9.68-1.98Z"/><path class="cls-1" d="M203.64,219.76c-.2,2.51-.46,5.02-.57,7.53-.15,3.66-.5,7.35-.19,10.97,.4,4.68-2.19,6.47-6.09,7.71,0-7.5-.34-14.76,.24-21.95,.15-1.82,3.21-3.4,4.94-5.1l1.68,.83Z"/><path class="cls-1" d="M141.79,305.18c4.84-3.38,9.47-7.13,14.64-9.89,1.45-.78,4.45,1.34,6.74,2.13l.02,1.92c-4.94,3.46-9.69,7.26-14.95,10.13-1.33,.72-4.29-1.57-6.51-2.47l.06-1.81Z"/><path class="cls-1" d="M192.01,163.29c0,6.4-.16,12.18,.05,17.95,.17,4.69-2.03,7.29-6.84,8.84,0-6.32,.28-12.33-.09-18.3-.29-4.64,1.6-7.07,6.88-8.48Z"/><path class="cls-1" d="M169.78,114.74c0,7.21,.34,14.45-.23,21.61-.14,1.82-3.16,3.41-4.86,5.11l-1.37-.75c0-7.06-.37-14.15,.23-21.16,.17-1.99,3.18-3.73,4.88-5.58l1.35,.77Z"/><path class="cls-1" d="M153.4,250.89c4.8-3.21,9.4-6.77,14.48-9.39,1.62-.84,4.54,.83,6.86,1.35-.99,1.44-1.72,3.21-3.03,4.25-2.71,2.16-5.75,3.9-8.63,5.85-5.05,3.41-5.44,3.34-9.69-2.06Z"/><path class="cls-1" d="M250.07,199.52c1.78,1.64,3.09,2.85,5.03,4.64-4.72,4.14-8.99,8.23-13.69,11.74-.99,.74-3.57-.65-5.41-1.05,.44-1.62,.36-3.8,1.41-4.77,3.86-3.6,8.08-6.8,12.66-10.56Z"/><path class="cls-1" d="M152.24,148.18c0-7.05-.33-14.12,.22-21.12,.14-1.84,3-3.46,4.62-5.19l1.03,.96c0,7.19,.27,14.4-.21,21.56-.11,1.58-2.85,2.98-4.39,4.46l-1.28-.67Z"/><path class="cls-1" d="M177.28,148.98c-5.03,3.36-9.89,7.05-15.21,9.86-1.41,.75-4.25-1.21-6.44-1.93l-.02-1.75c4.96-3.43,9.73-7.24,15.02-10.06,1.45-.77,4.47,1.38,6.76,2.19l-.11,1.7Z"/><path class="cls-1" d="M167.95,183.14c-5.97-4.93-10.96-8.46-15.12-12.79-1.55-1.62-1.14-5.11-1.62-7.74l1.44-.95c4.89,3.98,10.12,7.63,14.48,12.13,1.42,1.46,.55,5.14,.82,9.36Z"/><path class="cls-1" d="M167.73,211.12c0,7.07,.32,14.17-.22,21.2-.13,1.75-3.06,3.28-4.7,4.91-.43-.21-.86-.41-1.29-.62,0-7.03-.35-14.08,.23-21.06,.15-1.86,3.14-3.49,4.83-5.23,.38,.26,.77,.53,1.15,.79Z"/><path class="cls-1" d="M231.32,189.57c0-6.63-.4-13.31,.21-19.88,.22-2.39,2.87-4.56,4.42-6.83l1.52,.64c0,7.35,.3,14.71-.22,22.02-.13,1.77-2.99,3.34-4.6,5.01l-1.33-.96Z"/><path class="cls-1" d="M152.65,177.99c4.71,3.83,9.76,7.32,13.96,11.65,1.56,1.61,1.13,5.16,1.61,7.82l-1.3,1.06c-4.94-4.08-10.17-7.88-14.64-12.42-1.42-1.45-.8-4.9-1.11-7.44l1.48-.67Z"/><path class="cls-1" d="M144.32,210.05c5.12-3.58,10.23-7.17,15.57-10.91,1.85,1.49,3.47,2.79,5.66,4.55-5.25,3.77-9.81,7.55-14.9,10.36-1.44,.79-4.45-1.26-6.75-2.01,.14-.67,.28-1.33,.42-2Z"/><path class="cls-1" d="M150.53,245.22c0-8.27-.35-15.18,.22-22,.16-1.95,3.03-3.66,4.65-5.48,.36,.23,.73,.45,1.09,.68,0,7.33,.27,14.68-.23,21.97-.1,1.47-3.14,2.73-5.74,4.84Z"/><path class="cls-1" d="M243,162.99c10.08,6.01,16.58,11.32,13.08,18.59-10.84-4.92-16.11-11.45-13.08-18.59Z"/><path class="cls-1" d="M246.96,219.54c0,6.02-.26,12.05,.09,18.05,.23,3.92-1.4,6.27-4.57,7.97-.26,.14-.62,.08-1.09,.13,0-6.74-.34-13.49,.18-20.16,.18-2.34,2.47-4.52,3.8-6.77l1.59,.79Z"/><path class="cls-1" d="M131.61,297.34c5.58-4.1,9.47-7.54,13.93-9.93,1.67-.89,4.65,.66,7.03,1.1l.31,2.28c-4.82,3.34-9.5,6.93-14.59,9.8-1.01,.57-3.6-1.68-6.68-3.25Z"/><path class="cls-1" d="M145.92,160.81c0,8.6,.24,15.54-.17,22.43-.1,1.65-2.34,3.17-3.59,4.76l-1.05-.67c0-7.03-.24-14.08,.18-21.09,.09-1.56,2.47-2.99,4.64-5.42Z"/><path class="cls-1" d="M243.02,179.53c9.38,3.65,14.74,11.04,13.03,17.97-9.29-3-15.05-10.95-13.03-17.97Z"/><path class="cls-1" d="M130.83,303.1c4.25,4,8.3,7.24,11.57,11.14,1.62,1.93,1.86,5.05,2.47,7.69,.05,.2-2.06,1.48-2.79,1.21-6.27-2.29-12.37-12.84-11.25-20.04Z"/><path class="cls-1" d="M132.24,224.65c4.14,3.75,8.42,6.97,11.75,10.96,1.5,1.79,1.22,5.15,1.45,7.82,.03,.32-2.29,1.42-2.67,1.12-1.98-1.59-4.2-3.25-5.36-5.4-2.38-4.4-8.84-7.34-5.17-14.5Z"/><path class="cls-1" d="M145.74,148.98c-4.28-6.26-14.81-8.46-11.94-20.27,4.6,4.29,9.1,7.86,12.72,12.17,1.41,1.68,.84,5.03,1.17,7.62l-1.95,.48Z"/><path class="cls-1" d="M133.52,202.72c5.93-4.33,10.14-7.87,14.84-10.53,1.26-.71,4.03,1.22,7.59,2.46-5.97,4.32-10.33,7.89-15.15,10.65-1.18,.68-3.87-1.29-7.28-2.58Z"/><path class="cls-1" d="M132.73,208.58c4.11,3.82,8.26,6.95,11.41,10.89,1.63,2.03,1.49,5.47,2.35,9.13-11.21-5.75-16.04-12.93-13.75-20.02Z"/><path class="cls-1" d="M245.64,158.08c4.17-4.55,7.1-7.94,10.24-11.12,2.91-2.96,5.67-3.39,7.93,2.25-3.57,3.29-7.22,7.19-11.48,10.24-1.2,.86-4.18-.79-6.69-1.36Z"/><path class="cls-1" d="M251.15,236.9c1.98-8.58-3.28-18.31,4.21-26.64,3.68,8.46,1.44,23.6-4.21,26.64Z"/><path class="cls-1" d="M129.97,166.36c-1.47-1.66-2.62-2.96-4.14-4.67,4.51-3.96,8.68-7.62,13.08-11.49l5.22,4.66c-4.65,3.77-9.11,7.39-14.16,11.49Z"/><path class="cls-1" d="M123.64,257.01c4.79-3.95,8.97-7.41,13.49-11.14,1.67,1.5,3.09,2.78,5.21,4.69-4.98,3.88-9.57,7.46-14.43,11.25-1.42-1.6-2.59-2.92-4.26-4.81Z"/><path class="cls-1" d="M270.63,155.7c-.66,.98-1.12,1.86-1.75,2.58-2.41,2.75-4.93,5.4-7.3,8.17-1.59,1.87-3,2.24-4.98,.42-2.09-1.92-1.32-3.41,.23-5.01,2.65-2.74,5.23-5.56,8.01-8.16,.79-.74,2.42-1.38,3.25-1.05,1.05,.43,1.66,1.9,2.55,3.03Z"/><path class="cls-1" d="M122.2,233.77c1.69-8.65-2.15-17.59,3.94-26.04,3.3,8.51,1.15,23.57-3.94,26.04Z"/><path class="cls-1" d="M131.42,195.02c0-7.17-.24-13.81,.16-20.42,.11-1.83,2.13-3.54,3.71-5.99,2.83,9.51,.7,23.99-3.87,26.41Z"/><path class="cls-1" d="M121.67,276.87c1.48-8.29-9.86-12.39-6.53-21.3,9.66,6.68,11.88,13.12,6.53,21.3Z"/><path class="cls-1" d="M264.49,170.37c1.74,15.82,.85,22.85-3.21,26.44-3.15-5.84-1.32-22.57,3.21-26.44Z"/><path class="cls-1" d="M134.15,240.99c-5.42,4.56-9.41,7.91-13.72,11.54-1.16-1.33-2.18-2.49-3.7-4.22,3.54-3.27,6.64-6.68,10.34-9.23,1.06-.74,3.81,.96,7.08,1.92Z"/><path class="cls-1" d="M263.09,115.35c8,4.17,11.9,11.68,9.09,17.5-9.46-7.13-11.19-10.46-9.09-17.5Z"/><path class="cls-1" d="M271.5,228.23c-9.35-6.25-12.27-11.5-9.96-18.37,5.24,5.18,11.69,9.2,9.96,18.37Z"/><path class="cls-1" d="M261.21,225.29c4.86,5.99,12.11,9.44,9.81,18.39-8.05-4.37-11.54-10.39-9.81-18.39Z"/><path class="cls-1" d="M130.93,141.62l3.97,4.88c-4.08,3.56-8,6.98-12.05,10.52-3.58-2.36-4.46-4.41-.81-7.26,2.85-2.22,5.36-4.87,8.89-8.13Z"/><path class="cls-1" d="M126.3,195.59c-4.12-6.41-11.68-10.12-9.58-19.16,7.71,5.02,11.49,12.05,9.58,19.16Z"/><path class="cls-1" d="M37.36,50.3c3.06,2.61,5.11,4.15,6.86,5.95,.74,.76,.98,2.08,1.26,3.19,.41,1.62,.66,3.28,.98,4.93-1.56,.14-3.43,.89-4.6,.28-1.46-.76-2.64-2.49-3.42-4.06-.9-1.81-1.36-3.88-1.74-5.89-.18-.94,.26-2,.65-4.4Z"/><path class="cls-1" d="M120.98,328.95c-1.62-9.8,.43-23.2,4.59-25.93,0,7.27,.31,14.13-.22,20.93-.13,1.73-2.94,3.24-4.51,4.87,.01,.01,.13,.13,.13,.13Z"/><path class="cls-1" d="M129.35,112.68c-2.07,9.15,2.46,18-3.62,26.75-3.06-10.08-1.56-23.42,3.62-26.75Z"/><path class="cls-1" d="M126.73,178.76c-4.27-5.58-11.78-9.36-9.92-18.35,6.06,2.86,11.14,11.68,9.92,18.35Z"/><path class="cls-1" d="M262.71,131.16c8.73,5.84,11.23,10.56,9.34,18.67-4.11-6.13-12.24-9.13-9.34-18.67Z"/><path class="cls-1" d="M114.02,270.62c4.07,4.8,7.94,9.02,11.33,13.6,.84,1.13,.13,3.41,.13,5.47-7.33-4.08-13.49-13.96-11.45-19.07Z"/><path class="cls-1" d="M267.73,188.78c1.69-9.43-1.81-18.13,3.09-26.76,3.34,6.37,1.78,22.65-3.09,26.76Z"/><path class="cls-1" d="M117.54,145.32c.81-8.16-2.82-16.79,2.52-25.78,2.46,9.27,1.27,22.6-2.52,25.78Z"/><path class="cls-1" d="M273.69,190.97c3.64,4.13,1.71,8.39-6.61,16.01-3.16-1.67-4.48-3.45-1.34-6.67,2.75-2.82,5.14-6.01,7.95-9.35Z"/><path class="cls-1" d="M121.93,197.03c1.19,1.41,2.22,2.63,3.42,4.06-3.78,3.51-7.37,6.84-10.95,10.17-3.91-4.07-2.71-6.53,7.53-14.23Z"/><path class="cls-1" d="M113.81,307.04c-5.65-4.34-4.71-5.69,6.1-15.25,4.09,2.31,4.22,4.65,.56,7.76-2.48,2.11-4.39,4.89-6.66,7.49Z"/><path class="cls-1" d="M116.2,240.07c.24-8.03-2.95-16.46,2.27-23.81,.39,8.09,2.13,16.32-2.27,23.81Z"/><path class="cls-1" d="M269.29,307.33l.13,.35c.07-1.33-.35-2.97,.28-3.93,2.52-3.83,5.36-7.44,8.17-11.26,2.9,1.53,3.45,3.35,1.71,5.98-1.81,2.74-3.46,5.59-5.14,8.41-1.53,2.56-3.26,2.33-5.15,.44Z"/><path class="cls-1" d="M107.41,297.31c-3.12-4.62-.96-9.06,6.33-14.22,.95,1.26,1.92,2.54,3.09,4.09-3.1,3.34-6.1,6.57-9.41,10.13Z"/><path class="cls-1" d="M279.43,122.1c-1.51,9.65,1.15,18.35-2.7,26.98-2.99-3.77-1.47-22.87,2.7-26.98Z"/><path class="cls-1" d="M274.16,242.53c-1.36-7.3,.12-21.84,2.44-24.08,2.2,6.47,.66,21.64-2.44,24.08Z"/><path class="cls-1" d="M273.15,214.49c-3.8-3.64-2.28-7.51,5.8-15.43,2.69,3.28,.66,8.85-5.8,15.43Z"/><path class="cls-1" d="M282.08,179.48c-7.61-9.04-8.29-10.85-6.62-18.74,3.54,6.16,8.59,10.64,6.62,18.74Z"/><path class="cls-1" d="M111.92,255.5l-2.23,22.96c-3.55-3.95-2.04-19.79,2.23-22.96Z"/><path class="cls-1" d="M108.84,202.18c-3.26-3.91-2.05-6.57,6.06-13.33,4.11,3.69,2.81,6.55-6.06,13.33Z"/><path class="cls-1" d="M109.43,184.65c.48-8.9,.9-16.76,1.33-24.62l1.41,.08c2.26,4.86,1.09,20.97-2.73,24.54Z"/><path class="cls-1" d="M281.19,195.19c-2.88-5.52-8.61-9.39-6.27-16.54,5.31,2.79,8.24,10.07,6.27,16.54Z"/><path class="cls-1" d="M282.67,115.56c.65,7.93,1.94,15.91-1.32,23.51-.6-7.92-1.88-15.88,1.32-23.51Z"/><path class="cls-1" d="M103.77,300.46c2.39,5.98,9.18,10.39,6.29,18.97-3.88-6.16-8.32-11.36-6.29-18.97Z"/><path class="cls-1" d="M111.99,225.54c-3.44-6.57-8.6-11.26-6.4-18.75,2.63,5.65,8.77,9.87,6.4,18.75Z"/><path class="cls-1" d="M110.19,240.26c-2.27-5.65-4.55-11.3-6.82-16.95l2.27-.91c2.2,5.71,8.33,9.84,6.31,17.23-.59,.21-1.17,.42-1.76,.63Z"/><path class="cls-1" d="M104.94,190.42c-1.25-10.76-.54-19.92,1.48-22.46v22.43l-1.48,.03Z"/><path class="cls-1" d="M113.16,146.19c-3.72-6.29-8.57-10.56-6.68-17.61,6.03,5.58,7.59,9.3,6.68,17.61Z"/><path class="cls-1" d="M103.29,284.59c-2.21-13.52-1.96-17.13,1.35-21.72v21.93l-1.35-.2Z"/><path class="cls-1" d="M106.93,111.83c7.68,10.62,7.75,10.79,6.09,17.67-3.58-5.62-8.19-10.1-6.09-17.67Z"/><path class="cls-1" d="M286.49,240.73c-1.77,2.46-3.6,4.88-5.28,7.4-1.09,1.64-1.94,3.43-2.92,5.19q-3.2-2.81,3.85-15.25c1.45,.89,2.89,1.78,4.32,2.66h.02Z"/><path class="cls-1" d="M103.59,162.5c-1.83-6.5,2.63-9.69,4.42-13.94,5.46,3.06,3.98,3.27-4.42,13.94Z"/><path class="cls-1" d="M102.26,256.71c-2.68-6.21,2.88-9.01,4.37-13.24,5.29,2.57,3.85,4.1-4.37,13.24Z"/><path class="cls-1" d="M279.08,233.08c1.06-7.77-1.32-15.85,1.73-23.45l1.78,.14c-.45,7.95-.9,15.91-1.35,23.86-.72-.18-1.44-.37-2.16-.55Z"/><path class="cls-1" d="M279.57,158.39c-4-3.64-2.92-2.5,4.18-14.82,2.29,3.91,1.41,7.13-4.18,14.82Z"/><path class="cls-1" d="M286.47,240.73c.89,7.15-.75,13.72-4.84,19.75-1.85-7.37,3.21-13.17,4.86-19.75h-.02Z"/><path class="cls-1" d="M284.88,167.25c-5.76-5.91,.26-10.14,.79-15.19,.57,.09,1.13,.18,1.7,.28-.83,4.97-1.66,9.94-2.49,14.91Z"/><path class="cls-1" d="M103.95,111.81v21.03l-.83-.03v-20.89l.83-.11Z"/><path class="cls-1" d="M284.97,171.02v22.63h-.87v-22.49l.87-.14Z"/><path class="cls-1" d="M5.34,183.32c4.9,4.03,5.38,5.5,2.06,9.38-1.29-3.27-2.39-6.05-3.49-8.82l1.42-.56Z"/><path class="cls-1" d="M98.36,246.04c1.3-3.61,2.61-7.22,4.09-11.34q2.68,3.66-2.46,11.92c-.54-.19-1.09-.39-1.63-.58Z"/><path class="cls-1" d="M285.63,209.63c.8,4.3,1.6,8.6,2.4,12.9l-1.7,.36c-.99-4.27-1.97-8.54-2.96-12.82,.76-.15,1.51-.3,2.27-.45Z"/><path class="cls-1" d="M285.23,225.07c.94,4.52,1.88,9.04,2.82,13.56l-2.04,.42c-.97-4.52-1.94-9.03-2.91-13.55l2.13-.43Z"/><path class="cls-1" d="M172.34,299.13c-.6,1.75-.73,4.24-1.95,5.03-1.03,.66-3.33-.65-5.07-1.09l-.07-1.58c2.07-1.1,4.15-2.2,6.22-3.3l.88,.95Z"/><path class="cls-1" d="M100.56,151.27c1.02-3.45,2.04-6.9,3.15-10.65q2.96,2.67-1.83,11.1l-1.32-.45Z"/><path class="cls-1" d="M102.08,207.53v20.43l-.76-.04v-20.27l.76-.13Z"/><path class="cls-1" d="M262.13,248.52c-1.15,1.82-2.31,3.63-3.46,5.45l-1.39-.11c-.39-1.28-.78-2.55-1.17-3.83,2.06-.47,4.11-.94,6.17-1.41l-.15-.1Z"/><path class="cls-1" d="M285.2,317.86c-.81-4.89-1.62-9.79-2.43-14.68l1.73-.3c.86,4.84,1.72,9.68,2.58,14.52-.63,.15-1.25,.31-1.88,.46Z"/><path class="cls-1" d="M33.04,76.32c1.58-2.43,3.15-4.86,5.32-8.19,.53,7.2-.84,8.91-5.27,8.08-.01,.02-.05,.12-.05,.12Z"/><path class="cls-1" d="M76.67,170.4c.21,2.1,.42,4.19,.64,6.29l-3.23-.09c.19-2.05,.37-4.11,.56-6.16l2.04-.03Z"/><path class="cls-1" d="M286.36,126.9c-.75-3.77-1.5-7.54-2.24-11.31l2.06-.34c.57,3.8,1.13,7.6,1.69,11.39l-1.51,.26Z"/><path class="cls-1" d="M100.08,301.86v19.36l-.8-.06v-19.55l.8,.24Z"/><path class="cls-1" d="M286.36,142.69c-.77-3.73-1.54-7.46-2.3-11.19l2.02-.39,1.81,11.27-1.52,.31Z"/><path class="cls-1" d="M26.13,186.39c2.68,.52,5.36,1.04,8.04,1.56l-.22,1.59-8.15-.92,.33-2.23Z"/><polygon class="cls-1" points="264.63 321.84 264.63 322.15 264.33 321.99 264.63 321.84"/><path class="cls-1" d="M264.57,344.18h-16.83v-.42c5.59-.3,11.19-.59,16.79-.89l.04,1.31Z"/><path class="cls-1" d="M24.53,95.09c-1.46-3.1-2.88-4.75-2.71-6.22,.13-1.17,2.2-2.97,3.39-2.96,1.24,.02,3.63,2.15,3.46,2.86-.43,1.78-2.02,3.28-4.14,6.32Z"/><path class="cls-1" d="M22.61,77.71c-1.64,1.56-2.6,2.49-3.57,3.41-.96-1.49-2.2-2.88-2.73-4.51-.19-.56,1.37-1.7,2.12-2.57l4.18,3.67Z"/><path class="cls-1" d="M12.54,96.25c1.27-.36,2.94-1.39,3.72-.93,1.13,.67,2.04,2.37,2.22,3.74,.11,.84-1.3,1.88-2.02,2.83l-2.71-3.31-1.21-2.33Z"/></g></g></svg>