<?xml version="1.0" encoding="UTF-8"?><svg id="_이어_2" xmlns="http://www.w3.org/2000/svg" viewBox="0 0 219.86 201.53"><defs><style>.cls-1{fill:#d83e18;}</style></defs><g id="_이어_1-2"><g><path class="cls-1" d="M5.98,.02l-.02-.02h10.31c-1.34,.07-2.68,.14-4.01,.22-1.4,.09-2.84,.05-4.18,.39-.47,.12-.99,.63-1.59,.6-.34-.02-.67-.3-1.01-.47L5.98,.02Z"/><path class="cls-1" d="M136.61,75.52c.72,1.21,1.73,1.95,3.13,2.26,1.22,.27,2.4,.73,3.6,1.1l-.03-.04c-.58,.73-1.43,.8-2.07,.23-.33-.29-.75-.66-1.14-.68-1.28-.05-2.22-.7-3.16-1.45-.28-.23-.84-.5-1.01-.38-.28,.19-.34,.69-.54,1.16l1.16,.17,.34,.99c.39-.21,.83-.65,1.11-.57,1.62,.49,3.18,1.13,4.19,2.97l-1.49-.96-.33,.34,1.34,1.68c-.55,.75-1.08,1.46-1.58,2.14l-2.78-1.47,.58-2.93-.43-.1-.79,2.91c-.58-.14-1.08-.25-1.56-.39-1.38-.4-2.74-.87-4.12-1.22-.71-.18-1.45-.14-1.3,1.06,.3-.07,.49-.18,.65-.15,1.52,.34,2.78,1.42,4.62,1.01,.88-.19,2.06,.93,2.8,1.32,0,.73,0,1.13,0,1.54,.58,1.35,.87,1.4,1.97,.45h1.28v-.42h-3.29c1.67-1.42,2.88-1.4,4.14-.16,.18,.18,.36,.66,.26,.77-.42,.49-.9,.95-1.43,1.32-1.14,.8-1.47,2.16-.81,3.42l1.33-1.7c.9,1.25,1.63,2.3,2.4,3.31,.31,.4,.92,.67,1.05,1.1,.3,1.01,.39,2.08,.56,3.1l-.92,.25,.39,3.57,1.08,.48c-.55,.37-.92,.58-1.25,.85-.22,.18-.47,.42-.51,.67-.03,.18,.23,.45,.43,.6,.2,.16,.48,.24,.73,.36,.07-.39,0-.95,.24-1.12,1.01-.77,.52-1.63,.27-2.48-.14-.49-.45-.93-.59-1.42-.22-.82-.11-1.42,.95-.91,.07-1.6,.25-3.11,.17-4.6-.08-1.46-.44-2.9-.68-4.34l.39-.06,.16,.58,.16-1.77c.27,.78,.25,1.56,.28,2.34,.04,.82,.13,1.63,.2,2.44h.19l.5-1.87,.4-.03,.24,2.4,2.56,1.24c-.52,.69-.89,1.33-1.41,1.82-.91,.86-.92,1.23-.17,2.18,.93,1.18,1.85,2.4,2.54,3.73,.46,.88,.95,.82,1.61,.55,.35-.14,.66-.41,.88-.55l-.43-2.03,.24-.04,.34,.72c.18-.56,.12-1.08,.2-1.57,.05-.28,.43-.78,.48-.76,.84,.36,1.65,.79,2.46,1.2l-.12,.35,.88-.19c.1-.59,.02-1.15,.26-1.42,.93-1.06,1.97-2.03,1.41-3.75l.38,.04,.55,1.3c1.01-.81,.88-1.15-1.3-3.26,.43-.08,.76-.24,1.07-.2,1.08,.15,1.22-.4,1.26-1.32,.06-1.57-.99-2.47-1.81-3.55-.16,.07-.26,.15-.37,.16-.39,.05-.79,.09-1.19,.13,.17-.39,.28-.82,.53-1.15,.35-.46,.8-.85,1.2-1.27l-.02,.03c1.31,.83,2.45,.35,2.91-1.21,.09-.31,.33-.58,.49-.87,.65-1.2-.65-2.16-.4-3.46,.77,0,1.55-.04,2.33,.02,.2,.02,.4,.31,.55,.51,.29,.38,.64,1.15,.81,1.11,.54-.13,1.01-.56,1.7-.99,.94,.32,2.11,.63,2.24,2.3,.07,.91,.97,1.03,1.69,.69,.82-.39,1.4-.05,1.93,.45,.55,.52,1.04,1.05,.59,1.97-.37,.76-.29,1.48,.84,1.63,1.23,.16,1.97,1.92,1.33,3.07-.92,1.65-.5,2.24,1.5,2.32,.51,.02,1.01,.43,1.5,.68,.67,.34,1.32,.75,2.01,1.04,1.22,.51,2.52,.85,3.7,1.44,.97,.49,1.82,1.23,2.72,1.87,.19,.14,.38,.38,.58,.4,2,.14,3.39,1.47,4.9,2.51,3.6,2.49,7.17,5.04,10.73,7.59,.84,.6,1.51,1.65,2.42,1.89,1.59,.42,2.14,1.74,3.07,2.73,1.95,2.09,3.85,4.23,5.93,6.54-.86-.13-1.39-.14-1.85-.32-.22-.09-.35-.49-.45-.78-.1-.28,0-.68-.16-.89-2.13-2.87-4.93-4.95-8.07-6.61-.1-.05-.23-.05-.34-.04-.07,0-.13,.08-.31,.22l1.58,1.82c-.79,.99-2.58-.07-2.88,1.83,.73,0,1.48,.17,2.13-.03,2.46-.75,3.82,.7,5.08,2.39,.32,.43,.54,.93,.82,1.43-.13,.01-.27,.07-.35,.03-1.32-.7-2.37-.28-3.44,.63-1.18,1-3.29,.53-4.19-.73-1.19-1.66-2.44-3.27-3.9-4.77,.7,1.54,2.11,2.8,1.16,4.82l.38-.02,1.11-.81,.84,1.01c-.96,.36-1.99,.53-1.82,1.87,.03,.22-.64,.53-.94,.77l-.99-2.51-.37,.13,.66,1.89c-2.17-.63-4.07-1.34-6.03-1.71-1.96-.37-3.98-.41-5.9-.59,.08,.56,.28,1.42,.3,2.28,.01,.43-.3,.87-.47,1.31l-.78-1.11h-2.56c.67,2,.08,2.68-1.83,2.3-.72-.14-1.83,.43-2.01-.84-.69,.14-1.32,.26-2.15,.43-.57,.91-1.28,2.02-1.98,3.13l-.3-.18,1.56-2.73-.13-.37c-.93,.12-1.86,.26-2.79,.35-.4,.04-.8-.02-1.2-.04,.11-.55,.15-1.13,.36-1.64,.15-.37,.69-.6,.78-.96,.31-1.36-.15-1.78-1.59-1.58-2.41,.33-2.48,.42-2.48,2.86,0,.66-.06,1.32-.34,1.97v-4.13l-2.93,.53-.07-.25-1.3,1.55c.19-.92,.57-1.86,.54-2.79-.03-.89-.48-1.77-.78-2.74-.11,.33-.21,.55-.25,.78-.12,.65-.25,1.34-1.1,1.3-.87-.05-1.89,.23-2.38-.92-.17-.39-.43-.77-.74-1.06-.54-.49-1.23-.83-1.1-1.77,.03-.2-.25-.57-.46-.65-1.17-.44-1.28-1.38-1.33-2.42-.02-.47-.19-.94-.35-1.38-.23-.63-.55-1-1.39-.98-.48,.01-1.85,.62-1.52-.98-1.57,1.03-1.61,1.31-.44,2.59l-1.12,.57-.37-1.94c-1.35,.19-2.61,.6-3.81,.48-1.18-.13-2.3-.8-3.52-1.25l.49-1.08c-1.06,.08-2.03,.4-2.84,.17-1.48-.42-1.82,.71-2.65,1.46l1.23,.62c-.31,.64-.57,1.2-.85,1.75-.28,.55-.59,1.09-.95,1.75l-.79-.85c-.69,.53-1.39,1.07-2.09,1.61-.64,.5-1.03,1.07-.79,1.96,.06,.23-.18,.64-.4,.81-.44,.33-.97,.54-1.44,.83-.37,.23-1.03,.5-1.03,.75,.03,1.47-1.42,1.45-2.06,2.21-.11,.13-.35,.24-.53,.23-1.45-.09-1.85,.62-1.56,1.93,.04,.16-.09,.36-.17,.67l-.74-.56c-.39,.58-.79,1.16-1.37,2.01-.61-1.48-1.03-2.65-1.57-3.76-.17-.34-.69-.5-1.05-.75-.19,.35-.55,.72-.52,1.05,.1,1.05,.35,2.08,.58,3.37l-2.06-.52c1.02-1.34,.72-2.55-.58-3.3,.53-1.22,1.06-2.44,1.67-3.86,.42-.07,1.28,1.03,1.92-.24l-.78-.84,1.41-1.05-1.57-1.05c-.35,.54-.55,.98-.87,1.31-.43,.44-.96,.79-1.44,1.2-.68,.59-1.34,1.22-2.02,1.8-.51,.43-.97,.66-1.46-.12-.21-.33-.76-.43-1.41-.76-.2,1.6-.38,2.98-.54,4.35-.02,.16-.03,.33,.02,.47,.23,.57,.82,1.27,.65,1.66-.35,.82-1.09,1.48-1.68,2.2l-.35-.07c-.14-1.15-.27-2.31-.44-3.46-.1-.66-.34-1.3-.37-1.96-.04-1.1,0-2.21,.12-3.31,.02-.18,.55-.42,.85-.43,.63-.02,1.26,.09,1.8,.14,.24-.92,.42-1.8,.71-2.64,.46-1.4,.24-2.04-1.06-2.7-1.26-.64-2.52-1.3-3.79-1.92-1.11-.54-1.61-.31-2.04,.87-.1,.29-.19,.59-.38,1.19-.26-.55-.6-.97-.51-1.11,.98-1.52-.29-2.66-.68-3.91-.07-.22-.96-.18-1.61-.28l.8,5.3-.33,.16-.7-1.17c-1.09,1.93-.96,2.21,1.51,2.86l-.99,.78,2.1,.82,.2-.81c1.45,.66,1.91,1.8,2.07,3.26,.3,2.81,.75,5.6,1.14,8.41,.01,.08,0,.2,.04,.23,1.09,.82,.26,1.99,.68,3.04-.77-.3-1.41-.55-2.06-.8-.11-.04-.27-.16-.32-.13-1.45,.97-1.71-.49-2.31-1.16-.69-.77-1.25-.78-1.74,.11-1.4-2.67-2.19-5.49-2.7-8.4-.23-1.29-.27-2.62-.52-3.91-.14-.7-.53-1.35-.81-2.03-.68-1.65-.66-3.34-.23-5.04,.03-.11,.14-.28,.2-.28,1.39,.18,1.76-1.29,2.78-1.74,.34-.15,.73-.89,.63-1.2-.37-1.16,.24-1.6,1.07-1.87l-1.19-5.84-.02,.07,.5-1.95c1.01-.04,1.74,2.01,2.81,.6,1.02,.57,1.89,1.31,2.88,1.54,2.12,.49,2.18,.43,1.76,2.53-.03,.13,.02,.27,.04,.47,.97-.4,1.87-.72,2.72-1.14,.21-.1,.39-.51,.38-.77-.01-.26-.23-.66-.45-.73-.89-.27-1.82-.58-2.74-.59-1.24-.02-2.28-.07-2.25-1.7l-1.35,.08c-.11-.92,.03-1.92-.37-2.58-.42-.69-1.37-1.05-2.24-1.67l2.25-1.6-2.09,.33,.32-1.74-.03,.03,1.57-1.78s.21,.13,.44,.28c1.35-1,1.37-1.2,.19-2.27,.1-.11,.25-.2,.3-.33,.25-.59,.8-1.35,.61-1.74-.27-.55-1.08-.86-1.69-1.21-.35-.2-.77-.27-1.16-.4l.11-.34c1.97,.09,3.94,.18,5.91,.27l.07,.3c-1.53,.63-2.52,1.75-3.16,3.26q.57,0,2.27-2.55l.95,1.1c.37-.9,.56-1.73,1.01-2.37,.62-.87,1.46-1.27,2.68-1.31,1.37-.04,2.71-.68,4.07-1.07,.42-.12,.84-.37,1.24-.35,1.14,.05,1.55-1.05,2.51-1.48l-.2,.85c1.08,.24,2.02,.76,3.1-.27,.58-.55,1.67-.55,2.68-.85-.51,1.61,.45,1.69,1.39,1.93,.21-1.12,.16-1.85-1.09-2.37-1.55-.65-2.98-1.57-4.76-.97-.36,.12-.68,.35-1.01,.53l.03,.03c.04-.94,.56-1.13,1.45-1.29,2.75-.5,4.94,1.08,7.37,1.74l-.03-.03Zm34.76,15.33c.5,1.01,1.01,2.02,1.65,3.3,.13-.4,.38-.79,.29-.92-.61-.82-1.3-1.58-1.96-2.36l-.99-3.48-.45-.05-1.17,1.71,2.09,1.12-.11,.22-1.09-.25-.03,.14c.59,.19,1.19,.38,1.78,.57Zm-47.3,10.57c2.49,.97,5.8-.45,5.8-3.28-1.31-1.49-2.55-2.88-3.97-4.49-1.06,.88-2.42,1.54-2.99,2.61-.55,1.05-.3,2.52-.4,3.8l.6-.6c.3,.63,.61,1.25,.91,1.88-.54-.06-1.07-.2-1.61-.17-.33,.02-.64,.28-1,.45,.51,.58,1.05,.92,1.13,1.35,.07,.39-.36,.87-.58,1.34,1.55-.03,2.37-1.19,2.12-2.91Zm11.6-6.96c1.08-.64,2.54-.9,2.74-2.51l-2.68-.63v-.39c.44-.07,.86-.14,1.29-.21,.32-.05,.63-.12,.95-.17-.17-.31-.26-.75-.52-.92-.71-.48-1.74-.68-2.19-1.31-.65-.91-1.05-.43-1.33,.04-.84,1.39-1.58,2.83-2.3,4.28-.09,.19,.06,.54,.17,.78,.49,1.04,.69,2.17,1.73,2.99,.47,.37,.36,1.53,.46,2.33,.07,.57-.01,1.15,.84,1.13,1.33-.03,2.67,.03,3.99-.05,.32-.02,.8-.34,.9-.63,.5-1.37,.2-2.07-1.04-2.8-.19-.11-.36-.23-.54-.35l.16-.38,2.09,.88-.28-1.69c-.64,.09-1.29,.02-1.77,.28-1.29,.68-2.53,1.15-3.87,.21l1.23-.9-.03,.03Zm-13.31,16.93c-.17-.08-.48-.17-.47-.22,.16-1.25,.26-2.53,.61-3.73,.07-.26,1.2-.55,1.55-.34,.69,.43,1.17,1.19,1.61,1.67h2.86c.12,.54,.26,1.28,.48,2,.19,.64,.44,1.28,.75,1.87,.08,.14,.49,.11,.75,.16-.66-.88,.54-.7,.66-1.14,.06-.21,.18-.4,.27-.6l-.18-.12-1.47,.96c-.24-.57-.51-.96-.55-1.37-.13-1.21-.13-2.44-.27-3.65-.04-.33-.39-.87-.62-.88-.93-.05-1.87,.07-2.91,.14,.02-.05,.04-.36,.2-.53,.74-.73,1.56-1.05,2.58-.45,1.03,.6,1.99,.38,2.65-.52l-2.2-1.13c1.07-.62,2.23-.93,2.74-1.68,.53-.78,.45-1.98,.64-3.02,1.08,.63,.97,.64,1.04,1.63,.09,1.44-.95,2.31-1.47,3.39l.88,1.06,.25-1.13c1.34,.94,2.57,1.81,3.79,2.67l.27-.42-4.42-2.91,1.86-.79-.27-.64c1.67,.57,3.17,1.33,4.63,2.15,.56,.32,1.24,.7,.83,1.68,.39-.35,.81-.76,.76-1.09-.1-.68-.44-1.32-.69-1.97l-.35,.02,.73-.7c-1.23-1.11-1.49-1.19-3.03-.9l1.46,1.29c-1.08,0-1.82,.08-2.07-1.05-.17-.77-.78-.54-1.44,.16-.56-.89-1.18-1.64-1.53-2.49-.27-.66-.23-1.5-1.21-1.47-.81,.03-1.83,1.18-1.83,1.91,0,1.51-.46,2.09-1.92,2.59-.39,.14-.7,.53-1.05,.8l.16,.3-2.45-.27-.72,2.59h-1.97c-.64,2.66-1.22,5.08-1.8,7.51,.36-.7,.91-1.03,1.71-.93,.03,0,.1-.27,.15-.42l1.4,.15-.23,.83h2.22c-1.5-1.39-2.02-1.53-3.38-.98Zm4.5-26.37c-.04,.52-.1,.8-.07,1.07,.14,1.31,.25,2.62,.48,3.91,.07,.4,.42,.81,.76,1.07,.36,.28,.86,.39,1.29,.57,.62,.27,1.05,.14,1.3-.54,.61-1.65,1.26-3.28,.45-5.06l-.64,.1,.19-.66c-.21-.01-.43-.05-.64-.03-.22,.02-.45,.18-.65,.15-.81-.15-1.6-.36-2.47-.57Zm-6.15,8.22c-.57-.52-1.09-1.18-1.77-1.59-.95-.57-2.04-.9-3.01-1.44-.67-.37-1.09-.21-1.55,.3-.42,.47-.83,1.1-1.36,1.28-.71,.23-.74,.75-.65,1.13,.08,.34,.54,.74,.91,.84,1.14,.34,2.42,.35,3.47,.85,1.76,.83,2.85,.16,3.96-1.38Zm41.12,13.51l.15,.45c.27-.1,.57-.33,.79-.27,.41,.13,.77,.43,1.15,.65-.14,.22-.31,.63-.41,.62-.85-.14-1.92-.11-2.49-.61-.88-.77-1.62-.37-2.46-.27,1.01,.51,1.78,1.32,3.17,1.15,1.47-.19,2.94,.85,4.53,.49,.26-.06,.63,.14,.88,.31,.61,.44,1.16,.51,1.35-.32,.08-.36-.26-.82-.5-1.48l-.48,.85c-1.43-.69-2.73-1.4-4.1-1.92-.42-.16-1.03,.22-1.56,.35Zm-44.62-2.68c1.69-.31,1.69-.31,2.2,1.27,.23,.72,.8,.78,1.17,.34,.33-.38,.62-1.23,.42-1.52-.46-.67-.72-1.79-1.9-1.63-.76,.11-1.51,.32-2.23,.48,.08,.25,.21,.66,.33,1.06Zm59.76,12.61c-.24,.79-.53,1.28-.5,1.75,.03,.37,.53,1.04,.68,1.01,1.08-.25,2.12-.65,3.17-1.01l.02-.53-3.38-1.22Zm-11.5-30.06l-.1,.29c-.12-.1-.25-.3-.36-.3-.47,.03-.95,.12-1.42,.18,.18,.33,.33,.69,.56,.98,.33,.42,.68,.86,1.11,1.16,.25,.17,.82,.21,1,.05,.33-.3,.6-.78,.68-1.23,.08-.4,.02-1.03-.24-1.23-.24-.19-.81,.06-1.24,.11Zm-38.8,5.71c.48,.86,.88,1.58,1.12,2.01l2.71,.42c0-.41,.22-1.17-.04-1.39-1.06-.93-2.37-1.19-3.79-1.04Zm-2.27-4.15c.04,1.8-1.65,.52-2.18,1.27,.29,.43,.49,1,.88,1.24,.45,.28,1.09,.33,1.64,.32,.11,0,.32-.79,.26-1.18-.09-.57-.39-1.11-.6-1.66Zm42.13-4.64c-.14-.26-.22-.51-.38-.67-.29-.28-.63-.52-.98-.73-.03-.02-.42,.41-.38,.47,.22,.36,.46,.88,.79,.96,1.33,.32,2.7,.49,4.08,.72-.63-1.34-1.19-1.48-3.12-.75Zm5.64,23.6c-.52-.86-.84-1.4-1.16-1.93q-2.92,.23-3.11,1.01c1.66-1.11,2.56,.91,4.27,.92Zm-59.69-4.99c.13-.24,.33-.43,.31-.59-.18-1.28-.38-2.57-.63-3.84-.04-.21-.3-.38-.46-.57-.16,.14-.44,.25-.47,.42-.1,.45-.24,.96-.11,1.36,.35,1.04,.84,2.03,1.36,3.22Zm71.96,18.32c-.25-.64-.38-1.29-.54-1.3-.91-.04-1.65-1.17-2.63-.58l-.14,.43,3.31,1.44Zm-30.02-16.42c.43,.71,.89,.94,1.69,.6,.38-.16,.91,.06,1.38,.08,.5,.02,1.01,0,1.51,0-1.43-1.83-3.07,.12-4.58-.69Zm-7.48-3.63l-.23,.12c.24,.54,.39,1.15,.75,1.59,.36,.44,.93,.72,1.41,1.06,.46,.33,.92,.65,1.38,.97l.16-.25c-.61-.55-1.24-1.09-1.82-1.67-.58-.58-1.1-1.21-1.65-1.81Zm29.04,2.06l-3.73,.65,.07,.46c.59-.08,1.26-.36,1.77-.19,1.01,.34,1.43-.15,1.89-.92Zm-57.07,12.82c-.34,1.47-.16,1.73,1.12,1.63-.12-.69,.11-1.55-1.12-1.63Zm58.45-15.95l-.38-1.63-.35,.04-.96,1.77,.25,.23,1.44-.41Zm-46.78,17.9l-1.25,.55-.73,1.47c.88,.38,1.38-.12,1.98-2.02Zm-15.81-10.63c.53,1.62,1.87,2.39,3.12,3.25l-.22,.22-2.91-3.46Zm55.91-8.16c.28-1.01-.5-1.44-2.89-1.25l2.89,1.25Zm4.63,22.11l.32-.03c.1-.57,.24-1.14,.29-1.71,.02-.21-.15-.44-.24-.66-.16,.18-.45,.36-.46,.56-.03,.61,.05,1.22,.08,1.84Zm-53.23-40.04l-.02,.33h3.56v-.07l-3.54-.26Zm15,30.47c-.8-1.08-1.39-1.16-1.94-.47l1.94,.47Zm-.93-30.27l.33-1.09-1.93-.15,1.59,1.25Zm1.18,28.63l.74,1.01,.95-.77-.17-.23h-1.52Zm42.14-14.79l-.76,1.35c1.24,.01,1.37-.21,.76-1.35Zm-19.02,5.72c.63-1.43,.54-1.58-.94-1.83l.94,1.83Z"/><path class="cls-1" d="M79.39,35.89q-1.52-1.04-3.25,.82c-.81-.96-.63-2.49-2.31-3.02-1.74-.55-2.15,1.32-3.51,1.03l-.08,.35c-.58-.7-1.04-1.59-1.77-2.05-.92-.57-2.06-.79-3.1-1.15-.22-.08-.47-.14-.7-.14-.52,0-1.14-.11-1.51,.14-.25,.17-.15,.87-.24,1.64l-3.24-1.19-.41,.26,.25,4.48c.72,0,1.25-.02,1.77,0,1.4,.07,1.4,.08,1.41-1.38,1.05,.78,2.12,1.45,3.03,2.29,.94,.86,1.41,.93,2.2-.06,.15-.18,.27-.4,.44-.55,.32-.28,.68-.53,1.05-.82,.9,.75,1.68,1.73,3.03,1.27-1.99,1.9-3.98,3.8-5.96,5.7,.87-.44,1.63-1.02,2.2-1.74,.78-.99,1.46-.91,2.22-.06,.32,.35,.72,.65,.97,1.05,.23,.37,.3,.83,.45,1.25,.17,.33,.56,.54,.98,.6,2.07,.27,2.42-.16,1.8-2.13-.43-1.38-.83-2.77-1.28-4.14-.24-.75-.79-.78-1.42-.5l.26-1.05c1.88,.27,1.45,2.27,2.45,3.21l-.95-.16,3,3.26-1.38,1.54c.63,.74,1.19,1.42,1.76,2.08,.68,.79,1.64,1.41,1.45,2.68-.03,.21,.19,.5,.36,.7,1.09,1.26,2.25,2.47,3.29,3.76,.84,1.04,1.54,2.21,2.35,3.28,.38,.51,.88,.93,1.33,1.39,.71,.72,.62,1.27-.32,1.72-.92,.45-1.82,.95-2.72,1.45-.14,.08-.21,.3-.47,.7-.83-3.05-2.94-4.07-5.92-3.99,.23-.37,.4-.76,.66-1.06,.78-.89,1.39-.81,2.07,.16,.14,.2,.56,.41,.71,.34,.28-.14,.54-.45,.65-.75,.04-.11-.4-.55-.62-.55-1.39,.01-1.98-.91-2.52-1.97-.17-.34-.55-.57-.83-.85-.26,.31-.53,.61-.77,.94-.43,.6-.75,1.32-1.29,1.79-.48,.41-1.11,.65-1.76-.09-.32-.36-1.06-.35-1.61-.5l.03,.03c-.06-.15-.12-.29-.19-.44-.27-.57-1.58-.59-.92-1.6,.37-.57,.97-1,1.46-1.5,.13-.13,.24-.27,.24-.27l2.8,1.94,.22-.26c-.5-.44-.98-.92-1.52-1.31-.66-.48-.9-.93-.37-1.69,.15-.21,.08-.83-.12-.99-2.02-1.69-4.3-2.6-7.09-2.2,.9,1.22,2.81-.54,3.4,1.39l-.93,.47,.08-1.06c-1.32,1.3-2.85,1.23-4.14-.07-.4-.4-.87-.8-1.38-.99-.27-.1-.71,.28-1.37,.57q-1.61-.53-2.17,.84c-1.94-.13-3.81-1.52-5.67-.34,.25,1.04,.57,2.02,.69,3.02,.12,1.05,.03,2.12,.03,3.21-1.65-.11-2.75,.59-3.43,1.98l.04-.04-1.16,.52,3.05,3.65-1.69-1.01-.35,.32c.48,.66,.9,1.38,1.46,1.96,1.01,1.07,.87,3.16-.33,3.92-.12,.08-.32,.13-.44,.09-1.47-.51-3.2-.75-3.95-2.28-.32-.65,.05-1.65,.17-2.49,.04-.3,.25-.58,.5-1.13-2.22,1.43-2.27,1.52-2.24,4.74l.85-1.22,.32,.79c-.29,.23-.76,.47-.73,.61,.08,.4,.29,.84,.58,1.12,.23,.23,.65,.34,.99,.36,1.38,.08,2.36,.84,3.27,1.77,.42,.42,.78,1.1,1.59,.65,.1-.06,.44,.09,.5,.22,.33,.76,.89,1.56,.83,2.3-.1,1.35,.91,1.15,1.57,1.45,.19,.09,.47-.03,.71-.02,2.3,.05,2.68,.67,1.52,2.56-.6,.98-1.28,1.91-1.99,2.82-.36,.46-.8,.69-1.19-.06-.13-.26-.46-.42-.72-.6-.85-.57-1.16-1.22-.4-2.18l-2.58,1.39c.48,.35,.78,.51,1,.74,.28,.29,.72,.65,.71,.96-.05,1.51,.07,2.87,1.7,3.61l-3.87-.62,.5,1.76q.72-1.06,2.6-.28l-.92,.51,.06,.18,1.68-.49c-.74,.89-1.34,1.78-2.11,2.47-.36,.32-1.06,.23-1.82,.37l.31-1.21c-.2,0-.41-.08-.48-.01-.57,.55-.93,.1-1.08-.33-.1-.28,.07-.8,.3-1.01,.77-.71,.7-1.45-.23-1.95-.9-.49-1.86-.94-2.62-1.6-.8-.7-.59-1.21,.57-1.76v.92l.27,.1c.29-.56,.65-1.09,.84-1.68,.27-.86,.36-1.78,.66-2.62,.12-.32,.59-.71,.92-.73,1.35-.09,2.39-.7,3.54-1.71-1.39-.2-2.51,.99-3.59,.31,.22-.48,.6-.93,.49-1.16-.22-.49-.09-1.35-1.06-1.29-.86,.05-1.74,.01-2.82,.01l.97,2.9-2.12-1.76c0-1.09,.12-2.55-.03-3.99-.18-1.68-.32-3.45-.99-4.95-.65-1.47-.09-2.41,.54-3.51,.18-.32,.31-.67,.47-1l-.41-.19c-.17,.25-.41,.47-.49,.74-.48,1.66-1.67,1.95-3.2,1.85-1.81-.12-1.81-.05-3.03,.88-.2,.73-.19,1.5-.52,1.68-.53,.3-1.27,.28-1.93,.27-.1,0-.2-.61-.36-1.12-.36-.18-.97-.48-1.57-.77-.47-.4-.94-.81-1.65-1.41,.91-.3,1.46-.64,1.98-.61,.94,.05,1.87,.32,2.81,.5l-.13-.38,.69-1.02,1.09,1.15c.09-.41,.33-.84,.24-1.18-.18-.69-.54-1.34-.9-2.19-1.69,.09-1.27,1.74-1.63,3.03-.37-.24-.81-.36-.89-.6-.43-1.2-1.12-.59-1.75-.3-.38,.18-.7,.47-1.06,.67-.54,.3-1.09,.57-1.55,.81,.81,.59,1.43,1.07,2.1,1.5,.16,.1,.45,0,.68,0l.76,1.22c-.05,.06-.19,.19-.28,.35-.19,.36-.34,.74-.51,1.11,.36,.11,.72,.24,1.09,.31,.42,.08,.85,.11,1.09,.14l.13,1.63c-.29,.04-.66,.13-1.03,.14-1.26,.06-1.62,.4-1.54,1.68,.05,.74,.23,1.49,.41,2.21,.29,1.13,.94,2.15,.55,3.46-.17,.56,.29,1.32,.27,2.11l-2.96-3.15-.33,.18c.03,.28-.03,.6,.09,.84,.77,1.49,1.52,2.99,2.39,4.42,.66,1.07,1.85,.58,2.72,.48,.86-.1,1.74-.74,1.73-1.86-.01-1.23-.13-2.47-.19-3.7-.01-.31,.02-.62,.05-1.13,.37,.28,.63,.43,.84,.63,1.27,1.25,2.51,2.53,3.82,3.74,.24,.22,.76,.27,1.1,.2,.73-.15,1.41-.51,2.14-.65,.33-.06,.72,.18,.93,.24l-.5,1.81c-1.38,.1-2.89,.21-4.41,.32-.16,.01-.32,.01-.47,.06-1.72,.51-3.53,.84-5.12,1.61-.89,.43-1.45,1.58-2.08,2.46-.09,.13,.13,.68,.32,.78,.26,.12,.69,.07,.97-.06,1.06-.53,2.09-1.12,3.47-1.87-.04,.87-.08,1.49-.09,2.11,0,.29-.08,.68,.07,.84,1.14,1.21,2.05,2.87,2.42,4.6-.6-.04-1.19-.17-1.77-.11-.52,.06-1.12,.2-1.52,.51-.77,.59-1.99,.39-2.22-.57-.36-1.5-1.42-2.42-2.39-3.49-1.16-1.29-2.06-2.81-3.09-4.22-.85-1.17-1.77-2.3-2.58-3.5-.57-.85-.98-1.81-1.54-2.66-.35-.53-.86-.95-1.29-1.42-.3,.6-.85,1.21-.85,1.81,0,1.38,.21,2.77,.42,4.15,.23,1.5-.3,2.56-1.7,3.17-.07,.03-.15,.05-.22,.09-1.88,.82-2.21,.75-3.54-.84-.92-1.1-1.9-2.17-2.66-3.38-.49-.77-.64-1.75-.94-2.64-.98-2.93-1.02-6.02-1.57-9.03-.71-3.87-.98-7.85-2.64-11.5-.38-.83-.97-1.57-1.28-2.42-.25-.69-.37-1.51-.24-2.21,.08-.41,.71-.88,1.18-1.02,.94-.27,1.94-.32,2.94-.46,.44,.2,1.05,.47,1.65,.75,.14,.06,.33,.12,.4,.23,1.13,1.85,3.1,2.08,4.92,2.63,.59,.18,1.09,.63,1.66,.89,.3,.14,.66,.15,1,.21-.16-.29-.24-.69-.48-.85-.77-.54-.78-1.04-.07-1.81-.22-.72-.46-1.32-.54-1.94-.03-.19,.35-.52,.61-.65,1.47-.73,1.62-.87,1.09-2.34-.4-1.1,0-1.43,.96-1.39,.84,.04,1.07-.28,1.14-1.1,.1-1.2,.46-2.38,.6-3.58,.03-.29-.37-.62-.53-.96-.22-.49-.56-1.01-.56-1.52-.01-1.29,.14-2.58,.21-3.88,.01-.27,.02-.72-.13-.79-1.22-.64-1.13-2.03-1.77-3-.24-.36-.07-1.01-.09-1.52,.51,0,1.04-.08,1.53,.03,.48,.11,.92,.41,1.49,.47l-1.02-.75h1.34l.16-1.72,.25-.03c.04,.43,.03,.87,.14,1.28,.07,.26,.26,.57,.48,.69,.11,.06,.45-.22,.64-.39,.43-.38,.85-.78,1.24-1.2,.39-.41,.4-.77,.35-1.44-.18-2.42-2.42-1.77-3.53-2.71-.23-.2-.87,.08-1.38,.14,.11-1.69-1.87-1.02-2.58-2.1,.19-.77,.68-1.33,1.48-1.87,.68-.46,1-1.44,1.52-2.25,1.13,.33,2.08,1.73,3.6,1.82l.19-.36-4.09-2.18,.28-.5,5.4,2.97-1.11,.87,4.15,2.64,.19-.25-2.52-2.66c3.73,1.48,7.27,1.89,10.9,.36,1.28,1.14,2.49,1.32,3.66,.45l-.92-1,.11-.24,3.77,1.06,.14-.36-1.12-1.03,.09-.16c.89,.31,1.8,.56,2.65,.94,.8,.36,1.14,.93,.76,1.91-.39,.98,.09,1.5,1.06,1.42,2.1-.19,2.76,.35,3.19,2.56l-1.37,1.14,.22,.38c.81-.12,1.63-.32,2.44-.33,.42,0,.98,.21,1.23,.52,.79,1,1.83,1.38,3.01,1.49,1.33,.13,1.63-1.04,2.2-2.02l3.87,1.21h-.02c.46,1,.37,2.26,1.52,2.98,.74,.46,1.39,.56,2.08,.07,.92-.65,1.72-.64,2.51,.21,.21,.23,.51,.38,.77,.55,.71,.46,1.34,.84,.89,1.94-.22,.54,.12,1.3,.22,1.99,.94,.23,2.29-.45,2.48,1.17l.03-.02Zm-22.03-.6l.22,.09c.22-.4,.34-1.04,.67-1.16,.97-.37,.43-.99,.28-1.42-.24-.72-.85-.7-1.48-.43-.44,.19-.91,.29-1.36,.46-1.81,.69-3.62,1.37-3.93,3.7-.03,.22-.6,.59-.74,.53-.87-.41-1.1,.2-1.47,.73-.16,.23-.47,.4-.74,.51-1.36,.55-2.72,1.08-3.8,1.5-.37,2.44,2.34,3.56,1.24,6.02,1.07-.34,2.15-1.3,2.6,.49,.15-.56,.14-.98,.23-1.38,.05-.22,.28-.4,.43-.6l.23,.25,.21-.66c.64-.14,1.12-.25,1.6-.36,.44-.1,.89-.31,1.31-.27,.73,.08,1.45,.31,2.18,.48l.09-.29-1.51-.88c1.29-.3,2.55-.09,3.3-1.41l-5.26-2.14c.67-.7,1.1-1.41,1.73-1.75,.76-.41,1.69-.51,2.55-.74-.56-.24-1.11-.19-1.66-.16-.22,0-.53,.03-.63-.09-.11-.14-.12-.46-.04-.65,.44-1.02,2.99-1.92,4.06-1.43l-.3,1.07Zm-27.27-2.14l1.18,4.07c.4-.44,1.32-.83,.6-1.81,.85-.28,1.64-.73,2.45-.78,1.34-.08,2.07-.53,1.97-1.95,0-.04,.12-.09,.16-.12,1.45,.64,.74,2.87,2.43,3.47,.14-.36,.23-.58,.31-.8,.79-2.17,.67-2.39-1.5-3.4-.33-.15-.68-.61-.73-.97-.08-.61,.1-1.25,.1-1.87,0-.37-.11-.74-.17-1.11l-.48,.08c0,1.13,.03,2.27-.02,3.4-.01,.29-.18,.77-.37,.83-1.85,.52-3.61,1.59-5.95,.96Zm13.97,11.73q-2.21-.38-1.95-2.74c.01-.12,.01-.24,.02-.36,.14-2.39,.51-2.83,2.99-3.5l-.29,.92,.24,.17c.5-.53,1.38-1.03,1.42-1.6,.08-1.13-.3-2.28-.49-3.43l-.32,.02,.82-.87c-1.69,.43-3.27,1.03-4.76,1.8-.53,.28-.83,1-1.31,1.63,1.27,.18,2.16-3.16,3.24,.18l1.87-.86c.26,.88,.23,1.02-.73,1.4-1.52,.6-3.06,1.13-4.66,1.72,1.01,1.69,1.49,3.34,.58,5.3l3.33,.22Zm-6.04,8.36c-.16,.16-.45,.39-.63,.69-.1,.15-.09,.53,.02,.62,.19,.15,.65,.27,.72,.18,.42-.53,1.25-.97,.72-1.85-.41-.68-1.07-1.28-1.25-2.01-.31-1.25-.38-2.56-.48-3.85-.14-1.73,.75-3.08,2.34-3.73,.35-.14,.67-.36,1-.54l-.29-.47-4.47,2.75c.79,1.04,.88,2.09,.3,2.34-.82,.36-1.66,.66-2.51,1l-.11-.48c-.91,.44-1.77,.81-2.58,1.28-.62,.35-.59,1.21-.02,1.54,.92,.53,2.69,0,3.28-.92,.17-.26,.52-.44,.82-.55,.46-.17,.95-.25,1.39-.35l1.74,4.37Zm4.23-26.41c1.75-.03,2.88-.95,3.74-2.26,.54-.82,.42-1.35-.54-1.62-2.11-.59-4.2-.43-6.16,.53-.78,.38-1.41,1.08-.82,2.23,.29-.17,.42-.49,.64-.69,1.43-1.28,3.22-1.3,4.63-.08,.55,.48,.74,.86-.18,1.16-.47,.15-.88,.48-1.32,.73Zm-23.52,46.48l-.31,.28c.21,.49,.64,1.01,.59,1.46-.18,1.43,.81,2.28,1.47,3.28,.18,.27,.73,.44,1.09,.41,.18-.02,.48-.64,.42-.92-.24-1.11-.39-2.33-.99-3.24-.41-.64-1.49-.86-2.27-1.26Zm11.08-18.52l2.21-1.24c-.25-.67-.71-1.42,.61-1.46,.23,0,.44-.44,.92-.95-1.08,0-1.82-.14-2.45,.06-.29,.09-.33,.88-.57,1.3-.14,.24-.44,.43-.71,.54-1.63,.63-1.64,.63-.91,2.18,.25,.54,.49,1.11,.87,1.56,.2,.24,.68,.24,1.2,.4l-2-2.86,.44-.34,.41,.82Zm.03-8.55l-.16,2.05,1.61-.4c.49-.92,.99-1.57,1.17-2.29,.18-.71,.04-1.5,.04-2.33l-3.34,2.98,.15,.15,.53-.17Zm19.5-20.82l-1.31,2.07c.71,.4,1.42,.81,2.12,1.21,.28,.16,.54,.4,.83,.45,.24,.04,.74-.22,.74-.24-.21-.75-.34-1.57-.75-2.21-.34-.52-1.02-.83-1.62-1.28Zm2.82,4.21q-2.63,1.63-2.92-.94h-1.46c.5,.92,.73,1.91,1.35,2.33,.59,.4,1.6,.32,2.39,.21,.24-.03,.37-.86,.65-1.6Zm.64,21.05c-.58-.18-1.05-.19-1.18-.4-.34-.57-.57-1.21-.77-1.84-.26-.78-.45-1.59-.67-2.39l-.41,.13,1.65,5.63,.4,.11,.98-1.25Zm-20.97-10.64c.67,1.04,1.56,2.08,3.34,2.01l-1.54-1.35,.16-.4,1.61,.53c-.1-1.06-.89-.9-1.71-.81-.59,.07-1.2,.01-1.86,.01Zm1.59,24.87s.41-.36,.36-.56c-.35-1.34-1.6-1.56-2.76-2.16-.04,.93-.18,1.65,1.02,1.77,.41,.04,.78,.52,1.38,.95Zm-1.95-34.77c-.74-.42-1.24-1.5-2.25-.45l1.85,1.6,.4-1.15Zm17.54,16.92l.28,3.32c1.04-.58,1.06-1.45-.28-3.32Zm-16-22.88l.21,.32c.45-.28,.92-.81,1.36-.79,1.21,.04,1.14-.78,1.45-1.8l-3.02,2.28Zm8.15,31.48l-.15,.2c.22,.36,.42,.74,.68,1.07,.15,.19,.39,.34,.62,.4,.1,.03,.41-.24,.39-.33-.04-.25-.16-.55-.35-.69-.36-.27-.8-.44-1.2-.65Zm31.77-1.52l.08,.67,1.65,.09c-.24-.31-.43-.73-.75-.89-.24-.12-.65,.08-.98,.14Zm-25.01,.85l-.3-.53-1.77,1.11,.26,.42,1.81-1.01Z"/><path class="cls-1" d="M92.61,126.08c.04,.18,.03,.45,.15,.53,.34,.25,.74,.42,1.06,.8,.04,0,.08,.02,.12,.01,.47-.17,.93-.35,1.4-.53-.05,.71-.17,1.42-.13,2.12,.05,.94,.21,1.87,.33,2.81l.44-.02,.29-3.33c1.51,.92,2.76,1.69,4.3,2.63-.81,1.45-1.72,3-2.55,4.59-.31,.58-.38,1.29-.64,1.9-.37,.89,.49,1.03,.81,1.51,.77,1.16,1.6,2.32,2.17,3.58,.28,.61,.04,1.46,0,2.2-.04,.63-.1,1.27-.22,1.89-.06,.3-.26,.79-.44,.81-.38,.05-.81-.11-1.19-.27-.32-.14-.59-.39-.88-.6,.03-.45,.18-1.06,.06-1.61-.09-.4-.49-.83-.87-1.03-.2-.1-.65,.25-.98,.41-.43,.22-.86,.45-1.59,.83l.42-1.72c-.97-.32-1.52-.15-1.7,.95-.06,.34-.5,.72-.86,.88-.21,.1-.6-.21-.78-.28,.25-.55,.59-.93,.54-1.26-.18-1.15-1.13-.82-1.91-.77l-.09-.37c.47-.14,.94-.27,1.4-.44,.21-.07,.45-.17,.57-.33,.95-1.27,1.9-2.53,2.77-3.85,.14-.21-.16-.72-.3-1.27-.95,.89-.92,2.51-2.41,1.85-.39,.87-.72,1.64-1.1,2.39-.03,.05-.41-.08-.63-.13l.31-.25c-.31-.62-.57-1.26-.93-1.85-.37-.6-1.01-1.12-.37-1.54-1.07-.89-2.12-1.76-3.27-2.71-.5,.44-1.23,.98-1.8,1.65-.46,.55-.11,.95,.54,1.05,.39,.06,.81-.03,1.17,.1,.22,.08,.35,.42,.56,.7-.96-.1-1.76-.42-2.34-.18-.74,.3-1.3,1.04-1.75,1.8-.07,0-.18,.01-.22-.03-1.34-1.34-.94-1.53-2.91-.31-1.85,1.14-3.78,2.13-5.74,3.23l-.64-1.07,1.21-1.13c-.95-.89-1.74-.85-2.71,.14,.22-1.09-.95-1.6-.36-2.6,.11-.18-.43-.74-.78-1.31,1.36-1.39,3.02-3.08,4.68-4.77l.17,.34c.61-.2,1.3-.27,1.83-.61,1.3-.85,2.61-.58,3.42,.78,.6,1.02,1.26,2.01,1.89,3.01l.39-.11c.31-1.2,.8-2.39,.85-3.6,.02-.53-.83-1.13-1.33-1.64-.6-.62-1.43-1.09-1.83-1.81-.34-.61-.46-1.58-.22-2.22,.37-.99,1.14-1.84,1.85-2.92l1.37,2.28c1.2-1.55-.62-2.4-.44-3.77,1.65,.52,3.45,1.04,3.84-1.53,.03-.21-.27-.47-.52-.85,1.12-.77,2.4,.31,3.86,.2l-2.15-2.05c.79,.2,1.66-.08,2.24,.95,.64,1.12,1.66,2.03,2.51,3.03l.28-.16c-.45-.9-.84-1.85-1.38-2.7-.46-.73-1.11-1.34-1.65-2.03-.36-.46,.03-2.15,.59-2.61,1.08-.88,2.18-1.74,3.27-2.6,1.3-1.03,2.55-.93,3.64,.33,.47,.54,.89,1.13,1.28,1.73,.68,1.02,.75,1.97-.51,2.67-1.42-.39-1.66-.18-1.33,1.11l3.51-.81c1.34,3.62,2.66,7.17,3.94,10.61-.53,.13-1.03,.32-1.54,.36-.27,.02-.64-.16-.82-.37-.55-.63-1.07-1.29-1.51-1.99-.24-.38-.37-.88-.39-1.33-.13-2.22-1.23-2.88-3.2-1.88-.2,.1-.54,.22-.65,.13-.7-.57-1.24-.25-1.59,.34-.43,.72-1.05,1.46-.48,2.42,.19,.32,.26,.72,.37,1.04-.82-.43-1.53-.81-2.24-1.19l-.23,.31c.22,.4,.45,.8,.67,1.2-.94-.81-1.72-1.92-3.25-1.72-.07,.22-.14,.45-.22,.67-.08,.22-.17,.43-.21,.55,.3,.45,.59,.78,.75,1.16,.38,.88,1.14,1.15,1.94,.57,.4-.29,.69-.75,1.03-1.13Zm3.55,7.41l-.27-.16c-.4,.39-1.2,.86-1.14,1.15,.17,.78,.69,1.49,1.08,2.22l.33-.14v-3.07Zm-9.91-7.46q-1.9,.97,0,3.49v-3.49Z"/><path class="cls-1" d="M59.21,162.62l-.14,.94c-.28-.71-.64-1.29-.69-1.89-.02-.22,.7-.5,1.31-.9-.31-.24-.63-.7-.99-.73-1.69-.15-2.68-1.05-3.11-2.63-.23-.85-.4-1.71-.6-2.6,.86,.96,1.71,1.81,2.42,2.76,.85,1.13,1.81,1.06,2.91,.54,.21-.1,.41-.23,.79-.44l.78,1.91,.51-.59c.07,.13,.16,.23,.16,.33,0,.23,0,.48-.09,.69-.39,.88-.6,1.78,.18,2.52,.54,.51,2.08,.06,2.88-.55,1.32-1,1.09-2.5,1.26-3.81,.3-2.39,.11-4.8-1.06-6.96-.43-.79-1.31-1.33-1.97-1.99-.31-.3-.59-.63-1.01-1.09,.6-.32,1.09-.71,1.63-.82,.56-.12,1.18-.07,1.27,.83,.06,.57,.26,1.09,1.19,1.04,1.08-.07,2.38,1.99,2.26,3.31-.06,.64-.26,1.31,.68,1.49,.09,.02,.24,.19,.22,.25-.39,1.35,.87,1.17,1.45,1.64,.65,.52,1.17,1.19,1.74,1.81,.16,.17,.34,.55,.42,.52,1.41-.41,2.34,.93,3.41,1.02,2.23,.17,3.23,2.44,5.32,2.62,.81,.07,1.62,.1,2.55,.22-1.38,.24-1.38,.87-.84,1.87,.28,.53,.21,1.24,.32,2,.61,0,1.29,.19,1.77-.03,1.68-.77,3.19,.05,4.78,.25,.54,.07,1.27-.1,1.65-.45,.72-.67,1.45-.81,2.39-.76,.63,.03,1.3-.31,1.93-.55,.78-.3,1.53-.66,2.43-1.05l.46-1.59-.33-.12-.95,1.34-.42-.25c.23-.35,.41-.75,.7-1.05,.31-.31,.72-.52,1.24-.89l1.29,1.31c-.1-1.25,.68-2.12,1.57-3.06,.56-.59,.57-1.7,.81-2.57,.09-.31,.15-.62,.22-.93,.48,.59,1.35-1.22,1.61,.32,1.73-.96,2.26-.62,2.39,1.55l-1.23-.5-.6,1.12c1.21-.18,2.49-.36,3.77-.57,1.4-.24,2.79-.52,4.19-.76,.7-.12,1.41-.23,2.11-.26,.18,0,.38,.27,.57,.41-.16,.14-.31,.37-.5,.41-1.24,.29-2.49,.5-3.72,.81-.6,.15-1.15,.51-1.74,.67-.61,.17-1.26,.29-1.89,.28-.63,0-2.06,.9-2.4,1.44-.86,1.33-2.07,2.32-3.64,2.62-.91,.17-1.55,.42-1.89,1.35-.22,.62-.51,1.02-1.48,.85-.68-.12-1.95,.56-2.23,1.2-.58,1.32-1.59,1.29-2.64,1.49-1.52,.3-3.06,.55-4.55,.97-2.01,.56-2.04,.63-1.36,2.76,.31,.97,.79,1.89,1.24,2.81,.41,.83,.98,.75,1.65,.26,1.47-1.07,2.97-2.11,4.69-3.32-1.46,2.41-3.52,3.84-5.7,5.15l.22,.35c.65-.17,1.29-.33,1.94-.5l.08,.34c-1.84,.4-3.34,1.79-5.47,1.43-.92-.16-2.03-.02-2.86,.38-2.08,1-4.17,.71-6.29,.4,1.53-.29,3.06-.57,4.59-.86,2.43-.46,3.27-1.58,2.84-4-.28-1.6-.73-3.18-1.09-4.77-.19-.82-.65-1.37-1.4-1.77-.44-.24-1.15-.81-1.08-1.02,.19-.58,.72-1.05,1.24-1.72l-.93-.8c-1.1,1.63-1.67,1.61-2.56-.01-.32-.58-.57-.82-1.29-.46-1.23,.6-1.65,.28-2.4-.85-.37-.55-1.16-.81-1.76-1.21l-.19,.29,.83,1.86-.22,.25c-.86-.75-1.78-1.46-2.58-2.27-1.1-1.12-2.19-1.22-3.27-.04-.99,1.09-1.8,2.31-3.3,2.85-.37,.13-.6,.81-.77,1.29-.35,1.01-.58,2.07-.92,3.09-.34,1.02-.16,1.77,.69,2.52,1.29,1.13,2.42,2.43,3.64,3.64,.56,.55,1.18,1.04,1.77,1.56,1.96-1.02,1.34-3.28,2.65-4.91-.11,1.91-.69,3.31-1.47,4.64-.11,.18-.38,.37-.58,.37-1.96,.02-2.88,1.58-4,2.77-.94,1-2.24,1.22-3.37,.09-.41,.92-.75,1.78-1.17,2.61-.14,.27-.43,.49-.71,.65-.32,.19-.7,.29-1.14,.46-.09-.13-.18-.43-.39-.55-1.31-.79-1.88-2.07-2.45-3.41-.62-1.46-1.36-2.87-2.17-4.24-1.85-3.12-1.13-7.92,.97-10.21,.15,.12,.29,.29,.47,.35,2.8,.86,2.99,3.15,3.04,5.52,.01,.51,0,1.02,0,1.7,.99-.77,1.05-1.6,.84-2.52-.33-1.43-.69-2.86-.93-4.31-.12-.71,.01-1.45,0-2.18,0-.27-.09-.53-.14-.8l-.27,.02Zm2.8,9.96l-.46,.43c1.4,1.68,2.8,3.35,4.2,5.03-.27-1.59,.83-1.83,2.15-2.16l-1.99-1.94-1.12,1.35-2.79-2.71Zm-1.36,8.91c-.24-2.59-.49-5.18-.73-7.77-.82,2.26-.6,4.95,.73,7.77Zm3.42-16.52l-2.74,.54c.7,.51,1.3,.73,1.49,1.15,.21,.46,.05,1.09,.05,1.65l.55,.06,.66-3.4Z"/><path class="cls-1" d="M33.59,100.26c1.45-.35,2.88-.75,4.34-1.03,.62-.12,1.28-.02,1.93-.02-.26,.77-2.31,.59-1.36,2.29,2.2-1.3,4.69-1.32,7.14-1.47,.92-.06,1.5-.45,1.73-1.35,.03-.11,.08-.23,.14-.33,.43-.71,3.79-1.39,4.75-.79l-2.87,1.62,.14,.27,1.35,.24c-.32,.34-.47,.64-.71,.73-.92,.37-1.87,.69-2.81,.98-.24,.08-.53,0-.79,.01-.76,.01-1.51,.03-2.57,.06,1.83,1.96,3.25,1.93,3.76,.27,1.37-.11,2.7,.98,2.58,2.22-.97-.82-1.94-1.34-3.14-.42-.23,.18-.73,.03-1.15,.03-.23,1.76,.86,2.94,2.32,3.97,1.09,.78,1.06,.83,.6,1.86,1.27,.53,2.6,.97,3.79,1.65,.51,.29,.79,1.07,1.08,1.67,.18,.38,.31,.86,.26,1.27-.06,.47-.25,.98-.54,1.36-.44,.58-1.01,1.07-1.52,1.59l.22,.28h2.23c-1.79,.84-2.5,2.25-2.89,3.96,0-.23-.02-.47,0-.69,.03-.23,.1-.46,.18-.84l-1.59,.19-1.89-1.44-.22,.25,.26,.52c-.41,.55-1.85-.75-1.52,.96-1.3-.01-2.66,.37-3.48-1.18-.13-.25-1.03-.09-1.57,.08-.56-.16-1.15-.26-1.67-.49-.24-.11-.32-.52-.53-.74-.29-.3-.63-.55-.95-.82l-.5,1.01-2-1.57c.18-.28,.34-.51,.48-.75,.91-1.42,.7-1.92-.91-2.26-.22-.05-.41-.27-.56-.48,1.02,.3,1.71,.05,1.79-.93,.1-1.17,.7-1.22,1.61-1.14,.43,.04,.99-.07,1.28-.34,.3-.28,.33-.84,.48-1.27-.52-.14-1.05-.44-1.55-.4-1.89,.16-1.93,.16-2.7-1.54-.47-1.04-1.03-2.04-1.57-3.1,.97-.86,.21-2.04,.17-3.1-.01-.3-.69-.56-1.07-.85l.03,.03Zm5.89,3.19c-.95,.71-1.91,1.41-2.83,2.15-.1,.08-.08,.43,0,.59,.06,.11,.39,.21,.49,.14,1.04-.67,2.59-.84,2.34-2.89Zm2,7.78l-.1,.34c1.59,1.08,5.08,2.08,6.07,1.52-2.12-.66-4.05-1.26-5.97-1.86Zm5.82-1.62l-.34,.11c.3,.53,.55,1.08,.92,1.55,.09,.11,.54-.05,.82-.08-.07-.24-.08-.55-.24-.7-.35-.33-.77-.59-1.16-.88Z"/><path class="cls-1" d="M7.67,114.78l1.29,.76,1.43-2.9-.03,.09c.95-1.44,1.86-2.91,2.87-4.32,.4-.56,.99-.97,1.51-1.44,1.55-1.4,3.26-2.59,5.21-3.28,2.4-.84,4.86-1.51,7.33-2.13,2.09-.53,4.21-.88,6.32-1.31l-.03-.03c-.5,1.03-.99,2.06-1.52,3.16l-.59-.51c0,2-.05,3.99,.02,5.97,.03,.91-.44,1.08-1.15,1.1-1.32,.04-2.65,.01-3.97,.14-1.08,.11-2.08,.49-3.27,.23-.67-.15-1.57,.58-2.33,.98-2,1.04-3.99,2.12-5.64,3,.14,.23,.57,.65,.59,1.09,.02,.46-.29,.99-.58,1.41-.26,.36-.68,.61-1.04,.91l.26,.31,1.19-.47,.26,.38c-.37,.31-.74,.87-1.12,.88-.96,.01-1.14,.64-1.27,1.29-.15,.74-.15,1.51-.29,2.25-.09,.5-.16,1.11-.48,1.43-.87,.86-1.06,1.92-1.19,3.04-.12,.98-.64,1.58-1.33,1.75-.08-.83-.14-1.64-.23-2.44-.17-1.47-.37-2.94-.57-4.6l1.59,.94c.2-.83,.41-1.53,.54-2.25,.06-.31-.02-.64-.04-.97-.32,.1-.65,.17-.96,.3-.21,.09-.39,.24-.69,.43l-.47-1.26c0,.56,.03,.9-.01,1.24-.03,.22-.18,.62-.26,.61-1.38-.07-1.22,1.17-1.65,1.9-.11,.03-.22,.05-.34,.08-.13-.66,1.19-2.69,1.87-3.03-.43-.13-.9-.21-1.28-.07-1.48,.55-2.5,1.61-2.7,3.18-.1,.79,.21,1.63,.33,2.45,.31-.08,.78-.06,.9-.26,.46-.76,.81-1.58,1.2-2.38,.36,.41,.81,.78,1.06,1.25,.2,.38,.15,.88,.2,1.33l-1.3-.11c-.05,.19-.09,.54-.24,.84-.38,.75-.11,1.06,.66,1.04,.83-.03,.87,.47,.84,1.06l-2.3,.47,1.28,1.09c-1.04,.66-2.16,.52-3.21-.48l1.7-.11-.97-.84,.66-.8c-.08-.1-.15-.2-.24-.27-.69-.53-1.53-.94-2.03-1.61-.39-.52-.66-1.46-.46-2.02,.58-1.58,1.16-3.2,2.74-4.21,.94-.6,1.02-1.15,.61-1.91,1.05-.5,1.35,1.96,2.81,.59l-1.91-.85c.15-.76,.29-1.45,.43-2.15l-.03,.03Zm17.32-12.34l-1.81,.93c1.38,.78,1.8,.57,1.81-.93Z"/><path class="cls-1" d="M5.9,54.73c-1.12-.02-2.06-.25-2.25-1.6-.09-.64,0-1.1,.7-1.29,1.31-.34,2.61-.75,3.93-1.03,1.08-.23,2.33,1.3,2.05,2.46-.25,1-.34,1.89,.83,2.42,.19,.09,.31,.43,.39,.68,.51,1.67,1.05,3.34,1.47,5.03,.29,1.19,.43,2.42,.6,3.64,.43,2.91,.86,5.83,1.25,8.75,.17,1.25,.27,2.51,.32,3.77,.01,.28-.23,.69-.48,.85-2.65,1.72-4.09,2.15-5.89-1.66-.61-1.29-.8-2.79-1.49-4.02-2.17-3.91-2.27-8.1-2.08-12.4,.05-1.21-.51-2.44-.78-3.67-.36-1.7-.33-1.73,1.43-1.92Z"/><path class="cls-1" d="M91.79,87.34c0-1.33,.03-2.41,0-3.48-.06-2.05,.94-3.65,2.19-5.12,.19-.22,.73-.44,.92-.33,1.34,.78,2.95,1.19,3.64,2.87,.57,1.39,1.32,2.71,2.01,4.06,.44,.86,.08,1.7-.77,2.16-.89,.49-1.68,1.14-2.71,1.86l1.18,.67-1.47,1.68-.99-1.27c-.36,.56-1,1.1-1.04,1.68-.13,2.09-1.22,3.2-3.29,3-1.35-.13-2.7-.28-4.02-.57-.48-.11-.86-.65-1.37-1.05l-.52,.68-.37-.22c.2-.3,.35-.78,.62-.87,1.43-.47,2.89-.83,4.38-1.24-.74-.9,.22-1.39,.73-1.64,.65-.33,1.52-.25,2.36-.6-.95-.22-1.9-.45-2.86-.65-1.4-.29-2.81-.53-4.2-.85-.28-.07-.75-.47-.71-.61,.33-1.19,.76-2.36,1.16-3.53l.39,.04c.17,.24,.37,.46,.52,.72,.41,.72,.72,1.31,1.83,.93,.47-.16,1.25,.53,1.85,.89,.2,.12,.29,.43,.53,.81Z"/><path class="cls-1" d="M106.16,71.24c-1.27,1.71-2.74,3.32-2.06,5.77,.23,.85-1.11,2.28-1.99,2.31-.62,.02-1.22-.08-1.22-.95,0-.8-.41-1.2-1.23-1.32-.42-.06-.79-.51-1.22-.57-1.46-.21-2.94-.31-4.4-.49-.4-.05-.78-.25-1.17-.38,.18-.37,.32-.77,.55-1.12,.24-.38,.55-.71,.96-1.22-1.23-.09-1.77,.47-2.13,1.28-.42,.94-.94,1.1-1.51,.42,2.32-2.65,4.66-5.18,6.84-7.86,.96-1.18,2.05-1.78,3.28-1.88l3.02-3.7c.11,.6,.2,.98,.25,1.37,.09,.78-.19,1.74,1.03,1.95,.03,0,.09,.83-.11,1.09-.35,.45-.89,.76-1.47,1.21,.49,.35,.92,.75,1.43,1.01,1.36,.71,1.7,1.74,1.14,3.13l.03-.04Zm-4.79,2.99c-.89-1.42-2.05-.97-3.09-.82-.31,.05-.58,.4-.87,.61,.32,.23,.66,.65,.97,.64,.93-.04,1.86-.25,2.99-.42Z"/><path class="cls-1" d="M54.43,99.04l-1.19,.49c.6-1.02,1.14-2,1.73-2.96,.6-.98,2.22-1.3,3.37-.66l-1.54,2.05c.82-.06,1.35,.04,1.73-.16,.8-.41,1.62-1.02,2.39-.26,.58,.57,1.56,.36,1.94,1.4,.3,.82,1.81,.51,2.51-.45,.99,.83,.72,1.92,.77,3.03l-1.18-.06c.11,.37,.19,.69,.3,1,.2,.54,.42,1.07,.64,1.6-.6,.12-1.21,.37-1.79,.33-1.42-.11-2.83-.36-4.24-.53-.26-.03-.54,.04-1.15,.08,.52,.42,.81,.7,1.14,.91,.99,.61,1.98,1.24,3.01,1.77,1.04,.54,1.99,.33,2.69-.84l.3,.26-.22,2.48-.77-.82c-.05,.55-.11,.94-.11,1.33-.01,.8-.35,1.12-1.13,.78-.86-.37-1.19-.22-1.21,.82,0,.44-.62,.89-1.01,1.28-.05,.05-.6-.2-.61-.33-.01-.3,.08-.7,.28-.9,.22-.22,.61-.25,.93-.37l-.05-.39-1.87,.15,.17-2.88c-.06-.02-.39-.08-.68-.22-.7-.33-1.34-.62-1.06-1.68,.1-.37-.42-1.26-.75-1.31-1.13-.16-1.04-1.04-1.33-1.73-.3-.73-.64-1.43-1.06-2.38-.98,1.32-.13,2.15,0,3.05,.15,1.02,.06,2.07,.21,3.09,.13,.95,.44,1.88,.69,2.9l-1.64,.44,.44-1.68-1.28,1.63c.49-1.43,.02-2.49-.9-3.53-.22-.24-.04-.91,.07-1.35,.46-1.81,.96-3.6,1.45-5.4,1.42,.88,2.51-.16,3.69-.69-1.23,.23-2.46,.47-3.69,.7Zm5.13,3.73l.19,.39,1.71-.81-.05-.25-1.52-.24-.32,.91Z"/><path class="cls-1" d="M84.65,79.37c-.43,.16-.8-.02-.72-.92,.03-.31-.17-.71-.38-.97-.42-.53-.93-.98-1.39-1.48-.48-.52-.95-1.09-1.76-.38,.2-.27,.4-.54,.6-.81,.17-.23,.35-.47,.52-.7l-.17-.28-3.2,1.01c-.3-1.49,.86-2.64,2.49-2.62l.88-1.81,.31,.09-.25,1.98,.37,.14c.16-.32,.41-.63,.46-.96,.13-.82,.18-1.65,.26-2.48,.01-.12,0-.29,.05-.34,1.88-1.23,.23-2.71,.15-4.23l-1.6,1.35c-.57-.87-.41-1.68,.5-2.4l-1.23-3.54,.33-.13c.17,.33,.34,.66,.52,.99,.51,.91,.99,1.84,1.57,2.7,.1,.15,.73,.11,.98-.06,1.22-.79,2.41-1.63,3.58-2.49,.22-.16,.27-.53,.4-.8,1.56,.38,1.9,.93,1.34,2.1q1.47,.32,1.08,3.61l1.11-.32c-.67,1.16-1.22,2.23-1.88,3.22-.39,.58-1.26,.85-.93,1.85,.06,.17-.52,.79-.79,.78-1.11-.06-.99,.7-1.17,1.39-.27,1.06-.74,2.07-1.07,3.12-.33,1.03-.61,2.09-.99,3.41Zm.4-6.73c-.8,0-1.5-.04-2.18,.03-.15,.01-.27,.38-.4,.58,.44,.25,.5,1.17,1.36,.7,.26-.14,.67-.02,1.07-.02l.15-1.28Z"/><path class="cls-1" d="M95.51,104.83c.29,.22,.55,.5,.87,.63,.45,.18,.94,.23,1.41,.34-.02-.46,.06-.95-.08-1.37-.41-1.26-.9-2.5-1.42-3.92l1.98-.14c.21-.46,.49-.89,.62-1.36,.38-1.38,.7-2.78,1.04-4.17,.21-.83,.42-1.67,.63-2.5l.35,.06c0,2.17,.03,4.34,0,6.5-.06,3.65,.36,7.25,1.33,10.77,.76,2.74,.77,2.74-1.74,3.83-.36,.15-.7,.32-1.04,.48-1.51-1.69-2.14-4.52-5.37-3.89l.95-1.06-1.63-.39c-.64-.66-.71-1.57,.05-2.63,.37-.51,.49-1.19,.74-1.82l1.34,.66h-.03Z"/><path class="cls-1" d="M111.87,141.6c1.33,3.69,2.74,7.61,4.15,11.54l-.36,.31c-.82-.33-1.66-.6-2.45-.99-.71-.35-1.37-.81-2.04-1.24-.55-.35-.55-1.27,0-1.74,.42-.36,.86-.7,1.45-1.18-2.01-.47-3.7-1.36-5.72-.56-.62,.25-1.6-.4-2.53-.67l.51-1.21c.14-.02,.25-.07,.29-.04,.58,.47,.9,.31,1.11-.38,.18-.56,.57-1.09,.63-1.66,.11-.96,.76-1.09,1.47-1.27,1.08-.27,2.15-.55,3.5-.9Z"/><path class="cls-1" d="M6.23,28.71s-.03,.08-.04,.12c.84-.95,1.8-1.28,3.12-1.02,.57,.11,1.3-.52,1.93-.81,.08,.64-.7,1.24-2.44,1.76,1.76,.07,1.48,1.6,1.93,2.54,1.05,2.21,1.96,4.43,2.32,6.95,.33,2.24,.1,4.3-.53,6.3-.51,1.61-1.04,3.39-2.61,4.72-.49-1.53-1.13-2.82,.16-4.08,.71-.69,.64-1.57,.34-2.46-.37-1.08-.75-2.17-1.04-3.27-.19-.71-.04-1.34,.81-1.61,.6-.19,1.18-.47,1.87-.75-.04-1.59-.59-3.05-1.45-4.4-.12-.19-.56-.4-.68-.32-.96,.61-1.28-.17-1.84-.68-.7-.65-1.57-1.12-2.5-1.76l.64-1.22Z"/><path class="cls-1" d="M21.31,118.9c-.32,.41-.98,.96-.89,1.2,.45,1.14,1.18,2.13,2.46,2.46,.21,.06,.51-.22,.7-.3-.01,1.04-.39,1.32-1.42,.93l1.2,1.45-2.04,.89,.29,2.61,1.59-.78,.17,.22c-.21,.23-.42,.48-.65,.7-1.02,.96-2.04,1.91-3.11,2.91l-1.34-1.58,.74-.84,.65,1.65,.29-.04c-.06-.53,.08-1.29-.22-1.56-1.5-1.34-.5-2.88-.49-4.33,0-.92,.13-1.85,.22-2.97-1.19,.32-1.21,.93-.74,1.89l-3.74-.46-.04-.27c.26-.14,.5-.39,.77-.41,2.32-.23,3.06-1.98,3.72-3.81,.16-.45,.27-.92,.36-1.39,.14-.79-.39-1.25-.94-1.12l-1.64-1.37c.19-1.14,.47-1.29,1.64-.94,.63,.19,1.3,.24,1.87,.34l.3,2.13-1.07,1.55,1.63-.21-.32,1.47,.03-.03Z"/><path class="cls-1" d="M107.62,97.04c-.16,1.02-.31,2.03-.48,3.05-.22,1.29-.44,2.59-.7,4.07-2.49-1.18-1.89,.84-2.33,1.83-.98-5.1-1.85-10.13-1.43-15.29,.1,.03,.23,.04,.24,.06,.12,1.97,.24,3.94,.35,5.9,.04,.78-.05,1.63,.88,1.84,.51-.31,.93-.69,1.42-.83,1.56-.43,1.83-1.09,.91-2.64l-1.08,.66c-1.21-.93,.1-1.62,.21-2.46-.68-.45-1.2-1.48-2.29-.5v-1.71c.4-.09,.91-.06,1.16-.3,.62-.6,1.1-.44,1.66,.02,.55,.46,.75,.91,.34,1.63-.24,.43-.17,1.03-.24,1.56l.5,.19c.34-.48,.89-.92,.97-1.44,.16-1.03,.06-2.1,.07-3.15,0-.16-.09-.36-.02-.46,.81-1.13,1.63-2.24,2.46-3.36l.31,.21c-.26,.77-.52,1.53-.77,2.3l.03-.03c-.99,.28-1.13,1.08-1.24,1.94-.13,1.05-.11,2.2-.55,3.12-.62,1.3-.35,2.57-.4,3.85l.02-.07Z"/><path class="cls-1" d="M72.94,80.66c-.37,.4-.67,.95-1.13,1.17-1.2,.58-2.46,1.02-3.67,1.6l1.94-.26,.05,.55c-1.39,.44-2.85,.28-4.39,.15,.05-1.06-1.56-1.89-.03-3.28-.95-.06-1.6-.09-2.25-.13-.67-.04-1.35-.05-2.01-.15-.9-.12-1.21-.62-.89-1.52,.35-1.01,.63-2.05,.92-3.08,.18-.64,.52-.85,1.23-.8,.84,.07,1.71-.08,2.7-.14-.14-.74-.71-.92-1.42-.93l.03,.03c-.08-.88,.43-1.1,1.26-1.07,.85,2.48,1.73,4.96,2.53,7.46,.09,.28-.21,.7-.37,1.04-.2,.44-.44,.87-.81,1.6,.66-.24,1-.4,1.36-.48,.36-.07,.73-.06,1.08-.08l1.9-2.58c.63,.73,1.04,1.59,2,.9l-.02-.02Zm-7.94-.68c.92,.04,2.1,0,1.88-.93-.29-1.22-1.28-2.28-2.08-3.6,.07,1.67,.14,3.08,.2,4.52Z"/><path class="cls-1" d="M7.86,80.3c1.13,1.33,2.14,2.78,3.41,3.96,1.36,1.27,2.49,2.76,3.9,3.8-1.45,.33-2.87,.59-4.23,1-.37,.11-.6,.68-1.01,1.19l-1.7-2.99,4.22-.85,.04-.34c-.27-.19-.55-.56-.81-.54-1.08,.07-2.05-.86-3.21-.28-.24,.12-.99-.19-1.08-.44-.73-2.16-2.31-4.04-2.17-6.49,.01-.18,.05-.36,.11-.75l2.58,2.78-.04-.04Z"/><path class="cls-1" d="M64.26,52.84l.69,.11-1.92,5.33c-1.22-.58-1.33-.53-1.96,.68-.09,.17-.7,.3-.78,.21-.65-.79-1.24-1.64-1.93-2.59l.91-.26,.83-3.5-1-.28c.18-.09,.28-.15,.38-.2,.79-.39,1.57-.77,2.36-1.17,.48-.24,.96-.5,1.44-.76,.32,.68,.65,1.35,.96,2.03,.04,.1,.02,.23,.02,.4Z"/><path class="cls-1" d="M74.7,58.64c.99,.58,1.98,.86,1.29,2.12-.05,.1-.08,.23-.07,.35,.1,1.56,.21,3.13,.31,4.59l1.47,.87-.1,.14-4.61-.99-.2,.6c.55,.26,1.1,.54,1.66,.77,.29,.12,.79,.03,.9,.21,.23,.38,.38,.89,.31,1.31-.03,.2-.71,.51-.98,.42-.71-.26-1.4-.64-2.01-1.1-.28-.21-.36-.69-.5-1.06-.17-.43-.31-.86-.51-1.44l1.72,.16c-.75-1.27-1.44-2.44-2.13-3.61,.62-.85,1.12-2.08,2.33-.73,1.3-.42,1.12-1.45,1.12-2.62Z"/><path class="cls-1" d="M8.19,107.32c-.51-.86-.75-1.33,.31-1.67,.55-.18,.82-1.17,1.28-1.73,.28-.33,.66-.62,1.06-.81,.48-.23,1-.37,1.52-.5,.23-.06,.49,0,.74,0-.11,.22-.18,.59-.32,.62-1.47,.32-.99,.97-.35,1.71,.22,.26,.31,.63,.52,.92,.17,.24,.42,.42,.64,.63,0-.32,.04-.63,.01-.94-.02-.19-.13-.36-.19-.5l1.7-1.53c-1.48-.67-.73-1.74-.57-2.67,.04-.24,.44-.41,.52-.48,.44,.94,.82,1.69,1.14,2.48,.1,.26,.14,.65,0,.87-1.18,1.99-2.58,3.79-4.65,4.93-.41,.22-1.02,.27-1.48,.15-1.3-.32-2.56-.76-3.84-1.16v-.31h1.95Zm3.46-1.16l-.31-.54c-.24-.18-.6-.57-.71-.51-.29,.16-.6,.5-.65,.8-.03,.19,.39,.63,.63,.64,.34,.02,.69-.24,1.04-.39Z"/><path class="cls-1" d="M72.68,68.67l-1.01,2.46c-.06-.54-.19-1.04-.16-1.53,.05-.76-.38-.97-.98-1.08-.61-.11-.95,.1-1.12,.73-.23,.86-.56,1.69-.81,2.43l-4.09-1.56,1.55-1.74c-.15-1-.32-2.05-.47-3.09-.02-.11,.04-.23,.09-.33,.45-.9,.89-1.81,1.37-2.69,.13-.24,.4-.39,.61-.59,.13,.21,.3,.41,.39,.63,.1,.25,.23,.56,.16,.77-.47,1.28-.07,2.25,.95,3.04,.06,.05,.13,.12,.15,.19,.39,2.01,2.12,2.09,3.39,2.36Z"/><path class="cls-1" d="M8.24,50.11l-1.6-3.36-.24,.1,.68,3.2c-.94,.15-1.99,.36-3.05,.44-.15,.01-.5-.57-.51-.89-.1-2.23-.18-4.45-.18-6.68,0-.54,.33-1.07,.5-1.61l.49-.1,4.47,8.54-.58,.36Z"/><path class="cls-1" d="M127.8,75.08c-.51,.28-1.11,.89-1.53,.79-2.15-.55-4.26-.4-6.44-.29-1.73,.09-3.5-.43-5.32-.68v1.35c-.73-.34-1.34-.46-1.72-.83-.91-.88-1.49-.85-2.09,.25-.54,.99-1.11,1.98-1.67,2.97l-.33-.16c.48-.92,.98-1.83,1.44-2.76,.35-.72,1.28-1.29,.66-2.32-.06-.1,.13-.48,.28-.54,.3-.13,.72-.28,.97-.17,3.35,1.55,6.92,1.93,10.55,2.05,.74,.03,1.47,.29,2.22,.35,.5,.04,1.01-.09,1.52-.09,.5,0,1,.08,1.5,.12l-.03-.03Z"/><path class="cls-1" d="M143.35,78.88l-.22-3.31,.23-.15,2.99,3.27-.16,.33-2.3-1.15c.28,.56,.37,1.11,.67,1.25,1.05,.54,2.17,.94,3.26,1.39,.89,.36,1.59,.25,2.13-.66,.25-.42,.72-.72,1.3-1.27-1.13,2.01,1.54,1.64,1.43,3.06l-2.49-1.22-.1,.29c1.83,1.14,3.66,2.28,5.5,3.42l-.02-.03-2.06,1.77c-.23-.73,.98-1.61-.22-2.19-.73-.36-1.48-.69-2.23-1.01-.55-.23-1.09-.48-1.66-.64-.51-.15-1.05-.19-1.65-.3l-.68-1.09-.34,.12-.39,1.14-.35-1.23c-1.05,.75-1.38-.1-1.82-.69-.29-.38-.55-.77-.83-1.16l.03,.04Z"/><path class="cls-1" d="M57.79,65.49c-.45-1.52,1.18-1.64,1.65-2.67,.78,.49,1.51,.87,2.15,1.38,.2,.16,.3,.66,.22,.95-.4,1.36-.9,2.68-1.3,4.03-.11,.38-.02,.82-.02,1.49l-1.11,.62c-.87-2.04-2.65-3.96-.8-6.49l-.83,.66,.03,.03Z"/><path class="cls-1" d="M33.31,95.75c-2.65,.98-2.68,1-2.92,3.17h-3.25c-.01-.26-.09-.47-.02-.62,.67-1.47,.55-2.68-.98-3.57-.25-.15-.3-.64-.33-1.1,2.45,.69,5.1,.46,7.51,2.12Z"/><path class="cls-1" d="M120.6,128.95c0-.26-.02-.76,.02-.76,1.25-.16,.94-1.18,1.15-1.95,.24-.92,.73-.92,1.47-.35,.83,.65,1.58,1.6,2.91,1.31,.22-.05,.65,.35,.82,.64,.26,.45,.41,.97,.55,1.48,.06,.2,.04,.47-.06,.65-.05,.09-.39,.14-.52,.07-1.39-.8-2.94-.33-4.27-.13-1.24,.19-1.65-.21-2.12-1.04l.06,.08Z"/><path class="cls-1" d="M51.25,56.59c.86-.46,1.72-.94,2.59-1.37,.65-.32,1.18-.18,1.35,.6,.14,.62,.19,1.26,.34,1.87,.14,.6,.17,1.36,.55,1.74,.72,.73,.47,1.25-.05,1.82-.39,.43-.86,.8-1.26,1.15-.44-.52-.83-1-1.23-1.47,.26,.06,.52,.12,.78,.18l.26-.36c-.55-.6-1.07-1.23-1.66-1.79-.73-.69-1.92-1.06-1.64-2.43l-.04,.04Z"/><path class="cls-1" d="M107.63,57.96l-1.75,.1c1.51-.03,2.68,.6,3.3,1.91-2.28,.36-3.07,2.47-4.09,4.42-1.17-1.16-.61-2.61-.72-3.88-.09-1.15-.46-2.6,1.24-3.25l-.22-.27-1.67,.47c.08-1.4,2.04-.95,3.9,.51Z"/><path class="cls-1" d="M65.37,125.27l-.68,.49-.35-.09c.31-1.39,.61-2.78,.97-4.15,.04-.14,.53-.32,.66-.23,.33,.22,.8,.56,.8,.86,0,1.42-.12,2.84-.2,4.26-.07,1.37-.14,2.73-.21,4.1l.32,.08-1.7,1.33c-.03-.56-.18-1.06-.04-1.17,.61-.45,.38-.92,.11-1.35-.73-1.13-.78-2.21,.08-3.3,.11-.14,.11-.36,.24-.83Z"/><path class="cls-1" d="M117.1,130.2c2.12,2.31,4.2,4.58,6.24,6.81-.61,.23-1.47,.59-2.35,.88-.22,.07-.64,0-.74-.15-1.52-2.27-3.39-4.4-3.21-7.41,0-.03,.03-.07,.06-.13Z"/><path class="cls-1" d="M80.55,119.9l2.6-7.1,.53,1.4,1.19-.42c-.47,1.91-.88,3.64-1.33,5.36-.05,.19-.27,.46-.44,.49-.84,.13-1.69,.19-2.55,.28Z"/><path class="cls-1" d="M61.02,196.3l.88-2.32c1.88,.52,3.69,.9,5.43,1.53,1.18,.42,1.18,.73,.78,2.06-2.31-.41-4.62-.83-7.09-1.27Z"/><path class="cls-1" d="M18.04,80.15l3.72,4.3-.24,.31-1.88-.59-2.95,1.28c0-1.23,.05-2.13-.01-3.03-.07-.96-.12-1.86,1.36-2.26Z"/><path class="cls-1" d="M58.12,132.49l-1.35,8.76c-.85-.26-1.58-.46-2.28-.72-.6-.22-.83-.67-.35-1.2,.79-.88,1.7-1.66,2.4-2.6,.33-.44,.37-1.15,.42-1.74,.07-.89-.1-1.85,1.17-2.49Z"/><path class="cls-1" d="M192.05,132.48c-.54,.37-1.11,.71-1.62,1.12-.77,.61-1.49,1.27-2.21,1.88-.51-1.23-1.01-2.44-1.64-3.96l1.81,.15c.73-1.01,2.04-.94,2.76,.33,.14,.25,.59,.32,.9,.48h0Z"/><path class="cls-1" d="M68.94,128.04c.52-.93,.99-1.83,1.52-2.7,.9-1.47,1.66-1.71,4.49-1.39-.83,1.11-1.57,2.1-2.32,3.1-.05,.06-.1,.15-.16,.17-1.15,.27-2.3,.54-3.53,.82Z"/><path class="cls-1" d="M84.5,91.96l.59-2.56c.95,.2,1.78,.44,2.63,.52,.85,.09,1.72,.02,2.59,.02l.13,.3c-.84,.53-1.63,1.21-2.54,1.55-.98,.37-2.09,.43-3.14,.62l-.25-.45Z"/><path class="cls-1" d="M106.34,140.67l-1.38-1.08-.74,.65c-1.06-1.29-.91-2.07,.36-3.09,.74-.6,1.32-1.41,2.14-2.31-.12,1.89-.24,3.71-.37,5.84Z"/><path class="cls-1" d="M68.91,27h2.23l.04-.18-3.77-.87c1.44-.19,2.85-1.5,4.32-.05,.24,.24,.84,.06,1.25,.19,.37,.12,.99,.38,.99,.58,0,.55-.11,1.27-1,1.11-1.36-.25-2.72-.52-4.09-.79h.02Z"/><path class="cls-1" d="M217.23,125.65l-.47-1.58,1.46,.51-.46-1.17c1.79,.74,2.62,2.03,1.75,4.09-1.43-.63-2.85-1.26-4.27-1.9l.13-.42,1.86,.46Z"/><path class="cls-1" d="M25.82,138.32c-.24-.11-.55-.16-.69-.34-.57-.7-1.21-.58-1.91-.26-2.42,1.1-4.83,2.2-7.26,3.28-.5,.22-1.05,.35-1.75,.39,.38-.37,.7-.91,1.16-1.09,2.54-1.02,5.11-1.94,7.66-2.92,.92-.35,1.81-.64,2.65,.16,.13,.13,.23,.3,.34,.45l-.2,.33Z"/><path class="cls-1" d="M92.61,126.08c-.34,.38-.63,.84-1.03,1.13-.8,.58-1.56,.31-1.94-.57-.17-.38-.46-.71-.75-1.16,.05-.12,.14-.33,.21-.55,.08-.22,.15-.45,.22-.67,1.54-.2,2.31,.91,3.25,1.72,.02,.05,.03,.09,.04,.1Z"/><path class="cls-1" d="M63.98,73.84c-.55,.26-1.07,.69-1.64,.76-1.45,.2-2.04,.93-2,2.31,.03,1.03-.26,2.07-.41,3.11l-.59,.04c-.14-.46-.51-.98-.39-1.37,.7-2.32,1.07-4.86,3.78-6.36l-.37,1.66c.5-.04,1.08-.09,1.66-.13l-.03-.03Z"/><path class="cls-1" d="M39.82,98.23l-3.19-.6c-.2-.6-1.07-1.43,.62-1.76,.39-.07,.62-.79,1.01-1.12,.31-.26,.74-.39,1.12-.57,0,.46,.18,1,0,1.37-.44,.9-.64,1.7,.44,2.67Z"/><path class="cls-1" d="M120.6,128.95l-.06-.08c.54,1.13,1.08,2.27,1.68,3.52-.3-.25-.56-.47-.81-.7-1.07-1-1.24-.98-2.04,.28l-1.55-1.91c1.25-1.54,1.77-1.74,2.78-1.12Z"/><path class="cls-1" d="M116.5,112.93l-1.14,.38,1.36,.92,.05,.4c-.48,.09-1,.35-1.43,.24-.7-.18-1.36-.56-1.99-.95-.14-.09-.18-.68-.05-.8,.48-.45,1.05-.8,1.54-1.16l1.65,.97Z"/><path class="cls-1" d="M171.79,129.48l1.33-.37-1.07-.25v-.32c2.61-.12,5.23-.23,7.85-.35l.04,.42c-2.7,.37-5.4,.75-8.09,1.12l-.06-.25Z"/><path class="cls-1" d="M163.77,119.56c-.93,.63-1.61,1.32-2.76,.88-.35-.14-.91,.26-1.56,.47,.05,.06-.06-.07-.18-.21l1.33-.99q-1.11-.9,.52-2.06,.23,.89,2.65,1.9Z"/><path class="cls-1" d="M210.53,130.07c-.9-.12-1.58-.09-2.16-.32-.49-.19-.86-.68-1.27-1.03,.87-.83,.83-1.06-.47-1.63,.99-1.01,1.61-.56,3.91,2.98Z"/><path class="cls-1" d="M35.74,143.19l-.88-1.5-.17,.91c-1.46-.44-1.66-.96-.97-2.11,.15-.26-.07-.74-.15-1.31,1.09,.83,1.56,2.26,3.5,2.12l-1.36,1.87,.03,.03Z"/><path class="cls-1" d="M114.11,140.76c-.72-2.28-1.93-4.3-2.27-6.87,1.87,1.65,3.15,5.57,2.27,6.87Z"/><path class="cls-1" d="M21.14,92.97c-.05,.08-.11,.3-.22,.33-.87,.2-1.76,.53-2.62,.48-.65-.04-1.28-.56-1.87-.94-.1-.07,.04-.52,.07-.79,.41,.07,.86,.05,1.22,.22,.68,.31,1.25,.52,1.98,.03,.64-.43,1.49,.01,1.43,.68Z"/><path class="cls-1" d="M9.33,138.1c.13-.7,.21-1.42,.45-2.07,.05-.15,.72-.12,1.09-.08,.95,.1,1.89,.24,2.82,.4,.07,.01,.09,.32,.11,.41-.91,.11-1.74,.22-2.69,.34,.18,1.43-1.17,.62-1.82,.98l.04,.03Z"/><path class="cls-1" d="M32.52,104.42c.39,1.49,.71,2.65,1,3.82,.16,.63-.06,1.19-.75,1.19-.27,0-.73-.51-.79-.85-.23-1.32-.53-2.7,.53-4.16Z"/><path class="cls-1" d="M71.61,55.88c.68,.66,.42,1.2-.23,1.67-.75,.54-1.49,1.09-2.26,1.6-.16,.11-.44,.05-.73,.07,.85-1.25,2.24-2.23,1.13-4.34,.89,.42,1.51,.72,2.13,1.02l-.03-.03Z"/><path class="cls-1" d="M46.46,81.74v4.4c-.36-.09-.9-.18-1.4-.37-.2-.08-.48-.43-.44-.57,.32-1.04,.7-2.06,1.09-3.08,.04-.1,.26-.14,.75-.37Z"/><path class="cls-1" d="M62.47,97.4c.29-.52,.47-1.3,.89-1.48,.68-.27,1.53-.2,2.29-.13,.16,.02,.48,.79,.36,.96-.25,.36-.72,.72-1.14,.78-.66,.09-1.36-.06-2.41-.14Z"/><path class="cls-1" d="M103.62,48.14l-.16,2.47-1.42-.1v-3.79l1.58,1.42Z"/><path class="cls-1" d="M51.29,56.55c-.28,1.37,.9,1.74,1.64,2.43,.59,.56,1.11,1.19,1.66,1.79l-.26,.36c-.26-.06-.52-.12-.78-.18-.13-.07-.25-.15-.37-.22-.98-1.17-1.96-2.34-3.05-3.65l1.16-.52Z"/><path class="cls-1" d="M14.27,82.81l-.65-1.76,.81,.55,.94-2.1v4.74c-.47-1.13-1.14-1.27-2.1-1.08-.32,.07-.8-.63-1.21-.97l.21-.26,1.99,.88Z"/><path class="cls-1" d="M89.54,147.64l-2.04-3.43c1.5,.03,2.78,.66,2.81,1.62,.02,.62-.51,1.25-.77,1.81Z"/><path class="cls-1" d="M74.47,117.9c-.08-2.25-.24-4.5-.19-6.75,.01-.64,.61-1.27,1.13-1.84-1.57,2.77-.08,5.75-.46,8.57h-.48Z"/><path class="cls-1" d="M115.85,75.56c.66,.05,1.39,.07,2.09,.2,.11,.02,.25,.64,.13,.87-.39,.8-.88,1.56-1.28,2.24l-.94-3.32Z"/><path class="cls-1" d="M50.68,127.96l.64-4.18c.52,.08,.89,.08,1.21,.21,.71,.3,.8,.98,.17,1.25-1.17,.49-1.45,1.33-1.48,2.42,0,.13-.16,.25-.24,.37l-.3-.07Z"/><path class="cls-1" d="M35.71,143.16c-.25,.23-.49,.63-.75,.65-.54,.03-1.13-.05-1.63-.25-1.2-.49-2.31-.75-3.23,.62,.43-1.52,.8-1.68,2.15-1.41,.69,.14,1.42-.01,2.13,.06,.46,.04,.9,.24,1.35,.38l-.03-.03Z"/><path class="cls-1" d="M102.61,167.15c-1.06,1.97-2.85,2.57-4.38,1.68-.23-.13-.35-.43-.53-.66,.27-.03,.57-.15,.79-.06,1.14,.43,2.21,.64,3.16-.4,.17-.19,.45-.27,.96-.56Z"/><path class="cls-1" d="M65.25,113.82v-1.59l-1.87,.41,.13-1.59,2.95,1.02-.96,1.93-.24-.18Z"/><path class="cls-1" d="M77.28,75.89h-3.12l-.24-.27c.36-.34,.66-.78,1.08-1.01,1.23-.67,1.61,.56,2.28,1.28Z"/><path class="cls-1" d="M56.78,115.53c-.34,0-1.11,.09-1.14-.01-.16-.65-.29-1.37-.16-2.01,.07-.34,.69-.57,1.07-.87l.22,2.89Z"/><path class="cls-1" d="M57.76,65.46c-.18,.98-.08,2.15-.6,2.91-.81,1.21,.49,1.75,.56,2.63l-.38,.17c-.31-.62-.78-1.21-.88-1.86-.13-.88,.03-1.8,.05-2.71,.02-.85,.4-1.26,1.28-1.12l-.03-.03Z"/><path class="cls-1" d="M56.16,117.11c.65-.13,.46-2.14,1.69-.78,.35,.38,1.1,.78,.44,1.46-1.18,1.21-1.34-.69-2.13-.69Z"/><path class="cls-1" d="M67.02,106.97c.5-1.06,1.32-1.21,3.21-.83-.07,.29-.19,.57-.2,.85,0,.27,.12,.53,.15,.65l-1.41,.91c.1-.38,.24-.73,.28-1.1,.04-.35-.01-.71-.03-1.06-.4,.06-.8,.1-1.18,.19-.2,.04-.38,.17-.82,.38Z"/><path class="cls-1" d="M136.65,75.55c-.46-.32-.89-.71-1.4-.95-.88-.42-1.8-.74-2.71-1.1l.13-.41,5.25,1.68c-.43,.25-.87,.5-1.31,.76l.03,.03Z"/><path class="cls-1" d="M101.45,52.59l1.95-.92c-.17,.67-.22,1.2-.45,1.64-.18,.35-.57,.59-.87,.88-.21-.34-.46-.67-.62-1.04-.09-.2-.02-.47-.02-.57Z"/><path class="cls-1" d="M68.89,94.51c.89-1.28,3.47-2.15,5.43-1.85l-5.43,1.85Z"/><path class="cls-1" d="M14.88,126.71c.21,.45,.64,.93,.6,1.35-.09,.74-.47,1.44-1.73,1.3l.61-2.54,.53-.11Z"/><path class="cls-1" d="M101.56,117.84l-.85-1.97,.19-.33c.57,.28,1.19,.5,1.69,.87,.21,.15,.34,.83,.24,.91-.34,.26-.81,.35-1.27,.52Z"/><path class="cls-1" d="M3.02,79.54c1.04-.43,.89-1.77,1.56-2.8,.04,.26,.19,.57,.1,.76-.66,1.4-.52,2.78-.06,4.23l-1.61-2.19Z"/><path class="cls-1" d="M63.17,69.95c-.12-.66-.4-1.25-.22-1.49,.39-.53,1.01-.89,1.54-1.31,.11,.27,.4,.66,.31,.8-.4,.61-.91,1.15-1.63,2Z"/><path class="cls-1" d="M7.9,80.34l-1.17-2.34c1.51,.03,1.84,.43,2.32,2.72-.44-.15-.82-.28-1.19-.42l.04,.04Z"/><path class="cls-1" d="M40.05,68c.39,1.17-.64,2.81,1.43,3.03-1.04,.52-1.45,.35-2.23-.89-.62-1,.08-1.49,.8-2.14Z"/><path class="cls-1" d="M95.79,190.48l2.06-2.1-.2-.25,1.5,.46c-1.15,.65-2.28,1.28-3.36,1.89Z"/><path class="cls-1" d="M192.05,132.47c.64-.09,1-.34,.9-1.1-.04-.26,.24-.76,.47-.83,.9-.29,1.84-.45,2.83-.55l-2.74,1.38,.33,1.11c-.61,0-1.2,0-1.78,0h0Z"/><path class="cls-1" d="M95.54,104.84c-.69-.57-.64-2.12,.12-2.59,.18-.11,.57-.09,.72,.04,.15,.12,.26,.52,.17,.69-.3,.64-.7,1.23-1.05,1.84,0,0,.03,.01,.03,.01Z"/><path class="cls-1" d="M62.2,116.77l-1.04,2.27-.49-.11-.31-1.91,1.52-.48,.32,.23Z"/><path class="cls-1" d="M171.75,137.03c1.11-.73,1.96-1.29,2.81-1.84l.16,.2-.67,.59-.18,1.65-2.12-.6Z"/><path class="cls-1" d="M77.75,69.6c1.04,.49-.18,1.84,1.24,1.69l-1.39,1.74-.3-.06,.44-3.37Z"/><path class="cls-1" d="M3.56,107.47c-1.69,1.15-.5-1.55-1.56-1.39,.57,.15,1.22,.17,1.7,.47,.6,.38,.66,1.12,.31,2.03l-.45-1.11Z"/><path class="cls-1" d="M79.36,35.91l1.96,3.66h-1.29c-.22-1.24-.43-2.46-.65-3.69l-.02,.02Z"/><path class="cls-1" d="M155.57,84.16c.32-.19,.76-.61,.95-.52,1.23,.59,2.41,1.3,3.6,1.97l.02-.03c-1.53-.48-3.06-.96-4.58-1.44l.02,.03Z"/><path class="cls-1" d="M41.16,72.55c.66-.27,1.2-.58,1.78-.68,.23-.04,.54,.36,.82,.56-.92,1.11-1.71,1.15-2.6,.12Z"/><path class="cls-1" d="M87.66,80.23c.28-.21,.6-.62,.81-.57,.5,.11,1.07,.35,1.39,.72,.18,.21-.1,.8-.19,1.31l-2.02-1.46Z"/><path class="cls-1" d="M164.42,139.69c-1.17,.78-2.68,1-3.36,.49q2.91-.97,3.36-.49Z"/><path class="cls-1" d="M51.18,107.62c1.5,.23,1.67,.58,1.03,2.07-1.08-.3-1.47-.92-1.03-2.07Z"/><path class="cls-1" d="M68.58,99.13l1.61,1.7-.09,.32c-.58-.16-1.24-.2-1.71-.52-.26-.18-.18-.83-.26-1.26l.45-.24Z"/><path class="cls-1" d="M12.73,6.19c1.37-.1,1.85,1.03,.98,2.92l-.98-2.92Z"/><path class="cls-1" d="M39.15,65.66c.03,1.35-1.12,1.47-1.95,1.82-.19,.08-.63-.41-.86-.58l2.82-1.24Z"/><path class="cls-1" d="M21.24,20.1l1.5,.97-1.54,1.42-.33-.22,.37-2.17Z"/><path class="cls-1" d="M106.13,71.28l1.81-1.29,.29,.38c-.16,1.07-1.18,1.26-2.07,1.81,0-.41,0-.68,0-.94l-.03,.04Z"/><path class="cls-1" d="M93.37,71.27c0-.82-.03-1.36,.02-1.9,.02-.19,.17-.42,.34-.54,.08-.06,.4,.06,.47,.18,.2,.34,.56,.87,.44,1.07-.28,.46-.8,.78-1.26,1.18Z"/><path class="cls-1" d="M186.65,125.59c-.06-.3-.11-.54-.1-.52,1.9-.36,3.72-.7,5.53-1.04l.06,.25-5.49,1.32Z"/><path class="cls-1" d="M59.76,51.48l-.6-1.82,.32-.32c.41,.28,1.03,.48,1.18,.87,.13,.35-.24,.89-.39,1.35l-.5-.07Z"/><path class="cls-1" d="M72.96,80.68l-.34-1.44c.64-.13,1.24-.32,1.83-.32,.26,0,.52,.37,.77,.58-.19,.18-.36,.47-.58,.52-.21,.05-.48-.15-.93-.31-.15,.18-.47,.56-.77,.95l.02,.03Z"/><path class="cls-1" d="M182.15,126.67l2.74-1.36,.23,.45c-.72,.82-1.78,1-2.73,1.37l-.24-.46Z"/><path class="cls-1" d="M69.29,72.79c.58,.07,1.25-.01,1.7,.26,.26,.16,.15,.9,.25,1.71l-2.04-1.64,.09-.33Z"/><path class="cls-1" d="M148.02,181.42l-1.69,.32v-.94l1.43-.89,.26,1.51Z"/><path class="cls-1" d="M49.24,104.89l-1.25-.35,.41,1.38-.28,.11-.83-2.11c1.8-.23,1.86-.2,1.95,.96Z"/><path class="cls-1" d="M70.12,96.82v-1.74c.34,.06,.85,0,1,.2,.62,.81-.18,1.13-.6,1.56l-.4-.02Z"/><path class="cls-1" d="M153.32,113.95c-.7-1-.69-1.31,.03-2.04,1.13,1.24,1.13,1.29-.03,2.04Z"/><path class="cls-1" d="M59.08,111.71l1.29,.32c.08,1.31-1.13,1-1.85,1.58l.56-1.9Z"/><path class="cls-1" d="M103.75,122.8c-.07-.86-.24-1.66,1.12-1.78-.04,.62-.05,1.21-.16,1.77-.01,.06-.61,0-.95,0Z"/><path class="cls-1" d="M65.41,200.58c-1.23,1.08-2.37,1.25-3.26,.46,1.11-.16,2.1-.3,3.26-.46Z"/><path class="cls-1" d="M95.02,147.63l-1.66-1.42h2.71l-1.05,1.42Z"/><path class="cls-1" d="M3.74,32.46c.45,.94,.63,1.9,.21,3.09-.79-.7-1.14-1.28-.46-2.15,.19-.25,.19-.64,.28-.97l-.02,.03Z"/><path class="cls-1" d="M147.38,116.72l1.36,.45,.36-1.26c.53,.78,.32,1.55-.35,1.93-.71,.39-1.08-.25-1.37-1.12Z"/><path class="cls-1" d="M83.85,104.84l-2.75-1.7,.3-.47,2.7,1.79-.25,.39Z"/><path class="cls-1" d="M97.95,126.96l.75-1.93,.38,.15c-.05,.72,.36,1.61-.6,1.99l-.54-.21Z"/><path class="cls-1" d="M90.92,61.37c.63,.22,1.27,.41,1.88,.68,.14,.06,.18,.36,.27,.55-.2,.08-.46,.29-.58,.23-.61-.32-1.18-.71-1.76-1.08l.19-.38Z"/><path class="cls-1" d="M117.58,137.95l-1.55-3.62,.38-.16,1.64,3.63-.47,.15Z"/><path class="cls-1" d="M25.84,158.14c-1.21,.33-2.43,.66-3.64,.99l-.1-.3,3.6-1.12,.13,.43Z"/><path class="cls-1" d="M103.39,131.26l2.41,1.07-1.74,.69-.66-1.76Z"/><path class="cls-1" d="M10.46,101.7c.38-.31,.74-.68,1.17-.89,.13-.06,.48,.36,.73,.56l-1.47,.93-.43-.6Z"/><path class="cls-1" d="M7.26,132.21l-1.15-.2c.63-1.64,1.41-2,2.55-1.14-.61,.32-2.28-.52-1.4,1.34Z"/><path class="cls-1" d="M99.18,127.54l1.25,.9-1.53,1.39,.28-2.28Z"/><path class="cls-1" d="M155.24,121.84c-.53-.19-1.08-.37-1.59-.61-.05-.02,.11-.47,.17-.72l1.68,.72-.26,.61Z"/><path class="cls-1" d="M9.29,138.07l-.05,.97c-.3-.07-.65-.05-.88-.21-.36-.27-.64-.66-.75-1.18,.57,.15,1.15,.31,1.72,.46l-.04-.03Z"/><path class="cls-1" d="M40.56,64.96c.38-.31,.73-.69,1.17-.89,.19-.08,.55,.22,1.14,.49l-1.97,.89-.34-.49Z"/><path class="cls-1" d="M174.82,134.11l-3.97,1.86-.14-.3,3.98-1.84,.13,.28Z"/><path class="cls-1" d="M5.55,39.54l.7,1.99-.47,.19-.84-1.96,.61-.22Z"/><path class="cls-1" d="M66.55,55.42c.56,1.6-.45,1.95-1.04,2.56l-.29-.16,1.32-2.4Z"/><path class="cls-1" d="M41.73,97.2l-.57,1.1-1.18-.62-.06-.34,1.7-.52,.13,.37Z"/><path class="cls-1" d="M3.76,32.43l-1.4-3.91,.53-.15c.29,1.36,.57,2.72,.85,4.08l.02-.03Z"/><path class="cls-1" d="M154.74,117.85l3.35-1.05,.1,.32-3.31,1.21-.15-.48Z"/><path class="cls-1" d="M28.49,134.75c-.24,1.47-.89,1.91-2.04,1.76l2.04-1.76Z"/><path class="cls-1" d="M145.95,120.41l.06-1.29,.48,.87,.39-.29-.17-1.04,.24-.08c.11,.44,.4,.94,.29,1.3-.11,.33-.66,.52-1.02,.77l-.29-.25Z"/><path class="cls-1" d="M69.31,115.64l1.75-2.57,.36,.25-1.75,2.55-.36-.22Z"/><path class="cls-1" d="M109.51,128.44l1.05,2.85-.38,.15-1.2-2.84,.53-.15Z"/><path class="cls-1" d="M70.32,64.77l.2-1.08,.33-.15,.68,.98-.92,.5-.28-.25Z"/><path class="cls-1" d="M65.5,159.75l.42-3.95,.27,.03c-.12,1.32-.23,2.64-.35,3.96l-.35-.03Z"/><path class="cls-1" d="M18.66,131.48h-3.98v-.31c1.34,.06,2.67,.12,3.99,.18v.13Z"/><path class="cls-1" d="M10.35,112.73l.03-.09-.35,.46-.3-.05,.21-2.03,.84,.37-.43,1.35Z"/><path class="cls-1" d="M64.05,65.5l-1.67-.85,.18-.43,1.79,.6-.3,.68Z"/><path class="cls-1" d="M32.53,93.21l-.84-1.2,2.85,.25v.35c-.69,.17-1.76-.93-2,.6Z"/><path class="cls-1" d="M1.2,25.21l-.83-2.46,.47-.15,.8,2.45-.44,.16Z"/><path class="cls-1" d="M64.25,115.62l-1.78,1.42c-.09-1.42,.37-1.83,1.78-1.42Z"/><path class="cls-1" d="M106.7,67.44l1.67,.9c-.49,.2-.9,.48-1.01,.39-.36-.28-.62-.7-.92-1.07l.25-.22Z"/><path class="cls-1" d="M108.2,155.01l-.37-1.78c1.18,.43,1.3,.94,.37,1.78Z"/><path class="cls-1" d="M14.51,123.2l-.25,1.59-.99-.09,.92-1.65,.31,.15Z"/><path class="cls-1" d="M1.87,122.87l-1.57,3.03-.31-.15,1.53-3.09,.34,.22Z"/><path class="cls-1" d="M21.28,118.93c.98-.17,1.74,.03,1.9,1.49-.72-.58-1.29-1.05-1.87-1.52l-.03,.03Z"/><path class="cls-1" d="M43.12,16.39l3.33,.46-.05,.42-3.33-.52,.05-.35Z"/><path class="cls-1" d="M109.99,61.33c-.35,.06-.74,.23-1.04,.14-.22-.07-.33-.5-.28-.96l1.26,.41,.05,.41Z"/><path class="cls-1" d="M159.61,143.28l1.61-1.27-.32,1.5h-1.16l-.13-.23Z"/><path class="cls-1" d="M26.58,147.75l1.34-1.59,.43,.36-1.35,1.6-.41-.37Z"/><path class="cls-1" d="M73.67,150.24l-1.04-.71,1.24-.67,.61,.72-.81,.66Z"/><path class="cls-1" d="M157.61,173.26l-1.04,.27,.06,.67-.23,.12-.82-1.3,2-.1,.04,.34Z"/><path class="cls-1" d="M14.33,15.62c-.57-.26-.96-.57-1.37-.61-1.09-.1-1.09-.05-1.46-1.4,.83,.01,1.19-1.63,2.27-.6,.91,.87,1.04,2.09,.56,2.61Z"/><path class="cls-1" d="M112.47,102.12c-.52-1.2-1.01-2.19-1.36-3.22-.14-.4,0-.92,.11-1.36,.04-.17,.31-.28,.47-.42,.16,.19,.42,.36,.46,.57,.24,1.27,.45,2.56,.63,3.84,.02,.16-.18,.35-.31,.59Z"/><path class="cls-1" d="M137.76,86.1h3.29v.42h-1.29c-1.1,.95-1.39,.9-1.97-.45l-.04,.04Z"/><path class="cls-1" d="M114.75,106.58l2.91,3.46,.22-.22c-1.25-.85-2.59-1.62-3.12-3.25Z"/><path class="cls-1" d="M122.06,80.5l3.55,.26v.07h-3.57l.02-.33Z"/><path class="cls-1" d="M137.05,110.96l-1.94-.47c.55-.68,1.14-.6,1.94,.47Z"/><path class="cls-1" d="M136.12,80.7l-1.59-1.25,1.93,.15-.33,1.09Z"/><path class="cls-1" d="M72.41,37.86c.63-.28,1.18-.25,1.42,.5,.44,1.37,.85,2.76,1.28,4.14,.61,1.97,.27,2.4-1.8,2.13-.42-.05-.82-.27-.98-.6-.14-.42-.22-.89-.45-1.25-.25-.4-.65-.7-.97-1.05-.77-.85-1.44-.93-2.22,.06-.57,.72-1.33,1.3-2.2,1.74,1.99-1.9,3.97-3.8,5.96-5.7l-.04,.03Z"/><path class="cls-1" d="M42.25,26.82c.44-.25,.85-.58,1.32-.73,.92-.3,.73-.68,.18-1.16-1.41-1.22-3.2-1.2-4.63,.08-.23,.2-.35,.52-.64,.69-.6-1.15,.03-1.85,.82-2.23,1.96-.96,4.06-1.12,6.16-.53,.96,.27,1.08,.8,.54,1.62-.86,1.31-1.99,2.24-3.74,2.26Z"/><path class="cls-1" d="M49.33,25.41c.6,.46,1.28,.76,1.62,1.28,.41,.64,.54,1.46,.75,2.21,0,.02-.5,.28-.74,.24-.29-.05-.55-.29-.83-.45-.71-.41-1.42-.81-2.12-1.21l1.31-2.07Z"/><path class="cls-1" d="M52.15,29.62c-.28,.74-.41,1.57-.65,1.6-.79,.11-1.8,.19-2.39-.21-.62-.42-.85-1.41-1.35-2.33h1.46q.29,2.57,2.92,.94Z"/><path class="cls-1" d="M33.01,24.17l3.02-2.28c-.31,1.02-.24,1.85-1.45,1.8-.44-.02-.9,.51-1.36,.79l-.21-.32Z"/><path class="cls-1" d="M72.93,54.13c.33-.06,.74-.26,.98-.14,.32,.17,.51,.58,.75,.89l-1.65-.09-.08-.67Z"/><path class="cls-1" d="M96.16,133.49v3.07l-.33,.14c-.38-.74-.91-1.44-1.08-2.22-.06-.29,.73-.76,1.14-1.15l.27,.16Z"/><path class="cls-1" d="M86.25,126.02v3.49q-1.9-2.52,0-3.49Z"/><path class="cls-1" d="M62.01,172.58l2.79,2.71,1.12-1.35,1.99,1.94c-1.32,.33-2.42,.58-2.15,2.16-1.4-1.68-2.8-3.35-4.2-5.03l.46-.43Z"/><path class="cls-1" d="M60.64,181.49c-1.34-2.82-1.55-5.51-.73-7.77,.24,2.59,.49,5.18,.73,7.77Z"/><path class="cls-1" d="M64.06,164.98l-.66,3.4-.55-.06c0-.56,.16-1.19-.05-1.65-.19-.41-.79-.64-1.49-1.15l2.74-.54Z"/><path class="cls-1" d="M39.48,103.45c.25,2.05-1.3,2.21-2.34,2.89-.1,.06-.43-.03-.49-.14-.08-.16-.11-.51,0-.59,.92-.74,1.88-1.44,2.83-2.15Z"/><path class="cls-1" d="M41.49,111.23c1.93,.6,3.85,1.2,5.97,1.86-.99,.55-4.48-.45-6.07-1.52l.1-.34Z"/><path class="cls-1" d="M47.3,109.61c.39,.29,.82,.54,1.16,.88,.16,.15,.16,.46,.24,.7-.28,.04-.73,.2-.82,.08-.37-.47-.62-1.03-.92-1.55l.34-.11Z"/><path class="cls-1" d="M7.36,122.44c-.39,.8-.74,1.62-1.2,2.38-.12,.2-.59,.18-.9,.26-.12-.82-.43-1.66-.33-2.45,.2-1.58,1.22-2.63,2.7-3.18,.38-.14,.85-.06,1.28,.07-.68,.34-2,2.37-1.87,3.03,.11-.03,.22-.05,.34-.08l-.03-.03Z"/><path class="cls-1" d="M24.99,102.44c-.01,1.51-.44,1.71-1.81,.93l1.81-.93Z"/><path class="cls-1" d="M193.91,78.65l4.21-2.44c-1.21,1.18-2.36,2.46-4.21,2.44Z"/><path class="cls-1" d="M199.49,74.34l2.33,1.87c-1.79,.23-2.45-.28-2.33-1.87Z"/><path class="cls-1" d="M201.37,74.33c-1.15-.02-1.29-.25-1.21-1.9,.97,.13,1.25,.57,1.21,1.9Z"/><path class="cls-1" d="M101.37,74.23c-1.13,.17-2.06,.39-2.99,.42-.31,.01-.65-.41-.97-.64,.29-.21,.56-.56,.87-.61,1.04-.15,2.2-.6,3.09,.82Z"/><path class="cls-1" d="M54.43,99.04l3.69-.7c-1.18,.53-2.27,1.57-3.69,.69,0,0,0,0,0,0Z"/><path class="cls-1" d="M59.56,102.77l.32-.91,1.52,.24,.05,.25-1.71,.81-.19-.39Z"/><path class="cls-1" d="M85.05,72.64l-.15,1.28c-.4,0-.81-.12-1.07,.02-.86,.47-.93-.45-1.36-.7,.13-.2,.25-.57,.4-.58,.69-.06,1.38-.03,2.18-.03Z"/><path class="cls-1" d="M65,79.97c-.06-1.44-.13-2.86-.2-4.52,.8,1.32,1.78,2.37,2.08,3.6,.22,.93-.96,.97-1.88,.93Z"/><path class="cls-1" d="M11.65,106.16c-.35,.14-.7,.41-1.04,.39-.24-.01-.66-.45-.63-.64,.05-.31,.36-.64,.65-.8,.11-.06,.47,.33,.71,.51l.31,.54Z"/><path class="cls-1" d="M154.44,91.35l-.41,1.25-.86-.89-.72,1.55-1.22-.81,.33-1.33c-.52-.14-1.06-.21-1.53-.43-.45-.22-.82-.6-1.14-1.04l5.55,1.7Z"/><path class="cls-1" d="M146.32,84.66l4.37,.99c-1.24,.59-3.41,.16-4.37-.99Z"/><path class="cls-1" d="M135.7,94.42c-.31-.13-.61-.29-.92-.4-.68-.23-1.37-.42-2.06-.63l-.11,.35,.67-2.25c.81,1.01,1.6,1.98,2.38,2.96l.03-.03Z"/></g></g></svg>