<?xml version="1.0" encoding="UTF-8"?><svg id="_이어_2" xmlns="http://www.w3.org/2000/svg" viewBox="0 0 82.75 89.64"><defs><style>.cls-1{fill:#d83e18;}</style></defs><g id="_이어_1-2"><path class="cls-1" d="M73.84,23.04C67.53,9.18,55.23,0,41.08,0S14.37,9.39,8.13,23.49C3.09,26.59,0,31.68,0,40.06c0,5.53,1.76,9.68,4.49,12.83,3.27,20.92,18.41,36.75,36.6,36.75s32.95-15.43,36.47-35.96c3.13-3.23,5.2-7.62,5.2-13.62,0-8.8-3.42-13.98-8.91-17.02ZM41.16,12.67c5.5,0,10.57,2.32,14.62,6.27-4.37-.26-9.01-.27-13.72-.27h-1.36c-4.88,0-9.68,.02-14.18,.3,4.05-3.97,9.13-6.3,14.65-6.3Zm0,62.56c-8.22,0-15.47-5.45-19.79-13.76,4.91,1.01,9.49,1.27,12.23,1.41,1.65,.09,2.99-.6,4.14-1.2,.97-.51,1.83-.95,2.95-1.06h1.36c1.13,.11,1.98,.56,2.95,1.06,1.09,.57,2.32,1.21,3.85,1.21,.1,0,.19,0,.29,0,2.65-.14,7.01-.38,11.74-1.31-4.33,8.25-11.55,13.66-19.74,13.66Zm22.03-19.1c-3.76,1.02-8.44,1.74-14.29,2.06h-.04c-.38,0-.98-.31-1.68-.68-1.31-.69-3.11-1.63-5.67-1.63h-.28c-2.56,0-4.36,.94-5.67,1.63-.69,.36-1.29,.68-1.71,.68h0c-6.1-.33-10.93-1.11-14.77-2.19-12.59-3.57-14.38-10.48-14.38-15.93,0-10.92,6.25-14.71,17.75-16.01,5.25-.59,11.58-.67,18.92-.67,7.13,0,13.31,.08,18.46,.62,10.09,1.07,16.24,3.97,17.8,11.72,.11,.66,.21,1.33,.29,2,.07,.74,.11,1.51,.11,2.33,0,5.52-1.83,12.54-14.85,16.07Z"/></g></svg>